<svg width="49" height="67" xmlns="http://www.w3.org/2000/svg" xmlns:xlink="http://www.w3.org/1999/xlink"><defs><path d="M29.583 0H4.438A4.45 4.45 0 0 0 0 4.438v56.208a4.45 4.45 0 0 0 4.438 4.437h38.458a4.45 4.45 0 0 0 4.437-4.437V17.75L29.583 0z" id="a"/><path d="M29.583 0H4.438A4.45 4.45 0 0 0 0 4.438v56.208a4.45 4.45 0 0 0 4.438 4.437h38.458a4.45 4.45 0 0 0 4.437-4.437V17.75L29.583 0z" id="c"/><path d="M29.583 0H4.438A4.45 4.45 0 0 0 0 4.438v56.208a4.45 4.45 0 0 0 4.438 4.437h38.458a4.45 4.45 0 0 0 4.437-4.437V17.75L29.583 0z" id="e"/><linearGradient x1="50.005%" y1="8.586%" x2="50.005%" y2="100.014%" id="f"><stop stop-color="#263238" stop-opacity=".2" offset="0%"/><stop stop-color="#263238" stop-opacity=".02" offset="100%"/></linearGradient><path d="M29.583 0H4.438A4.45 4.45 0 0 0 0 4.438v56.208a4.45 4.45 0 0 0 4.438 4.437h38.458a4.45 4.45 0 0 0 4.437-4.437V17.75L29.583 0z" id="h"/><path d="M29.583 0H4.438A4.45 4.45 0 0 0 0 4.438v56.208a4.45 4.45 0 0 0 4.438 4.437h38.458a4.45 4.45 0 0 0 4.437-4.437V17.75L29.583 0z" id="j"/><path d="M29.583 0H4.438A4.45 4.45 0 0 0 0 4.438v56.208a4.45 4.45 0 0 0 4.438 4.437h38.458a4.45 4.45 0 0 0 4.437-4.437V17.75L29.583 0z" id="l"/><path d="M29.583 0H4.438A4.45 4.45 0 0 0 0 4.438v56.208a4.45 4.45 0 0 0 4.438 4.437h38.458a4.45 4.45 0 0 0 4.437-4.437V17.75L29.583 0z" id="n"/><radialGradient cx="3.168%" cy="2.717%" fx="3.168%" fy="2.717%" r="161.249%" gradientTransform="matrix(1 0 0 .72727 0 .007)" id="p"><stop stop-color="#FFF" stop-opacity=".1" offset="0%"/><stop stop-color="#FFF" stop-opacity="0" offset="100%"/></radialGradient></defs><g transform="translate(.833 .958)" fill="none" fill-rule="evenodd"><mask id="b" fill="#fff"><use xlink:href="#a"/></mask><path d="M29.583 0H4.438A4.45 4.45 0 0 0 0 4.438v56.208a4.45 4.45 0 0 0 4.438 4.437h38.458a4.45 4.45 0 0 0 4.437-4.437V17.75L36.98 10.354 29.583 0z" fill="#0F9D58" fill-rule="nonzero" mask="url(#b)"/><mask id="d" fill="#fff"><use xlink:href="#c"/></mask><path d="M11.833 31.802V53.25H35.5V31.802H11.833zm10.354 18.49h-7.395v-3.698h7.396v3.698zm0-5.917h-7.395v-3.698h7.396v3.698zm0-5.917h-7.395V34.76h7.396v3.698zm10.355 11.834h-7.396v-3.698h7.396v3.698zm0-5.917h-7.396v-3.698h7.396v3.698zm0-5.917h-7.396V34.76h7.396v3.698z" fill="#F1F1F1" fill-rule="nonzero" mask="url(#d)"/><mask id="g" fill="#fff"><use xlink:href="#e"/></mask><path fill="url(#f)" fill-rule="nonzero" mask="url(#g)" d="M30.8813021 16.4520313L47.3333333 32.9003646 47.3333333 17.75z"/><mask id="i" fill="#fff"><use xlink:href="#h"/></mask><g mask="url(#i)"><path d="M29.583 0v13.313a4.436 4.436 0 0 0 4.438 4.437h13.312L29.583 0z" fill="#87CEAC" fill-rule="nonzero"/></g><g><mask id="k" fill="#fff"><use xlink:href="#j"/></mask><path d="M4.438 0A4.45 4.45 0 0 0 0 4.438v.37A4.45 4.45 0 0 1 4.438.37h25.145V0H4.438z" fill-opacity=".2" fill="#FFF" fill-rule="nonzero" mask="url(#k)"/></g><g><mask id="m" fill="#fff"><use xlink:href="#l"/></mask><path d="M42.896 64.714H4.437A4.45 4.45 0 0 1 0 60.276v.37a4.45 4.45 0 0 0 4.438 4.437h38.458a4.45 4.45 0 0 0 4.437-4.437v-.37a4.45 4.45 0 0 1-4.437 4.438z" fill-opacity=".2" fill="#263238" fill-rule="nonzero" mask="url(#m)"/></g><g><mask id="o" fill="#fff"><use xlink:href="#n"/></mask><path d="M34.02 17.75a4.436 4.436 0 0 1-4.437-4.438v.37a4.436 4.436 0 0 0 4.438 4.438h13.312v-.37H34.021z" fill-opacity=".1" fill="#263238" fill-rule="nonzero" mask="url(#o)"/></g><path d="M29.583 0H4.438A4.45 4.45 0 0 0 0 4.438v56.208a4.45 4.45 0 0 0 4.438 4.437h38.458a4.45 4.45 0 0 0 4.437-4.437V17.75L29.583 0z" fill="url(#p)" fill-rule="nonzero"/></g></svg>