<svg width="1315" height="380" fill="none" xmlns="http://www.w3.org/2000/svg"><circle cx="657" cy="50" r="50" fill="#fff"/><path d="M671.051 40.956V34.38a5.066 5.066 0 0 0 2.92-4.565v-.15a5.064 5.064 0 0 0-5.064-5.065h-.151a5.064 5.064 0 0 0-5.064 5.064v.151a5.06 5.06 0 0 0 2.92 4.565v6.576a14.337 14.337 0 0 0-6.819 3.003L641.756 29.91c.129-.464.196-.942.203-1.42a5.71 5.71 0 0 0-3.513-5.28 5.705 5.705 0 1 0-2.2 10.974 5.647 5.647 0 0 0 2.81-.764l17.761 13.82a14.385 14.385 0 0 0 .22 16.204l-5.402 5.403a4.647 4.647 0 0 0-1.35-.22 4.686 4.686 0 1 0 4.69 4.69 4.652 4.652 0 0 0-.221-1.35l5.344-5.346a14.41 14.41 0 1 0 10.953-25.665zm-2.215 21.63a7.398 7.398 0 0 1-5.356-2.093 7.402 7.402 0 0 1-2.236-5.297 7.395 7.395 0 0 1 7.592-7.39 7.393 7.393 0 0 1 .008 14.776" fill="#FF7A59"/><circle cx="797" cy="50" r="50" fill="#fff"/><g clip-path="url(#clip0)"><path d="M807.275 57.103h-20.488l-8.773 15.325c1.055.537 2.254.88 3.029.88 8.059 0 24.508-.118 32.673-.118.839 0 1.625-.287 2.33-.735l-8.771-15.352z" fill="#4185F3"/><path d="M778.014 72.429l8.773-15.325h-17.778c-.009 1.065.37 2.04.963 3.15 1.653 3.093 4.45 8.036 6.092 10.619.405.636 2.013 1.588 1.95 1.556z" fill="#1767D1"/><path d="M807.275 57.103l8.774 15.35c1.137-.723 2.064-1.868 2.665-2.922a856.638 856.638 0 0 1 5.24-9.017c.737-1.246 1.023-2.365 1.005-3.412l-17.684.001z" fill="#E94235"/><path d="M786.789 57.105l10.233-17.791-9.146-15.249c-.989.65-1.835 1.534-2.219 2.206-3.992 7.002-12.035 21.352-16.079 28.444a4.397 4.397 0 0 0-.572 2.39h17.783z" fill="#30A753"/><path d="M807.275 57.105l-10.253-17.791 8.895-15.232c.99.652 2.075 1.517 2.459 2.19 3.993 7.001 12.035 21.351 16.081 28.443.417.73.543 1.555.502 2.39h-17.684z" fill="#F9BC00"/><path d="M787.875 24.067l9.147 15.246 8.895-15.23c-.918-.537-2.219-.855-3.478-.895-3.504-.117-9.184-.164-12.241-.031-.754.033-2.313.904-2.323.91z" fill="#0F8038"/></g><circle cx="517" cy="50" r="50" fill="#fff"/><g clip-path="url(#clip1)" fill-rule="evenodd" clip-rule="evenodd"><path d="M509.532 22a5.604 5.604 0 0 0-5.599 5.61 5.606 5.606 0 0 0 5.601 5.61h5.601v-5.608A5.61 5.61 0 0 0 509.532 22c.002 0 .002 0 0 0zm0 14.963h-14.931a5.605 5.605 0 0 0-5.601 5.61 5.605 5.605 0 0 0 5.598 5.613h14.934a5.606 5.606 0 0 0 5.601-5.61 5.607 5.607 0 0 0-5.601-5.613z" fill="#36C5F0"/><path d="M545 42.573a5.606 5.606 0 0 0-5.601-5.61 5.606 5.606 0 0 0-5.601 5.61v5.613h5.601A5.606 5.606 0 0 0 545 42.573zm-14.933 0V27.61a5.607 5.607 0 0 0-5.599-5.61 5.606 5.606 0 0 0-5.601 5.61v14.963a5.605 5.605 0 0 0 5.599 5.613 5.607 5.607 0 0 0 5.601-5.613z" fill="#2EB67D"/><path d="M524.465 78.112a5.605 5.605 0 0 0 5.601-5.61 5.605 5.605 0 0 0-5.601-5.61h-5.6v5.61a5.608 5.608 0 0 0 5.6 5.61zm0-14.965h14.934a5.606 5.606 0 0 0 5.601-5.61 5.606 5.606 0 0 0-5.599-5.613h-14.933a5.606 5.606 0 0 0-5.601 5.61 5.604 5.604 0 0 0 5.598 5.613z" fill="#ECB22E"/><path d="M489 57.536a5.606 5.606 0 0 0 5.601 5.61 5.606 5.606 0 0 0 5.601-5.61v-5.61h-5.601a5.606 5.606 0 0 0-5.601 5.61zm14.933 0V72.5a5.607 5.607 0 0 0 5.599 5.612 5.606 5.606 0 0 0 5.601-5.61v-14.96a5.606 5.606 0 0 0-5.599-5.613 5.602 5.602 0 0 0-5.601 5.607s0 .003 0 0z" fill="#E01E5A"/></g><circle cx="237" cy="50" r="50" fill="#fff"/><g clip-path="url(#clip2)"><path d="M260.354 73.656a.952.952 0 0 1-.702.28.955.955 0 0 1-.703-.28.954.954 0 0 1-.281-.702c0-.281.094-.539.305-.726.187-.187.421-.258.679-.258.281 0 .515.094.702.281a.954.954 0 0 1 .281.703.804.804 0 0 1-.281.702zm-1.264-1.288a.76.76 0 0 0-.234.562c0 .234.07.422.234.585a.777.777 0 0 0 .585.235c.234 0 .421-.07.585-.234a.776.776 0 0 0 .234-.586c0-.21-.07-.421-.234-.562a.798.798 0 0 0-.585-.257c-.234.023-.421.093-.585.257zm.889 1.077a.448.448 0 0 1-.281.094.56.56 0 0 1-.561-.585c0-.164.046-.305.14-.422.094-.117.234-.164.398-.164.094 0 .187.024.281.07.117.07.211.188.234.375h-.257c-.024-.07-.047-.14-.094-.164-.047-.023-.094-.046-.141-.046-.07 0-.14.023-.187.093a.498.498 0 0 0-.07.281c0 .117.023.21.07.258.047.046.117.093.187.093a.334.334 0 0 0 .164-.047l.071-.14h.234a.46.46 0 0 1-.188.304zm2.482-10.394c0-.093-.024-.187-.024-.28 0-.07-.023-.118-.023-.164a2.39 2.39 0 0 0-.094-.398 2.259 2.259 0 0 0-.421-.726 2.336 2.336 0 0 0-.609-.492 3.2 3.2 0 0 0-.655-.234c-.07 0-.117-.023-.164-.023.258-1.124-.07-1.99-.281-2.388l.047-.047c.281-.28.515-.538.726-.796l.046-.047a2.55 2.55 0 0 0 .328-.678c.047-.188.094-.352.094-.515v-.445c-.024-.351-.07-.796-.305-1.288a3.295 3.295 0 0 0-.491-.725 2.868 2.868 0 0 0-.773-.61c-.023-.023-.046-.023-.07-.046a11.415 11.415 0 0 0-1.966-2.177c-.328-.28-.632-.515-.89-.702-.257-.188-.468-.328-.585-.422a4.082 4.082 0 0 0-.585-.374 5.835 5.835 0 0 1-.492-.328c-.07-.07-.117-.094-.14-.117 0 0 0-.023-.024-.07-.023-.07-.023-.164-.023-.328 0-.234 0-.585.023-1.053.047-.75.117-1.756.211-3.137.023-.445.023-.866.023-1.241a9.099 9.099 0 0 0-.234-1.709c-.023-.117-.07-.234-.093-.351a.786.786 0 0 0-.071-.187 1.533 1.533 0 0 0-.093-.234c-.024-.047-.024-.094-.071-.14a2.298 2.298 0 0 0-.163-.352l-.024-.023-.023-.07-.024-.047a3.394 3.394 0 0 0-.398-.562 8.5 8.5 0 0 0-.398-1.335 7.618 7.618 0 0 0-.772-1.498c-.117-.187-.258-.351-.398-.515l.047-.047a24.04 24.04 0 0 0 3.02-4.05c2.411-4.19 1.615-6.742.515-8.146l-.024-.047-.023-.047c-1.054-1.17-2.505-1.872-4.261-2.107-3.675-.468-7.842 1.358-8.942 1.873l-2.013-2.2c-.188-.188-.375-.375-.586-.515-.21-.14-.444-.281-.679-.398a5.36 5.36 0 0 0-1.545-.422c-1.1-.14-2.364 0-3.722.351-2.036.515-4.307 1.546-6.695 2.973-2.388 1.428-4.869 3.278-7.28 5.478-2.95 2.669-5.384 5.502-7.164 8.217-.889 1.334-1.615 2.645-2.153 3.91-.539 1.24-.89 2.434-1.03 3.51-.094.797-.094 1.546.07 2.225.07.304.164.585.304.866.164.351.375.679.632.96l2.084 2.177.234.234-.024.023-.07.14c-.047.071-.07.141-.117.188l-.07.14c-.023.07-.07.141-.094.211l-.07.14c-.023.071-.07.141-.094.211-.023.047-.046.094-.046.14l-.071.212c-.023.046-.023.093-.046.14-.024.07-.047.14-.071.234 0 .024-.023.047-.023.07 0 .024-.024.047-.024.07-.023.07-.046.165-.07.235 0 .047-.023.093-.023.14 0 .024-.024.07-.024.094 0 .047-.023.093-.023.14 0 .047-.023.094-.023.14-.024.094-.024.188-.047.305 0 .023 0 .047-.024.094v.023c0 .07-.023.14-.023.187 0 .094-.023.211-.023.305v1.17c0 .047 0 .094.023.14 0 .047 0 .118.023.188v.07c0 .047.024.117.024.164s.023.094.023.164c0 .023 0 .047.024.07 0 .023.023.07.023.094v.047c0 .046.023.093.047.187 0 .023 0 .023.023.047.024.046.024.093.024.117l.023.047c0 .023 0 .023.023.046l.024.047v.07c0 .024 0 .024.023.047l.024.047c0 .047.023.07.023.117.024.047.024.094.047.187v-.023.023c0 .024 0 .024.023.047.024.07.047.117.047.14a.75.75 0 0 1 .07.188l.024.023c.023.047.023.094.047.117l.023.047c0 .024.023.047.023.07 0 .024.024.07.047.094l.024.047c.023.023.023.07.047.093.023.024.023.047.023.07.023.047.047.094.07.165l.024.023c.023.023.023.047.046.07.024.024.024.07.047.094.024.023.047.07.07.14l.024.024c.023.023.023.046.047.07.023.047.046.07.046.094.024.023.047.07.071.117v.023c.023.024.023.047.047.07.023.047.046.07.07.094.023.023.047.07.093.14.024.024.047.047.047.07.024.047.047.07.07.094.024.024.047.07.071.117.023.024.046.07.07.094.023.047.047.07.094.094l.07.07.023.023c.047.047.07.094.117.14l.047.047.07.07.141.141.047.047.07.07.023.024c.047.047.117.093.164.163l.023.024c.024.023.047.023.071.07.07.07.14.117.21.187l.047.024.024.023.046.024c.071.047.117.093.188.14l.023.023c.024.024.047.024.047.024l.047.047c.047.047.093.07.14.117l.047.023.047.047.023.023c.047.024.117.07.164.094.024.023.047.047.094.047l.047.023.023.024h.023c.094.047.164.093.234.14l.047.024.281.14h.024l.046.023.141.07c.023 0 .047.024.07.024.024.024.047.024.094.047h.023a.335.335 0 0 0 .141.047h.023c.047.023.094.047.164.07h.023l.047.023c.024 0 .047.024.07.024h.024c.07.023.14.047.234.07h.023c.117.047.234.07.351.094h.024c.093.023.211.047.304.07h.094c.093.023.187.047.281.047h.093c.071 0 .117.023.188.023 0 .024.023.047.023.07.164.445.328.89.515 1.311 2.762 7.655 10.417 13.601 19.149 14.701 8.732 1.077 18.072-4.728 21.865-12.57.164-.305.304-.586.445-.89.374-.398.678-.796.866-1.217.304-.258.374-.773.351-1.218zm-48.482-3.043h.024-.024z" fill="#664F44"/><path d="M254.994 24.752a4.6 4.6 0 0 0-1.451-1.077 1.162 1.162 0 0 0-.304-.093c-.047-.024-.094-.07-.141-.094a6.196 6.196 0 0 0-1.475-.375c-2.528-.327-5.431.609-7.069 1.265-.094.046-.188.07-.281.117-.141.07-.281.117-.422.187-.234.094-.468.21-.725.328-.047.023-.071.023-.117.046l-.445-.515-.211-.234-.187-.21-.07-.094-1.709-1.966-.141-.164-.187-.211h-.023l-.492.117-.562.117c-.304-.14-.679-.234-1.1-.304-.843-.117-1.92 0-3.137.304s-2.598.843-4.05 1.569c-2.926 1.45-6.157 3.675-9.293 6.53-1.101.984-2.107 2.014-3.044 3.02a44.83 44.83 0 0 0-2.481 2.95c-1.522 1.99-2.669 3.91-3.418 5.642-.492 1.147-.796 2.2-.913 3.114-.094.655-.07 1.24.047 1.708.047.164.094.281.14.422.117.28.258.515.445.726l1.896 1.99.211.21.023-.023a.705.705 0 0 1 .188-.188l.023-.023.07-.07c.047-.07.117-.117.164-.188.047-.046.07-.07.117-.093.047-.024.07-.07.117-.094l.047-.047c.047-.023.07-.07.117-.093.047-.047.117-.094.164-.14.023-.024.07-.048.094-.071h.023c.07-.047.117-.094.187-.14a.397.397 0 0 0 .117-.094c.071-.047.117-.094.188-.14.046-.024.07-.047.117-.07a.942.942 0 0 1 .21-.118c.047-.023.071-.047.117-.07.071-.047.141-.07.211-.117.047-.024.07-.047.117-.07l.047-.024c.07-.023.117-.07.187-.093.024-.024.071-.024.094-.047.047-.024.094-.047.164-.07l.14-.07.047-.024.351-.14c.047-.024.07-.024.117-.047.047-.024.07-.024.117-.047l.047-.024c.024 0 .047-.023.07-.023.047-.024.094-.024.164-.047h.047c.07-.023.117-.023.187-.047.047-.023.117-.023.164-.047.07-.023.141-.023.211-.046.023 0 .047-.024.094-.024.023 0 .07 0 .093-.023.07-.023.141-.023.211-.023s.117-.024.187-.024c.047 0 .094-.023.141-.023h.187c.234 0 .515 0 .796.023h.047c.281.024.608.07.936.14.07.024.164.024.234.047.023-.023.023-.07.047-.093.187-.305.351-.632.538-.937a35.587 35.587 0 0 1 3.324-4.658c.398-.468.796-.89 1.194-1.311a31.04 31.04 0 0 1 4.823-4.097c.327-.234.679-.445.983-.655.445-.281.866-.515 1.264-.75.328-.187.632-.35.936-.491.492-.258.937-.468 1.335-.632l.351-.14c.164-.07.328-.141.468-.188-.117-.023-.257-.023-.374-.023h-.469c-.117 0-.257 0-.374.023-.234.024-.492.047-.749.07-.094.024-.164.024-.258.047a11.77 11.77 0 0 1 1.85-.749c.398-.117.796-.21 1.17-.28a11.779 11.779 0 0 1 1.451-.188c.305-.023.586-.023.843-.023.258 0 .515.023.726.023.772.047 1.241.164 1.241.164-.117-.164-.258-.281-.398-.398a3.957 3.957 0 0 0-.866-.468c-.118-.047-.211-.07-.305-.117-.07-.024-.14-.047-.187-.047.14-.024.257-.047.374-.047.141-.024.258-.024.398-.047 1.101-.094 2.084 0 2.81.117a8.628 8.628 0 0 1 1.404.375 2.18 2.18 0 0 0-.515-.632 5.242 5.242 0 0 0-.445-.328c.305.07.562.14.843.234.702.21 1.288.468 1.756.679l.421.21c.047.024.07.047.094.047.421.235.655.398.655.398a1.75 1.75 0 0 0-.398-.702c-.046-.047-.093-.117-.14-.164h.023c.024 0 .047.024.094.024a.4.4 0 0 1 .117.046c.187.07.468.188.796.352.023 0 .023.023.047.023l.14.07c.117.07.234.117.351.21l.351.212c.071.046.118.07.188.117.117.093.257.187.374.304.141.117.258.234.375.351l.07.07c.094.094.187.188.258.281.163.188.304.398.444.609.164.257.281.562.398.866 0 .023 0 .047.024.047.07-.07.21-.21.374-.398 1.358-1.592 5.431-6.742 2.973-9.879z" fill="#132134"/><path d="M261.057 63.214s.047-.351-.14-.679c0-.023-.024-.047-.024-.047l-.023-.023-.07-.07c-.047-.047-.094-.094-.164-.14-.023-.024-.07-.047-.117-.07-.117-.048-.234-.095-.398-.118-.117-.023-.234-.023-.375-.023h-.187v.047c0 .023.024.046.024.093 0 .024 0 .047.023.047.023.07.047.187.07.28 0 0 0 .024-.023.071v.023c-.07.164-.258.539-.679 1.007-.07.094-.141.164-.234.258-1.171 1.217-3.699 2.926-9.036 3.886-1.803.257-3.488.28-4.893.093-2.107-.257-3.675-.936-4.424-1.85-.071-.07-.117-.163-.188-.233-.046-.07-.07-.117-.117-.188-.023-.023-.023-.046-.047-.07a3.694 3.694 0 0 1-.444-1.755c0-.726.234-1.405.608-1.92.305-.421.703-.75 1.194-.89a2 2 0 0 1 .749-.093c.047 0 .117 0 .211.023.164.024.421.047.726.094.023 0 .07 0 .093.023 1.007.117 2.599.281 4.518.164 3.512-.21 8.124-1.31 12.314-5.103v-.024c.023-.327-.024-.89-.421-1.334-.071-.07-.141-.14-.235-.21-.046-.047-.117-.07-.163-.118-.071-.023-.117-.07-.164-.093l-.211-.14v-.024a.478.478 0 0 0-.094-.14c-1.076-1.64-2.575-2.6-3.183-3.044-.281-.21-.469-.304-.469-.304-1.287-.796-1.474-1.054-1.357-3.184.047-.773.117-1.78.21-3.16 0-.188.024-.351.024-.515v-.679c0-.117-.024-.234-.024-.328 0-.047 0-.093-.023-.14-.023-.117-.023-.234-.047-.351 0-.047-.023-.117-.023-.164 0-.07-.024-.117-.047-.188-.023-.047-.023-.117-.047-.163-.023-.07-.047-.141-.047-.211 0-.024-.023-.047-.023-.07 0-.024-.024-.047-.024-.07v-.024l-.023-.07c-.023-.047-.047-.094-.047-.14v-.024l-.023-.047-.024-.047c-.046-.093-.07-.187-.117-.257l-.023-.07c-.047-.07-.094-.164-.14-.235l-.024-.023-.023-.023c-.047-.047-.071-.094-.117-.14l-.047-.071c-.047-.07-.094-.117-.141-.164v-.187c-.023-.094-.046-.211-.07-.328 0-.023-.023-.07-.023-.094v-.023c0-.047-.024-.07-.024-.117a1.283 1.283 0 0 0-.093-.281c0-.023-.024-.07-.024-.094l-.07-.21c-.023-.047-.023-.094-.047-.117a.843.843 0 0 0-.093-.211l-.071-.14c-.023-.07-.07-.141-.093-.211l-.071-.14c-.046-.07-.07-.141-.117-.211l-.07-.14a2.07 2.07 0 0 1-.14-.235c-.024-.047-.047-.07-.07-.117-.024-.023-.047-.07-.071-.094-.07-.07-.117-.14-.187-.21l-.047-.024c-.093-.093-.164-.187-.257-.257l-.024-.024c-.047-.023-.093-.07-.117-.093h-.023c-.047-.024-.07-.047-.117-.07l-.024-.024c-.046-.023-.117-.07-.21-.117-.024-.023-.071-.023-.117-.047-.211-.07-.469-.164-.796-.257-.024 0-.047 0-.071-.024a7.335 7.335 0 0 0-.889-.187c-.117-.023-.211-.023-.328-.047-.047 0-.093 0-.164-.023h-.07c-.257-.024-.492-.047-.749-.047h-.023c-.328 0-.656.023-.96.094.07-.117.281-.258.468-.375.257-.14.492-.234.492-.234-.141 0-.281.023-.422.047-.047 0-.093.023-.14.023-.024 0-.07 0-.094.024h-.023c-.024 0-.047 0-.071.023a12.06 12.06 0 0 0-1.825.585l-.141.07h-.023c-.047 0-.071 0-.117.024.281-.538.702-.82 1.03-.96.046-.023.117-.047.163-.07.024 0 .024 0 .047-.023.047-.024.094-.024.117-.047.071-.024.117-.024.117-.024h-.374a5.579 5.579 0 0 0-2.13.703 8.496 8.496 0 0 0-1.124.749c-.094.023-.164.046-.258.046-.889.188-1.896.422-2.949.75-.398.117-.796.257-1.194.398-.304.117-.632.234-.936.35-.235.094-.445.188-.679.282-1.616.725-3.231 1.685-4.565 2.973l-.141.14-.351.351-.14.14c-.047.07-.117.141-.164.188a9.486 9.486 0 0 0-.726.913 7.946 7.946 0 0 0-.468.749l-.023.023a9.684 9.684 0 0 0-.796 1.733c-.117.304-.211.632-.305.96-.023.093-.047.163-.07.257l-.023.047a8.281 8.281 0 0 0-.211 1.1c0 .07-.023.14-.023.234a4.457 4.457 0 0 0-.047.585c-.024.188-.024.352-.024.539v.726c0 .21 0 .421.024.632v.023c0 .21.023.421.047.656 0 .093.023.187.023.28v.07c0 .047 0 .094.023.165.024.234.071.491.094.749 0 .07.023.14.023.21.047.211.071.445.117.656 0 0-.046-.281-.023-.703 0-.093.023-.21.023-.304.024-.234.071-.515.164-.772l.071-.211c0-.023.023-.047.046-.094.047-.117.117-.257.188-.374.023.093.023.187.046.257v1.241c.024.796.094 1.756.258 2.575 0 0 .023-1.475.281-1.662 0 0 .445 2.762.843 3.792.046.14.117.234.164.305v-.281l-.047-1.522v-.164c.304.632.655 1.264 1.053 1.943.117.188.211.375.328.562-.749.655-1.452 1.615-1.967 2.739-.07.187-.163.375-.234.562-.046.117-.07.21-.117.328 0 .023-.023.07-.023.093-.024.07-.047.164-.07.234 0 .047-.024.07-.024.117-.023.07-.047.164-.07.234 0 .047-.023.07-.023.117l-.071.352c-.023.117-.046.234-.046.35 0 .048 0 .071-.024.118 0 .093-.023.164-.023.257 0 .047 0 .094-.024.14 0 .094-.023.165-.023.258v.82c0 .093 0 .187.023.304v.07c0 .117.024.234.047.375 0 .047 0 .07.024.117 0 .093.023.164.046.257 0 .047.024.094.024.14.023.071.023.165.047.235 0 .047.023.094.023.14.023.07.047.14.047.234.023.047.023.094.047.164.023.07.046.164.07.234.023.047.023.094.047.14.023.071.047.165.07.235.023.047.023.094.047.14.023.094.07.188.093.258.024.047.024.07.047.117l.351.772c.024.047.047.07.071.118l.14.28a.48.48 0 0 0 .094.14c.047.071.093.165.14.235.024.047.07.094.094.14.047.07.093.164.164.235.046.046.07.093.117.163s.117.164.164.234c.046.047.07.094.117.164.07.07.117.164.187.234.047.047.07.094.117.14.07.095.14.165.234.258l.117.117c.117.118.234.258.351.375 0 0-.07-.094-.164-.28a.18.18 0 0 1-.046-.118l-.071-.14c-.023-.047-.047-.094-.07-.164a3.938 3.938 0 0 1-.328-1.686l.211.281c.07.164.187.375.304.609.047.07.094.164.117.234.188.328.375.702.609 1.053.281.445.562.867.866 1.264 0 0-.351-.749-.468-1.24-.023-.14-.047-.258-.023-.328.023.023.046.07.093.094.024.023.047.07.094.093.047.07.117.164.211.281l.046.047c.047.047.071.117.117.164.047.07.094.14.164.21.492.633 1.171 1.475 1.639 1.92.164.14.304.258.398.304l-.679-1.217c1.545 1.264 7.959 2.88 14.257 1.077a16.48 16.48 0 0 0 2.27-.82c.445-.187.89-.42 1.335-.655l.07-.047c.304-.163.608-.35.913-.538.234-.14.468-.304.679-.445.374-.257.749-.538 1.123-.843.024-.023.047-.046.071-.046a13.04 13.04 0 0 0 1.006-.96c.422-.445.796-.89 1.124-1.334l.023-.024c.094-.117.164-.21.234-.328l.024-.023c.023-.047.047-.07.07-.117.117-.164.211-.304.328-.468.023-.047.047-.07.07-.117.047-.094.094-.164.164-.258.047-.07.07-.117.117-.187.047-.07.094-.14.117-.21.07-.118.14-.258.211-.375l.07-.14.14-.282.071-.14.023-.047c.047-.117.117-.234.164-.351v-.024c.21-.187.351-.374.491-.538.024-.023.047-.047.047-.07.141-.445.234-.796.234-1.124zm-37.666-4.541c0-.024 0-.047-.023-.094-.07-.398-.141-.82-.164-1.24v-.094c-.07.023-.14.117-.234.234-.024.047-.07.093-.094.164-.21.398-.398.96-.398.96.024-.188.047-.375.047-.562v-.07l.07-.586v-.07c.024-.234.071-.445.117-.656 0-.023 0-.046.024-.093v-.024c0-.023 0-.046.023-.07 0-.047.024-.07.024-.117.023-.164.07-.328.093-.491.024-.141.047-.281.07-.398v-.047c0-.024 0-.047.024-.047v-.047c0-.023.023-.07.023-.094 0-.023 0-.046.024-.07 0-.047.023-.093.023-.117 0-.023.024-.07.024-.093 0-.047.023-.094.023-.117 0-.024 0-.047.023-.07 0-.024 0-.048.024-.048 0-.046.023-.07.023-.093v-.07l-.047.046c-.046.024-.07.07-.117.094l-.047.047c-.046.047-.093.093-.117.14l-.023.024-.14.21-.024.024c0 .023-.023.023-.023.047l-.071.14v.047c-.023.07-.07.14-.093.21-.07.188-.141.375-.187.539-.024.047-.024.117-.047.14a1.785 1.785 0 0 0-.047.211v.024-.024c0-.07 0-.117.023-.187 0-.117.024-.258.024-.375 0-.093.023-.21.047-.304 0-.023 0-.07.023-.094 0-.047.023-.093.023-.14 0-.047.024-.094.024-.14v-.07c0-.048.023-.118.023-.165v-.164c0-.023 0-.046.024-.07a.844.844 0 0 0 .046-.234v-.023c.024-.047.024-.117.047-.164v-.023c.024-.118.07-.235.094-.352v-.047c0-.023 0-.046.023-.07.047-.187.117-.374.164-.538v-.024c.047-.14.117-.304.164-.444v-.024c.023-.07.047-.117.07-.187.047-.094.071-.187.117-.281 0-.023.024-.07.071-.164.023-.023.023-.07.046-.094.024-.046.047-.093.071-.163l.023-.047.398-.726c.023-.023.023-.07.047-.093v-.024l.023-.047c.047-.07.094-.164.141-.234.07-.117.117-.234.187-.328.117-.21.211-.398.281-.491.023-.07.047-.094.07-.117-.023 0-.14-.094-.328-.21-.234-.141-.561-.329-.959-.516-.141-.07-.258-.117-.398-.187-.164-.07-.352-.14-.539-.21-.047-.024-.093-.024-.14-.048-.164-.047-.305-.093-.468-.14a7.008 7.008 0 0 1-.328-.07c-.094-.024-.187-.024-.281-.047-.047 0-.094 0-.141-.024-.046 0-.093 0-.14-.023-.117 0-.258-.023-.375-.023h-.187c-.281 0-.538.023-.796.07h-.047c-.468.07-.913.187-1.357.351-.141.047-.281.117-.445.187-.047.024-.07.047-.117.047l-.141.07c-.421.211-.819.492-1.194.796h-.023a6.013 6.013 0 0 0-.866.866l-.211.281a3.103 3.103 0 0 0-.234.351c-.14.211-.281.445-.398.68-.047.093-.094.163-.117.257 0 .023-.023.023-.023.047-.234.562-.422 1.147-.492 1.779-.023.117-.023.234-.047.374v.047c0 .094-.023.187-.023.304v.422c0 .093 0 .187.023.28v.118c0 .07.024.14.024.21v.024c0 .047 0 .07.023.117 0 .07.023.14.023.187 0 .047.024.094.024.14.023.07.023.118.047.188 0 .047.023.094.047.14v.024l.023.047v.047l.023.046c.024.047.024.094.047.14.024.048.024.118.047.165.023.046.047.093.047.163l.023.047c.024.047.024.07.047.117s.047.094.07.164l.07.14c.024.024.024.047.047.07.024.024.024.048.047.071l.07.14c.024.047.047.118.094.165a.512.512 0 0 0 .07.117c.024.046.07.116.094.163.023.047.047.07.07.117.023.047.07.117.117.164.024.047.047.07.07.094.047.047.071.117.117.164.024.023.047.07.071.093.046.047.093.117.14.164a.306.306 0 0 1 .07.094c.047.047.094.117.141.164l.07.07c.047.047.094.117.164.164l.07.07.164.164c.023.023.047.047.07.047.047.047.117.093.187.164.024.023.047.023.071.046.07.047.117.094.187.141.023.023.047.023.047.047l.21.14.047.024.211.14.047.023c.07.047.164.094.234.141l.047.023c.07.047.164.094.234.117l.047.024c.093.047.164.07.257.117l.024.023c.093.047.187.07.257.117h.023c.094.024.188.07.281.094h.024c.047.023.093.023.14.047.047.023.094.023.164.047h.024c.093.023.21.046.304.07.094.023.211.047.304.047.328.047.656.07.983.093h.234c.118 0 .211 0 .328-.023.141-.023.305-.023.468-.047.141-.023.281-.047.398-.07.211-.047.422-.094.609-.164.609-.164 1.124-.398 1.451-.656 0 0-.21-.936-.374-1.872-.047-.047-.07-.14-.094-.234z" fill="#90694C"/><path d="M238.42 23.886l-.07-.936.468-1.03.187-.047c-.304-.14-.679-.234-1.1-.305-.843-.117-1.92 0-3.137.305-1.217.304-2.598.842-4.05 1.568-2.926 1.451-6.156 3.675-9.293 6.531-1.101.984-2.107 2.014-3.044 3.02a44.857 44.857 0 0 0-2.481 2.95c-1.522 1.99-2.669 3.91-3.418 5.642-.491 1.147-.796 2.2-.913 3.113-.093.655-.07 1.24.047 1.709.047.164.094.28.141.421.117.281.257.515.444.726l1.896 1.99.211.21.024-.023a.704.704 0 0 1 .187-.187l.023-.024.071-.07c.046-.07.117-.117.163-.187a.425.425 0 0 1 .117-.094c.047-.023.071-.07.117-.093l.047-.047c.047-.024.071-.07.117-.094.047-.047.117-.093.164-.14.024-.024.07-.047.094-.07h.023c.07-.047.117-.094.188-.141a.425.425 0 0 0 .117-.094c.07-.046.117-.093.187-.14.047-.023.07-.047.117-.07a.93.93 0 0 1 .211-.117c.046-.024.07-.047.117-.07.07-.047.14-.07.21-.118.047-.023.071-.046.117-.07l.047-.023c.445-1.241 1.124-2.622 2.013-4.027 1.077-1.732 2.458-3.558 4.097-5.384a46.049 46.049 0 0 1 3.371-3.394 49.776 49.776 0 0 1 4.776-3.84 41.219 41.219 0 0 1 3.16-2.013c.094-.046.187-.117.304-.164.281-.164.539-.304.82-.444.585-.305 1.17-.586 1.732-.82l-.281-.327-.047-.047-.351-.398-1.943-2.341.023-1.686-.023-.023 1.381-.421 2.622 1.334z" fill="#2F83C1"/><path d="M261.057 63.214s.047-.351-.14-.679c0-.023-.024-.047-.024-.047l-.023-.023-.07-.07c-.047-.047-.094-.094-.164-.14-.023-.024-.07-.047-.117-.07-.117-.048-.234-.095-.398-.118-.117-.023-.234-.023-.375-.023h-.187v.047c0 .023.024.046.024.093 0 .024 0 .047.023.047.023.07.047.187.07.28 0 0 0 .024-.023.071v.023c-.07.164-.258.539-.679 1.007-.07.094-.141.164-.234.258-1.171 1.217-3.699 2.926-9.036 3.886-1.803.257-3.488.28-4.893.093-2.107-.257-3.675-.936-4.424-1.85-.071-.07-.117-.163-.188-.233-.047-.07-.07-.117-.117-.188-.023-.023-.023-.046-.047-.07a3.694 3.694 0 0 1-.444-1.755c0-.726.234-1.405.608-1.92.305-.421.703-.75 1.194-.89a2 2 0 0 1 .749-.093.81.81 0 0 1 .211.023c.164.024.421.047.726.094.023 0 .07 0 .093.023 1.007.117 2.599.281 4.518.164 3.512-.21 8.124-1.31 12.314-5.103v-.024c.023-.327-.024-.89-.421-1.334-.071-.07-.141-.14-.235-.21-.046-.047-.117-.07-.163-.118-.071-.023-.118-.07-.164-.093l-.211-.14v-.024a.48.48 0 0 0-.094-.14c-1.076-1.64-2.575-2.6-3.183-3.044a3.416 3.416 0 0 0-.469-.304c-1.287-.796-1.474-1.054-1.357-3.184.046-.773.117-1.78.21-3.16 0-.188.024-.351.024-.515v-.679c0-.117-.024-.234-.024-.328 0-.047 0-.093-.023-.14-.023-.117-.023-.234-.047-.351 0-.047-.023-.117-.023-.164 0-.07-.024-.117-.047-.188-.024-.047-.024-.117-.047-.163-.023-.07-.047-.141-.047-.211 0-.024-.023-.047-.023-.07 0-.024-.024-.047-.024-.07v-.024l-.023-.07c-.023-.047-.047-.094-.047-.14v-.024l-.023-.047-.024-.047c-.046-.093-.07-.187-.117-.257l-.023-.07c-.047-.07-.094-.164-.141-.235l-.023-.023-.023-.023c-.047-.047-.071-.094-.117-.14l-.047-.071c-.047-.07-.094-.117-.141-.164l-.187-.187c-.07-.047-.14-.094-.211-.117-.023-.024-.046-.024-.07-.024l-.14-.07c-.024 0-.047-.023-.071-.023-.046-.024-.093-.024-.117-.047-.023 0-.046-.024-.093-.024s-.07-.023-.117-.023h-.515c-.024 0-.047 0-.071.023-.023 0-.046 0-.07.024-.047 0-.093.023-.164.047h-.046c-.141.047-.258.093-.398.14l-.047.023c-.047.024-.094.047-.164.07l-.07.024-.141.07-.07.047-.14.07-.071.047c-.047.024-.093.07-.14.094l-.047.023c-.047.047-.117.07-.164.117l-.023.024c-.07.047-.117.093-.188.117-.117.07-.234.164-.351.234-.093.07-.187.14-.304.21l-.047.024c-.093.07-.211.14-.304.187l-.047.024c-.094.07-.211.117-.304.187l-.047.023c-.094.07-.211.117-.328.164l-.047.024c-.117.046-.21.093-.327.14l-.047.024c-.117.046-.234.07-.351.117h-.024c-.117.023-.257.046-.374.07a6.181 6.181 0 0 1-.656.047c-.351 0-.702-.024-1.077-.07l-.351-.07c-.047 0-.093-.024-.117-.024-.304-.07-.632-.14-.936-.211-.141-.023-.258-.07-.398-.094a31.772 31.772 0 0 0-.656-.14c-.046 0-.093-.023-.117-.023-.023 0-.07-.024-.093-.024-.047 0-.094-.023-.141-.023-.047 0-.093-.024-.14-.024h-.047c-.047 0-.094-.023-.117-.023-.094-.023-.187-.047-.304-.047-.024 0-.071 0-.094-.023-.07 0-.141-.024-.211-.024-.047 0-.07 0-.117-.023-.07 0-.117-.024-.187-.024h-1.077c-.117 0-.211.024-.328.024h-.093c-.071 0-.141.023-.211.023h-.023c-.047 0-.071.024-.117.024-.071.023-.141.023-.211.047-.047 0-.094.023-.117.023a.686.686 0 0 1-.211.047c-.047 0-.07.023-.117.047-.07.023-.164.046-.234.07-.047.023-.07.023-.094.047-.117.046-.234.093-.327.14a7.432 7.432 0 0 0-2.248 2.013 8.94 8.94 0 0 0-.562.843c-.187.304-.327.632-.468.96-.047.093-.07.187-.117.28-.047.165-.117.328-.164.492 0 .024 0 .047-.023.047a22.03 22.03 0 0 0-.141.585c-.046.211-.07.398-.093.609-.024.117-.024.21-.024.328a5.742 5.742 0 0 0 0 .89v.07c0 .07 0 .14.024.234.023.21.047.421.093.632.024.07.047.14.047.234.024.07.024.14.047.21.141.539.351 1.03.609 1.452.96 1.662 2.551 2.669 3.722 3.207.445.187.913.375 1.404.538l-.046.047c-.094.024-.188.047-.305.07-.164.047-.374.117-.585.188-.234.07-.515.187-.796.304-.749.304-1.592.75-2.341 1.358-.093.07-.187.164-.281.234-.164.14-.304.28-.445.445l-.046.047-.071.07c-.046.07-.117.117-.163.187l-.071.07c-.07.094-.14.188-.187.281-.07.094-.117.188-.187.281-.445.773-.703 1.709-.632 2.833v-.047c0-.023 0-.047.023-.07v-.024c0-.023.024-.047.024-.093v-.024c0-.023.023-.07.023-.117s.023-.07.047-.117v-.023c.023-.047.023-.094.047-.14v-.024c.023-.047.023-.094.046-.14v-.024c.024-.047.047-.094.071-.164l.023-.023c.023-.047.047-.117.094-.164.046-.094.093-.164.14-.258.024-.023.047-.07.07-.093l.024-.024.14-.21c.047-.047.094-.117.141-.164l.046-.047c.047-.047.071-.094.118-.117l.046-.047c.047-.047.117-.094.164-.164 0 0-1.006 2.294-.562 4.097V63.074c0-.047 0-.094.024-.14 0-.048 0-.094.023-.141v-.024c0-.047.024-.117.024-.163v-.047c.023-.07.023-.117.046-.188v-.023a.703.703 0 0 0 .047-.187c0-.024.024-.047.024-.07l.023-.047c.023-.047.047-.117.07-.164.024-.07.071-.14.117-.21 0-.024.024-.048.024-.048l.14-.21s-.047.561-.047 1.24c0 .117 0 .211.024.328 0 .07 0 .14.023.21a9.78 9.78 0 0 0 .024 1.429c.07.819.281 1.709.632 2.622 0 0-.328-1.054.14-2.107l.141.28c.046.305.093.75.187 1.241.094.82.468 3.278 2.154 4.987 0 0-.632-.82-.539-1.873.07.14.141.257.187.374.281.539.843 1.522 1.475 2.224 0 0-.491-.96-.374-1.17 0 0 1.638 2.036 2.153 2.224l-.678-1.124-.024-.023c2.364 1.732 5.642 2.364 9.668 1.24.703-.187 1.405-.444 2.154-.749.445-.187.89-.421 1.334-.655l.071-.047c.304-.164.608-.351.913-.538.234-.14.468-.305.678-.445.375-.258.75-.539 1.124-.843.024-.023.047-.047.07-.047a14.281 14.281 0 0 0 2.131-2.294l.023-.023a2.76 2.76 0 0 0 .234-.328l.024-.023c.023-.047.046-.07.07-.118.117-.163.21-.304.327-.468.024-.047.047-.07.071-.117.047-.093.093-.164.164-.257.046-.07.07-.117.117-.188.046-.07.093-.14.117-.21.07-.117.14-.258.21-.375l.071-.14.14-.281.07-.14.024-.047c.047-.117.117-.235.164-.352v-.023c.21-.187.351-.375.491-.538.024-.024.047-.047.047-.07a1.73 1.73 0 0 0 .304-.984zm-37.853-5.97c-.07.024-.141.118-.234.235-.024.047-.07.093-.094.164-.211.398-.398.96-.398.96.024-.188.047-.375.047-.562v-.07l.07-.586v-.07c.024-.234.07-.445.117-.656 0-.023 0-.046.024-.093v-.024c0-.023 0-.046.023-.07 0-.047.023-.07.023-.117.024-.164.071-.328.094-.491.024-.141.047-.281.07-.398v-.047c0-.024 0-.047.024-.047v-.047c0-.023.023-.07.023-.094 0-.023 0-.046.024-.07 0-.047.023-.093.023-.117 0-.023.023-.07.023-.093 0-.047.024-.094.024-.117 0-.024 0-.047.023-.07 0-.024 0-.048.024-.048 0-.046.023-.07.023-.093v-.07l-.047.046c-.047.024-.07.07-.117.094l-.047.047c-.046.047-.093.093-.117.14l-.023.024-.141.21-.023.024c0 .023-.023.023-.023.047l-.071.14v.047c-.023.07-.07.14-.093.21-.07.188-.141.375-.188.539-.023.047-.023.117-.046.14a1.78 1.78 0 0 0-.047.211v.024-.024c0-.07 0-.117.023-.187 0-.117.024-.258.024-.375 0-.093.023-.21.046-.304 0-.023 0-.07.024-.094 0-.047.023-.093.023-.14 0-.047.024-.094.024-.14v-.07c0-.048.023-.118.023-.165v-.164c0-.023 0-.046.024-.07a.845.845 0 0 0 .046-.234v-.023c.024-.047.024-.117.047-.164v-.023c.024-.118.07-.235.094-.352v-.047c0-.023 0-.046.023-.07.047-.187.117-.374.164-.538v-.024c.047-.14.117-.304.164-.444v-.024c.023-.07.047-.117.07-.187.047-.094.07-.187.117-.28 0-.024.024-.071.07-.165.024-.023.024-.07.047-.093.024-.047.047-.094.07-.164l.024-.047c-.024-.023-.07-.023-.094-.047h-.023l-.047-.023a5.875 5.875 0 0 0-.679-.258h-.047a3.313 3.313 0 0 0-.468-.093c-.094 0-.187-.024-.281-.024h-.234c-.117 0-.234.023-.351.023-.047 0-.07 0-.117.024-.047 0-.117.023-.164.023-.023 0-.047 0-.07.024-.047 0-.07.023-.117.023-.07.024-.164.047-.234.07-.024 0-.071.024-.094.024-.094.047-.211.07-.304.117-.047.023-.071.047-.117.047l-.141.07-.047.023c-.046.024-.093.047-.14.094a.49.49 0 0 0-.141.094c-.046.023-.093.07-.14.093-.023.024-.07.047-.094.07-.07.07-.163.14-.234.211l-.117.117c-.07.07-.117.14-.187.21l-.023.024c-.024.047-.071.07-.094.117l-.07.07a4.17 4.17 0 0 0-.328.539c-.023.023-.023.047-.047.07-.047.094-.07.188-.117.281-.023.047-.023.07-.047.117-.023.094-.07.187-.093.304v.094c-.024.07-.024.14-.047.21 0 .048 0 .071-.024.118 0 .047 0 .07-.023.117v.093c0 .118-.023.235 0 .352 0 .093 0 .187.023.28v.047c0 .047.024.094.024.14.023.188.07.352.117.54.047.14.093.257.14.374.094.234.211.445.351.655.281.422.656.796 1.101 1.077.234.164.515.281.796.375.257.093.538.164.842.187.071 0 .141.023.188.023h.304c.094 0 .187-.023.281-.023.047 0 .117 0 .164-.023.14-.024.257-.047.398-.07h.023c.047-.024.094-.024.164-.047.164-.047.328-.118.468-.188l.024-.023a.381.381 0 0 1 .117-.047c-.071-.398-.141-.82-.164-1.24.117-.047.117-.07.117-.094z" fill="#FCE9CD"/><path d="M239.005 24.167l.07.047-.07-.047z" fill="#4D9ED7"/><path d="M259.629 62.254c0-.023 0-.046-.023-.046-.024-.047-.024-.07-.024-.094a3.334 3.334 0 0 0-.702-1.264l.07-.281c.024-.117.047-.234.047-.351a3.382 3.382 0 0 0-.304-1.873 1.269 1.269 0 0 0-.07-.164c-.141.094-.258.187-.398.281-2.529 1.709-5.361 2.81-8.428 3.277-2.107.328-4.331.352-6.648.07l.047.024s-1.405.187-1.779 1.522l.023.023-.117.89c.047 1.217.585 1.966 1.217 2.364.656.258 1.452.445 2.341.562 1.522.187 3.301.14 5.08-.14 2.388-.328 5.759-1.592 8.17-3.231a13.074 13.074 0 0 0 1.475-1.17l.023-.024.024-.023c0-.164-.024-.258-.024-.352z" fill="#fff"/><path d="M255.065 50.69c-1.288-.796-1.475-1.053-1.358-3.184.047-.772.117-1.779.21-3.16 0-.187.024-.351.024-.515v-.679c0-.117-.024-.234-.024-.328 0-.046 0-.093-.023-.14-.023-.117-.023-.234-.047-.351 0-.047-.023-.117-.023-.164 0-.07-.024-.117-.047-.187-.023-.047-.023-.117-.047-.164a3.236 3.236 0 0 0-.655-.726l-.047-.047-.047-.023h-.023c-.047-.023-.071-.047-.117-.07a.499.499 0 0 1-.117-.07c-.375-.235-.82-.375-1.265-.445-.257-.047-.515-.047-.772-.047-.117 0-.258.023-.375.023a8.615 8.615 0 0 0-1.006.211c-.117.07-.234.164-.351.234-.094.07-.188.14-.305.21l-.047.024c-.093.07-.21.14-.304.188l-.047.023c-.093.07-.21.117-.304.187l-.047.024c-.093.07-.211.117-.328.163l-.046.024c-.117.047-.211.093-.328.14l-.047.024c-.117.046-.234.07-.351.117h-.023c-.118.023-.258.047-.375.07a6.181 6.181 0 0 1-.656.047 8.58 8.58 0 0 1-1.076-.07l-.352-.07c-.046 0-.093-.024-.117-.024-.304-.07-.632-.14-.936-.21-.14-.024-.257-.071-.398-.094-.211-.047-.421-.094-.655-.14-.047 0-.094-.024-.117-.024-.188 0-.375.023-.539.047h-.047a7.857 7.857 0 0 0-1.592.374c-.023 0-.046.023-.093.023-.094.024-.164.07-.258.094-.117.047-.21.094-.327.14-.773.328-1.499.796-2.201 1.382-.281.234-.538.491-.796.749-.374.398-.702.82-1.006 1.264-.024.023-.024.047-.047.07a5.787 5.787 0 0 0-.422.726 2.362 2.362 0 0 1-.14.257v.024a6.834 6.834 0 0 0-.351.89c0 .023 0 .046-.024.046-.023.047-.023.094-.046.14-.047.141-.094.282-.118.422-.046.14-.07.281-.093.445 0 .023-.024.07-.024.093-.023.094-.023.188-.046.258-.047.328-.071.655-.094.983v.234c.14.539.351 1.03.609 1.452.959 1.662 2.551 2.668 3.722 3.207.445.187.913.374 1.404.538l.024.024.023-.024c.07-.047.117-.093.187-.14.024-.024.047-.024.071-.047l.21-.14c.024-.024.047-.024.071-.047l.21-.14c.024-.024.047-.024.07-.048.071-.046.141-.093.235-.14.023-.023.046-.023.07-.047.07-.047.164-.093.234-.14.023-.024.047-.024.07-.047.07-.047.164-.094.234-.14.024-.024.07-.024.094-.047.07-.047.164-.094.234-.14a.175.175 0 0 1 .094-.048c.07-.047.163-.093.257-.14.047-.024.07-.047.117-.047.094-.047.164-.094.258-.117.046-.023.07-.047.117-.047.093-.047.164-.07.257-.117l.141-.07c.093-.047.164-.07.257-.117.047-.024.094-.047.164-.07.094-.024.164-.07.258-.094.046-.023.117-.047.163-.07.094-.024.164-.07.258-.094.07-.023.117-.047.187-.07.094-.023.164-.07.258-.094l.21-.07c.071-.023.164-.047.235-.094.07-.023.163-.047.234-.07.07-.023.163-.047.234-.07.093-.024.187-.047.257-.07.07-.024.141-.047.234-.07.094-.024.188-.047.305-.094.046-.024.093-.024.14-.047.375-.96 1.522-3.348 3.465-3.605.21-.023.398-.047.585-.047h.14c-.023-.14-.046-.28-.046-.445-.071-1.03.257-1.896.702-1.92.351-.023.632.492.679.656.14.304.234.703.257 1.147.024.398-.023.773-.093 1.1.046.047.07.094.117.118.444.561.515 1.31.491 1.872.164-.023.351-.023.539-.047.047 0 .093 0 .14-.023h.094c.21-.023.445-.047.679-.047.515-.046 1.03-.07 1.568-.093-.304-.164-.491-.258-.491-.258zm4.892 14.42a14.483 14.483 0 0 1-2.622 1.85 17.37 17.37 0 0 1-4.003 1.545c-1.802.445-3.043.445-3.043.445.983.538 2.224.538 3.067.468.585-.047.983-.164.983-.164-.024.351-.07.679-.117 1.007-.07.35-.164.655-.281.936v.023a5.148 5.148 0 0 1-.515.937c-.024.023-.047.07-.07.093l.07-.046c.304-.164.608-.352.913-.539.234-.14.468-.304.679-.445a17.56 17.56 0 0 0 1.123-.842c.024-.024.047-.047.071-.047a13.06 13.06 0 0 0 1.006-.96c.422-.445.796-.89 1.124-1.334l.023-.024a2.77 2.77 0 0 0 .234-.328l.024-.023c.023-.047.047-.07.07-.117.117-.164.211-.304.328-.468.023-.047.047-.07.07-.117.047-.094.094-.164.164-.258.047-.07.07-.117.117-.187.047-.07.094-.14.117-.21.07-.118.14-.258.211-.375l.07-.14.14-.282.071-.14.023-.047c.047-.117.117-.234.164-.351-.094.023-.141.07-.211.14zm-21.349-9.434c-.235.07-.515.188-.796.305-.749.304-1.592.749-2.341 1.358-.094.07-.188.163-.281.234-.164.14-.305.28-.445.444l-.047.047-.07.07c-.047.07-.117.117-.164.188l-.07.07c-.07.093-.141.187-.187.28-.071.094-.118.188-.188.282-.445.772-.702 1.709-.632 2.832v-.047c0-.023 0-.046.024-.07v-.023c0-.024.023-.047.023-.094v-.023c0-.024.023-.07.023-.117s.024-.07.047-.117v-.024c.024-.047.024-.093.047-.14v-.024c.023-.046.023-.093.047-.14v-.023c.023-.047.047-.094.07-.164l.024-.024c.023-.047.046-.117.093-.164.047-.093.094-.163.141-.257.023-.023.046-.07.07-.094l.023-.023.141-.21c.047-.048.093-.118.14-.165l.047-.047c.047-.046.07-.093.117-.117l.047-.046c.047-.047.117-.094.164-.164 0 0-1.007 2.294-.562 4.096V63.214c0-.047 0-.093.023-.14 0-.047 0-.094.024-.14v-.024c0-.047.023-.117.023-.164V62.7c.024-.07.024-.117.047-.187v-.023c.023-.07.047-.14.047-.188 0-.023.023-.047.023-.07l.024-.047c.023-.047.046-.117.07-.164.023-.07.07-.14.117-.21 0-.024.023-.047.023-.047l.141-.21s-.047.561-.047 1.24c0 .117 0 .21.023.328 0 .07 0 .14.024.21a9.267 9.267 0 0 1 .374-2.036c.047-.164.117-.352.164-.515 0-.024.024-.047.024-.07.07-.164.117-.305.187-.469.023-.023.023-.047.047-.093.07-.14.14-.305.21-.445.024-.024.024-.047.024-.07.164-.305.327-.586.491-.843.024-.024.024-.047.047-.07.07-.094.141-.188.211-.305.023-.023.023-.047.047-.07.023-.023.023-.047.046-.07.094-.117.164-.234.258-.351.023-.024.023-.047.047-.047.093-.117.187-.234.281-.328.117-.14.234-.257.351-.398.094-.094.164-.187.257-.257l.094-.094a12 12 0 0 1 .562-.538c.515-.469.936-.773 1.077-.867-.094.024-.188.047-.305.07-.14.07-.327.141-.561.211z" fill="#F2D2AC"/><path d="M252.091 50.596s0-.046-.023-.14c-.094-.328-.421-1.124-1.709-1.007-1.358.14-1.826 1.241-1.943 1.616-.023.07-.023.117-.023.117l.047.023c.163-.14.491-.14.795.07.141.094.235.188.328.305.117.187.141.374.07.515l-.07.07s.047.023.141.047c.374.117 1.428.327 1.989-.398.024-.047.047-.07.071-.117-.117-.047-.164-.211-.164-.422 0-.093.023-.187.047-.304.07-.28.281-.445.444-.374zm-6.765 10.02c-.89.187-1.662.328-2.247.421.023 0 .07 0 .093.024 1.007.117 2.599.28 4.518.163 3.512-.21 8.124-1.31 12.314-5.103v-.023c.023-.328-.024-.89-.422-1.335-.07-.07-.14-.14-.234-.21-.023 0-.023-.024-.046-.024-.117-.07-.211-.117-.305-.187l-.21-.14v-.024a7.592 7.592 0 0 1-.89 1.054c-.117.117-.234.234-.375.35-1.147 1.03-2.645 1.92-4.26 2.623-2.669 1.17-5.665 1.943-7.936 2.41zm-22.192-6.11c-.047.023-.071.07-.117.093l-.047.047c-.047.047-.094.094-.117.14l-.024.024-.14.21-.023.024c0 .024-.024.024-.024.047l-.07.14v.047c-.024.07-.07.14-.094.211-.07.187-.14.375-.187.539-.023.046-.023.117-.047.14-.023.094-.047.187-.047.21v.024-.023c0-.07 0-.117.024-.188 0-.117.023-.257.023-.374 0-.094.024-.21.047-.304 0-.024 0-.07.023-.094 0-.047.024-.094.024-.14 0-.047.023-.094.023-.141v-.07c0-.047.024-.117.024-.164v-.164c0-.023 0-.047.023-.07a.848.848 0 0 0 .047-.234v-.024c.023-.047.023-.117.047-.164v-.023c.023-.117.07-.234.093-.351v-.047c0-.023 0-.047.024-.07.047-.188.117-.375.164-.539v-.023c.046-.14.117-.304.163-.445v-.023c.024-.07.047-.117.071-.188.046-.093.07-.187.117-.28 0-.024.023-.07.07-.164.023-.024.023-.07.047-.094.023-.047.047-.094.07-.164l.023-.047c-.023-.023-.07-.023-.093-.047h-.024l-.046-.023a5.875 5.875 0 0 0-.679-.257h-.047a3.313 3.313 0 0 0-.468-.094c-.094 0-.188-.023-.281-.023h-.234c-.117 0-.234.023-.352.023-.046 0-.07 0-.117.023-.046 0-.117.024-.163.024-.024 0-.047 0-.071.023-.046 0-.07.024-.117.024-.07.023-.164.046-.234.07-.023 0-.07.023-.093.023-.094.047-.211.07-.305.117-.047.024-.07.047-.117.047l-.14.07-.047.024c-.047.023-.094.047-.141.093-.046.024-.093.047-.14.094-.047.024-.094.07-.14.094-.024.023-.071.047-.094.07-.07.07-.164.14-.234.21l-.117.118c-.07.07-.117.14-.188.21l-.023.024c-.023.047-.07.07-.094.117l-.07.07a4.17 4.17 0 0 0-.328.538c-.023.024-.023.047-.046.07-.047.094-.071.188-.117.282-.024.046-.024.07-.047.117 0 .023.023.047.023.07.024.093.047.164.07.257v.047c.024.07.071.164.094.234.094.234.187.445.304.632.024.024.024.047.047.07v.024l.024.023c.07.14.14.258.21.352.117.163.211.28.281.374l.047.047c0 .023.023.023.023.023l.047.047c0-.047-.023-.093-.023-.117a3.844 3.844 0 0 1-.094-.89v-.046c0-.188 0-.375.024-.539l.07.211c.023.094.07.187.093.28v.048c.141.398.305.725.469.983.187.328.351.538.468.679.023.023.047.047.047.07l.047.047a4.408 4.408 0 0 1-.118-.937v-.304c0-.14 0-.257.024-.374.047.21.117.421.187.608v.024a6.84 6.84 0 0 0 .773 1.475l.023.023c.047.047.07.093.094.14.023.024.047.047.047.07l.046.047.024.024v-.047c0-.047-.024-.094-.024-.14a16.77 16.77 0 0 0-.07-.469c0-.093-.023-.21-.023-.304v-.515c0-.117.023-.258.023-.375.024.07.047.164.07.235.024.046.047.117.071.163v.024l.023.023c.023.07.047.14.07.188.047.116.094.234.164.327.07.14.117.258.187.351.047.07.071.117.094.164.047.07.094.14.117.188.047.046.07.093.094.14l.023.023c.024.047.07.07.094.117.023.024.047.047.047.07.046.047.07.094.093.094l.024.024v-.07c.023-.188.046-.398.07-.586v-.07c.023-.234.07-.445.117-.656 0-.023 0-.046.023-.093v-.023c0-.024 0-.047.024-.07 0-.048.023-.071.023-.118.024-.164.07-.328.094-.491.023-.14.047-.281.07-.398v-.047c0-.024 0-.047.023-.047v-.047c0-.023.024-.07.024-.093 0-.024 0-.047.023-.07 0-.047.024-.094.024-.118 0-.023.023-.07.023-.093 0-.047.023-.094.023-.117 0-.024 0-.047.024-.07 0-.024 0-.047.023-.047 0-.047.024-.07.024-.094v-.07l.117.07zm28.372 9.785c.328-.117.609-.21.843-.304.445-.188.679-.328.679-.375-.024-.047-.281-.023-.749.094-.234.047-.515.093-.866.187-.164.047-.352.07-.539.094-.187.023-.398.07-.609.093-.421.07-.889.118-1.404.164l-.773.07c-.257.024-.538.024-.819.047-1.124.024-2.364-.023-3.628-.257-.656-.117-1.569-.422-2.201-.773l-.023-.023c.374-1.334 1.779-1.522 1.779-1.522l-.047-.023h-.07c-.211-.023-.375-.047-.539-.07-.117-.024-.21-.024-.281-.047-.07 0-.14-.024-.163-.024-.843-.046-1.311.656-1.452.96l-.07.14c-.117.282-.211.586-.234.937-.047.632.117 1.311.608 1.896.328.398.89.75 1.616 1.03-.632-.398-1.194-1.17-1.218-2.364.726.304 1.545.492 2.177.609 1.335.257 2.646.28 3.793.21.281-.023.585-.047.843-.07.281-.047.538-.07.796-.094.515-.093.959-.163 1.404-.257.211-.047.421-.094.609-.164.21-.047.374-.094.538-.164z" fill="#F2D2AC"/><path d="M250.406 48.653c.702.024 1.17.235 1.498.562.07-.304.117-.679.094-1.1-.024-.445-.117-.843-.258-1.147-.047-.187-.328-.679-.679-.656-.444.024-.772.89-.702 1.92 0 .14.023.281.047.421zm1.17 2.646c0 .187.071.35.164.421.164.094.375-.094.468-.398 0-.023.024-.047.024-.07.07-.281 0-.562-.164-.632-.164-.094-.375.094-.468.398 0 .093-.024.187-.024.28zm-3.183.515c.07.117.187.234.327.328.305.187.632.21.82.046l.07-.07c.07-.14.047-.328-.07-.515a.836.836 0 0 0-.328-.304c-.304-.188-.632-.211-.796-.07-.023.023-.047.046-.07.093-.07.117-.047.304.047.492zm11.634 4.284c-.023 0-.023 0 0 0zm-.374 6.484c-.445.422-.937.82-1.499 1.194-2.411 1.639-5.782 2.926-8.17 3.23-1.802.281-3.558.328-5.079.141-.89-.117-1.663-.304-2.341-.562-.726-.28-1.288-.632-1.616-1.03-.491-.585-.632-1.287-.608-1.896.023-.328.093-.655.234-.936l.07-.14c.164-.305.609-1.03 1.451-.96.024 0 .094 0 .164.023.071 0 .188.023.281.047.164.023.328.046.539.07h.07c2.317.28 4.541.257 6.648-.07 3.067-.469 5.899-1.569 8.428-3.278.14-.093.257-.187.398-.28l1.381-2.06c-4.191 3.815-8.802 4.915-12.314 5.126a22.993 22.993 0 0 1-4.518-.164c-.047 0-.07 0-.093-.023-.305-.047-.539-.07-.726-.094-.094 0-.164-.023-.211-.023a2 2 0 0 0-.749.093c-.468.14-.889.468-1.194.89a3.347 3.347 0 0 0-.608 1.92c0 .585.14 1.193.444 1.755.024.024.024.047.047.07.047.07.07.117.117.188.047.07.117.163.188.234.725.913 2.317 1.568 4.424 1.85 1.428.186 3.09.163 4.893-.095 5.337-.96 7.865-2.692 9.036-3.886.093-.093.164-.163.234-.257.421-.492.608-.866.679-1.007v-.023c.023-.047.023-.07.023-.07l-.023.023z" fill="#664F44"/><path d="M242.681 44.089a2.14 2.14 0 0 0-.539-.211c-.117-.024-.234-.047-.374-.07-.047 0-.094 0-.141-.024-.632-.047-1.17.047-1.17.047-.117.023-.234.047-.328.094-.843.257-1.428.702-1.849 1.217-.328.421-.562.866-.679 1.31-.024.048-.024.071-.024.118-.023.117-.07.234-.093.328a5.57 5.57 0 0 0-.117.983c0 .374.023.608.023.608.141-.327.304-.608.468-.89.398-.678.82-1.24 1.264-1.685.843-.866 1.709-1.334 2.365-1.568.702-.234 1.194-.257 1.194-.257zm10.136-1.194l-.023-.047a1.593 1.593 0 0 0-.351-.328c-.328-.21-.773-.328-1.382-.21 0 0-.725.163-1.147.655 0 0 1.264-.539 2.622.421.117.094.258.187.375.304.117.117.257.235.374.399 0 0-.047-.586-.398-1.1-.023-.048-.047-.071-.07-.094z" fill="#E9B784"/><path d="M242.844 52.212c.492-.14 1.007-.281 1.592-.422.094-.444.117-.983.047-1.568-.164-1.358-.772-2.411-1.381-2.341-.609.07-.96 1.24-.796 2.598.094.703.281 1.311.538 1.733z" fill="#664F44"/><path d="M240.059 21.615l-1.264.281.257 2.294-3.347-1.709-1.382.422.024.023 4.073 4.635.047-.023.047-.023c.117-.07.257-.164.374-.235a.492.492 0 0 0 .141-.093c.187-.117.374-.234.562-.328l-1.733-1.99 2.786 1.358c.094-.047.164-.094.258-.14l-.258-1.99 1.264 1.474h.024c.117-.046.21-.117.327-.163l.047-.024.047-.023c.023 0 .047-.024.047-.024l.14-.07s.024 0 .024-.023c.14-.07.304-.14.444-.211l-2.949-3.418z" fill="#FFD250"/><path d="M238.818 21.966v-.07.07zm0-.07l.187-.047c-.304-.14-.679-.234-1.1-.304-.843-.117-1.92 0-3.137.304-1.217.305-2.598.843-4.05 1.569-2.926 1.451-6.157 3.675-9.293 6.531-1.101.983-2.107 2.013-3.044 3.02l3.793 4.682a50.191 50.191 0 0 1 3.347-3.348 47.586 47.586 0 0 1 4.869-3.91 38.395 38.395 0 0 1 4.612-2.785l-.655-2.996.023-1.686-.023-.023 1.381-.422 2.692 1.381-.07-.936.468-1.03z" fill="#4D9ED7"/><path d="M238.818 21.896l-.468 1.03.07.96.655.328-.257-2.318zm-.96 2.973l2.809 1.381-1.077.61-1.732-1.99zm2.809-.772l.258 1.99 1.006-.515-1.264-1.475z" fill="#132134"/><path d="M251.248 23.371h.515c.469 0 .913.07 1.335.164.023 0 .047 0 .07.023h.023l.047.024h.047c-.047-.024-.094-.07-.14-.094a6.212 6.212 0 0 0-1.475-.374c-2.528-.328-5.431.608-7.07 1.264-.093.046-.187.07-.281.117-.14.07-.281.117-.421.187-.234.094-.468.21-.726.328-.047.023-.07.023-.117.047-.14.07-.304.14-.445.21 0 0-.023 0-.023.024l-.141.07c-.023 0-.046.023-.046.023h-.094l-.023.024a2.153 2.153 0 0 0-.328.164h-.024c-.023.023-.046.023-.07.046h-.023c-.024 0-.047.024-.047.024-.164.093-.328.164-.492.257-.117.07-.234.117-.351.188h-.023c-.094.046-.164.093-.258.14-.281.14-.538.304-.819.468-.023.024-.047.024-.094.047-.023.023-.046.023-.07.047-.023.023-.047.023-.07.047l-.024.023c-.187.117-.374.21-.561.328-.047.023-.094.047-.141.093-.117.07-.257.164-.374.235l-.047.023-.047.023-1.053.703c-.586.398-1.148.796-1.709 1.217-.071.047-.141.117-.211.164-1.475 1.1-2.879 2.294-4.237 3.511a83.258 83.258 0 0 0-4.097 4.003 56.161 56.161 0 0 0-1.779 1.85c-.983 1.053-1.522 1.709-1.498 1.732 0 0 .093-.07.257-.234-.117.14-.257.304-.374.445 2.153-2.294 4.518-4.635 7.069-6.836a69.038 69.038 0 0 1 4.823-3.816 74.947 74.947 0 0 1 2.224-1.521c.234-.164.491-.305.725-.468.118-.07.235-.14.375-.211a.926.926 0 0 1 .211-.117c.14-.07.257-.164.398-.234.117-.07.257-.14.374-.234.07-.047.141-.07.211-.117l.492-.281c.093-.047.187-.117.28-.164.305-.164.609-.328.937-.492.023-.023.047-.023.07-.047l.14-.07c.071-.023.118-.07.188-.094.023-.023.047-.023.07-.046l.14-.07s.024 0 .024-.024h.023c.141-.07.281-.14.398-.187.024 0 .047-.024.07-.047l.141-.07c.164-.07.304-.14.468-.211a.499.499 0 0 0 .117-.07c.024 0 .047-.024.07-.024.047-.023.094-.046.141-.046.187-.07.351-.164.538-.234.164-.07.305-.141.468-.211.89-.375 1.709-.68 2.482-.937 1.451-.398 2.739-.655 3.862-.702z" fill="#fff"/></g><circle cx="377" cy="50" r="50" fill="#fff"/><path d="M381.057 25.472h-18.518a2.316 2.316 0 0 0-2.314 2.314v9.838l20.832 12.152 10.416 4.396 10.416-4.396V37.624l-20.832-12.152z" fill="#21A366"/><path d="M360.225 37.624h20.832v12.152h-20.832V37.624z" fill="#107C41"/><path d="M399.575 25.472h-18.518v12.152h20.832v-9.838a2.314 2.314 0 0 0-2.314-2.314z" fill="#33C481"/><path d="M381.057 49.776h-20.832v21.99a2.313 2.313 0 0 0 2.314 2.314h37.036a2.315 2.315 0 0 0 2.314-2.314v-9.838l-20.832-12.152z" fill="#185C37"/><path d="M381.057 49.776h20.832v12.152h-20.832V49.776z" fill="#107C41"/><path opacity=".1" d="M375.271 34.152h-15.046v32.984h15.046a2.322 2.322 0 0 0 2.314-2.314V36.466a2.324 2.324 0 0 0-2.314-2.314z" fill="#000"/><path opacity=".2" d="M373.535 35.888h-13.31v32.984h13.31a2.321 2.321 0 0 0 2.314-2.314V38.202a2.325 2.325 0 0 0-2.314-2.314z" fill="#000"/><path opacity=".2" d="M373.535 35.888h-13.31V65.4h13.31a2.321 2.321 0 0 0 2.314-2.314V38.202a2.325 2.325 0 0 0-2.314-2.314z" fill="#000"/><path opacity=".2" d="M371.799 35.888h-11.574V65.4h11.574a2.321 2.321 0 0 0 2.314-2.314V38.202a2.325 2.325 0 0 0-2.314-2.314z" fill="#000"/><path d="M348.651 35.888h23.148a2.315 2.315 0 0 1 2.314 2.314V61.35a2.314 2.314 0 0 1-2.314 2.314h-23.148a2.316 2.316 0 0 1-2.314-2.314V38.202a2.313 2.313 0 0 1 2.314-2.314z" fill="#107C41"/><path d="M352.47 58.456l5.618-8.704-5.146-8.656h4.141l2.808 5.533c.258.524.436.915.533 1.173h.037c.185-.419.379-.826.581-1.222l3.002-5.484h3.8l-5.277 8.607 5.411 8.753h-4.045l-3.245-6.076a5.085 5.085 0 0 1-.387-.813h-.049a3.77 3.77 0 0 1-.375.787l-3.338 6.102h-4.069z" fill="#fff"/><circle cx="1217" cy="50" r="50" fill="#fff"/><g clip-path="url(#clip3)"><path d="M1201.61 56.861l-1.87 1.9c-.3.331-.68.303-.99 0l-6.69-6.718v6.25c0 .44-.24.688-.68.688h-2.69c-.44 0-.68-.247-.68-.688V38.688c0-.44.24-.688.68-.688h2.69c.44 0 .68.247.68.688v6.416h9.08c.44 0 .68.248.68.688v2.726c0 .44-.24.688-.68.688h-6.17l6.64 6.663c.3.304.3.662 0 .992zm14.88-4.845c0 .275-.02.578-.05.853-.06.44-.33.633-.74.633h-8.99c.46 1.212 1.64 2.01 3.12 2.01 1.07 0 1.89-.413 2.5-1.073.27-.331.57-.414.93-.193l2.08 1.266c.39.248.5.578.22.937-1.26 1.761-3.34 2.836-5.78 2.836-4.17 0-7.19-3.138-7.19-7.214 0-4.13 2.88-7.268 6.97-7.268 4.11-.002 6.93 3.081 6.93 7.213zm-4-1.46c-.38-1.322-1.48-2.037-2.91-2.037-1.5 0-2.6.715-2.96 2.037h5.87zm17.57-.276v8.013c0 .44-.24.688-.68.688h-2.6c-.44 0-.69-.247-.69-.688v-.799c-1.04 1.239-2.28 1.79-3.81 1.79-3.02 0-5.02-1.734-5.02-4.35 0-2.726 1.98-4.462 4.91-4.462h3.92v-.303c0-.991-.93-1.652-2.3-1.652-.88 0-1.73.331-2.11.8-.25.302-.44.495-.83.495h-2.55c-.46 0-.74-.248-.65-.66.52-2.616 2.77-4.351 6.08-4.351 3.81 0 6.33 2.203 6.33 5.479zm-3.97 3.552v-.468h-3.26c-1.1 0-1.54.578-1.54 1.35 0 .715.58 1.294 1.97 1.294 1.71 0 2.83-.881 2.83-2.176zm19.9-1.761c0 4.02-2.82 7.213-6.55 7.213-1.56 0-2.88-.578-3.73-1.541v6.388c0 .44-.24.688-.68.688h-2.69c-.44 0-.69-.248-.69-.688V45.792c0-.44.25-.688.69-.688h2.6c.44 0 .69.248.69.688v.771c.88-1.128 2.22-1.761 3.75-1.761 3.71-.001 6.61 3.166 6.61 7.269zm-4.05 0c0-1.873-1.32-3.305-3.13-3.305-1.92 0-3.23 1.432-3.23 3.305 0 1.817 1.31 3.248 3.23 3.248 1.81 0 3.13-1.431 3.13-3.248z" fill="#36A635"/></g><circle cx="1077" cy="50" r="50" fill="#fff"/><path d="M1097.92 25h-41.84a5.076 5.076 0 0 0-5.08 5.078v41.844a5.076 5.076 0 0 0 5.08 5.078h41.84c2.81 0 5.08-2.274 5.08-5.078V30.078a5.076 5.076 0 0 0-5.08-5.078z" fill="url(#paint0_linear)"/><path d="M1093.8 31.76h-10.98a2.437 2.437 0 0 0-2.44 2.437v17.875a2.437 2.437 0 0 0 2.44 2.438h10.98c1.35 0 2.44-1.091 2.44-2.438V34.197a2.437 2.437 0 0 0-2.44-2.437zm-22.62 0h-10.98a2.437 2.437 0 0 0-2.44 2.437v30.876a2.437 2.437 0 0 0 2.44 2.437h10.98c1.35 0 2.44-1.091 2.44-2.438V34.198a2.437 2.437 0 0 0-2.44-2.437z" fill="#fff"/><circle cx="937" cy="50" r="50" fill="#fff"/><path d="M934.006 26.591l-20.878 8.64c-1.161.48-1.149 2.13.019 2.593l20.965 8.314a7.78 7.78 0 0 0 5.736 0l20.966-8.315c1.168-.462 1.181-2.112.019-2.592l-20.878-8.64a7.78 7.78 0 0 0-5.949 0" fill="#FCB400"/><path d="M938.841 50.677v20.77c0 .988.996 1.665 1.914 1.3l23.362-9.068a1.4 1.4 0 0 0 .883-1.3V41.61c0-.987-.996-1.664-1.914-1.3l-23.362 9.068a1.401 1.401 0 0 0-.883 1.3" fill="#18BFFF"/><path d="M933.385 51.75l-6.933 3.347-.704.34-14.636 7.013c-.928.447-2.112-.229-2.112-1.26V41.698c0-.373.191-.695.448-.937.105-.105.224-.194.354-.266.35-.21.848-.266 1.273-.098l22.194 8.794c1.128.447 1.216 2.028.116 2.56" fill="#F82B60"/><path d="M933.385 51.75l-6.933 3.347-17.004-14.338c.105-.104.224-.194.354-.265a1.49 1.49 0 0 1 1.272-.098l22.194 8.794c1.129.447 1.217 2.028.117 2.56" fill="#000" fill-opacity=".25"/><circle cx="97" cy="50" r="50" fill="#fff"/><g clip-path="url(#clip4)"><path d="M112.822 52.405c-6.728 0-12.18 5.453-12.18 12.179s5.452 12.18 12.18 12.18c6.726 0 12.178-5.454 12.178-12.18s-5.452-12.179-12.178-12.179zm-31.643 0C74.453 52.407 69 57.859 69 64.586c0 6.725 5.453 12.178 12.179 12.178 6.727 0 12.18-5.453 12.18-12.179s-5.453-12.178-12.18-12.178zm28-15.224c0 6.726-5.452 12.18-12.178 12.18-6.728 0-12.18-5.454-12.18-12.18s5.453-12.179 12.18-12.179c6.726 0 12.177 5.453 12.177 12.18h.001z" fill="url(#paint1_radial)"/></g><circle cx="658" cy="330" r="50" fill="#fff"/><path d="M633.818 351.843h8.909v-21.636L630 320.661v27.364a3.817 3.817 0 0 0 3.818 3.818z" fill="#4285F4"/><path d="M673.273 351.843h8.909a3.818 3.818 0 0 0 3.818-3.818v-27.364l-12.727 9.546v21.636z" fill="#34A853"/><path d="M673.273 313.661v16.546L686 320.661v-5.091c0-4.718-5.387-7.413-9.164-4.581l-3.563 2.672z" fill="#FBBC04"/><path fill-rule="evenodd" clip-rule="evenodd" d="M642.727 330.207v-16.546L658 325.116l15.273-11.455v16.546L658 341.661l-15.273-11.454z" fill="#EA4335"/><path d="M630 315.57v5.091l12.727 9.546v-16.546l-3.563-2.672c-3.777-2.832-9.164-.137-9.164 4.581z" fill="#C5221F"/><circle cx="793" cy="330" r="50" fill="#fff"/><circle cx="523" cy="330" r="50" fill="#fff"/><g clip-path="url(#clip5)"><path d="M515.885 320.609v-.001l12.061 7.224 7.186-3.025a11.616 11.616 0 0 1 5.415-.925 17.957 17.957 0 0 0-14.433-13.25 17.952 17.952 0 0 0-17.956 7.841l.183-.005a14.29 14.29 0 0 1 7.544 2.141z" fill="#0364B8"/><path d="M515.887 320.607a14.299 14.299 0 0 0-7.546-2.14l-.183.006a14.35 14.35 0 0 0-12.59 7.793 14.363 14.363 0 0 0 .992 14.774l10.632-4.476 4.729-1.989 10.526-4.431 5.497-2.312-12.057-7.225z" fill="#0078D4"/><path d="M540.547 323.882a11.64 11.64 0 0 0-5.413.926l-7.188 3.024 2.084 1.248 6.831 4.091 2.98 1.785 10.192 6.104a11.673 11.673 0 0 0-.058-11.176 11.662 11.662 0 0 0-9.428-6.002z" fill="#1490DF"/><path d="M539.841 334.956l-2.98-1.785-6.831-4.093-2.083-1.246-5.499 2.312-10.526 4.431-4.73 1.989-10.636 4.476a14.347 14.347 0 0 0 11.785 6.153h31.418a11.67 11.67 0 0 0 10.274-6.133l-10.192-6.104z" fill="#28A8EA"/></g><circle cx="253" cy="330" r="50" fill="#fff"/><circle cx="388" cy="330" r="50" fill="#fff"/><g clip-path="url(#clip6)"><path d="M387.037 345.921c9.714 0 17.221-7.328 17.221-16.368 0-8.47-7.053-13.64-11.725-13.64-6.505 0-11.72 4.558-12.463 11.326-.137 1.253-1.132 2.305-2.394 2.296a820 820 0 0 0-7.078-.027c-.832.003-1.519-.67-1.478-1.5.292-5.87 2.257-11.358 6.005-15.574 4.164-4.684 10.229-7.434 17.408-7.434 12.063 0 23.451 10.946 23.451 24.553 0 15.066-12.501 27.281-28.69 27.281-11.546 0-23.174-7.535-27.234-18.069a.221.221 0 0 1-.01-.122c.054-.312.161-.597.267-.877.153-.408.304-.806.282-1.266l-.07-1.467a1.78 1.78 0 0 1 1.037-1.705l.587-.273a2.269 2.269 0 0 0 1.277-1.644 2.276 2.276 0 0 1 2.246-1.858c1.725 0 3.224 1.145 3.787 2.773 2.711 7.836 7.021 13.595 17.574 13.595z" fill="#FB6970"/></g><circle cx="1198" cy="330" r="50" fill="#fff"/><g clip-path="url(#clip7)"><path d="M1186.67 334.532c0 2.855-.04 5.713.02 8.563.05 2.71 1.65 3.742 4.17 2.812 2.99-1.108 5.46.883 5.08 4.1-.17 1.384-.81 2.421-2.11 3.075-3.56 1.795-7.27 2.059-11.03.947-3.5-1.034-4.85-3.846-5.34-7.195-.13-.887-.19-1.783-.19-2.679-.01-10.602-.01-21.205 0-31.808 0-3.537 2.92-5.81 6.11-4.814 2 .625 3.21 2.366 3.29 4.778.03 1.179.07 2.369-.02 3.546-.06.906.28 1.074 1.1 1.044 1.71-.063 3.43-.037 5.14-.013 2.46.033 4.08 1.654 4.09 4.058 0 2.477-1.53 3.982-4.1 4.002-1.67.013-3.34.05-5.01-.017-.91-.036-1.25.15-1.22 1.164.07 2.815.02 5.626.02 8.437z" fill="#1B1C39"/><path d="M1212.75 354.655c-4.54-.005-8.25-3.754-8.2-8.286.05-4.56 3.74-8.171 8.33-8.153 4.48.018 8.14 3.718 8.14 8.222a8.15 8.15 0 0 1-.64 3.155c-.41 1-1.02 1.908-1.79 2.671a8.214 8.214 0 0 1-5.84 2.391z" fill="#FC21AE"/></g><circle cx="1063" cy="330" r="50" fill="#fff"/><g clip-path="url(#clip8)"><path d="M1039.39 315h47.2c2.99 0 5.41 2.418 5.41 5.406v18.019a5.405 5.405 0 0 1-5.41 5.406h-16.93l2.33 5.69-10.22-5.69h-22.36a5.405 5.405 0 0 1-5.41-5.406v-18.019c-.02-2.964 2.4-5.406 5.39-5.406z" fill="#9B5C8F"/><path d="M1037.31 319.927c.33-.448.82-.683 1.48-.73 1.2-.095 1.89.471 2.05 1.697.73 4.927 1.53 9.1 2.38 12.518l5.17-9.83c.47-.896 1.06-1.368 1.76-1.415 1.04-.071 1.68.589 1.94 1.98.59 3.136 1.34 5.8 2.24 8.063.61-5.988 1.65-10.302 3.11-12.966.35-.66.87-.99 1.55-1.038.55-.047 1.04.118 1.49.472.45.353.68.801.73 1.344.02.424-.05.778-.24 1.131-.91 1.698-1.67 4.55-2.28 8.511-.59 3.843-.8 6.837-.66 8.982.04.589-.05 1.108-.29 1.556-.28.519-.7.801-1.24.849-.62.047-1.25-.236-1.87-.873-2.19-2.239-3.93-5.587-5.21-10.043a447.273 447.273 0 0 0-3.39 6.79c-1.39 2.664-2.57 4.031-3.56 4.102-.64.047-1.18-.495-1.65-1.627-1.2-3.088-2.5-9.053-3.89-17.893-.1-.613.05-1.155.38-1.58zm50.66 3.702c-.85-1.486-2.1-2.381-3.77-2.735a6.293 6.293 0 0 0-1.28-.141c-2.26 0-4.1 1.178-5.54 3.536-1.22 2.004-1.84 4.22-1.84 6.648 0 1.815.38 3.371 1.14 4.668.84 1.485 2.09 2.381 3.77 2.734.45.095.87.142 1.27.142 2.29 0 4.13-1.179 5.54-3.536 1.23-2.028 1.84-4.244 1.84-6.672.02-1.839-.38-3.371-1.13-4.644zm-2.97 6.53c-.33 1.556-.92 2.711-1.79 3.489-.69.613-1.32.872-1.91.754-.57-.118-1.04-.613-1.39-1.532a5.847 5.847 0 0 1-.43-2.145c0-.59.05-1.179.17-1.721.21-.967.61-1.91 1.25-2.806.77-1.155 1.6-1.626 2.45-1.461.56.117 1.03.613 1.39 1.532.28.731.42 1.462.42 2.145 0 .613-.04 1.203-.16 1.745zm-11.79-6.53c-.85-1.486-2.12-2.381-3.77-2.735a6.218 6.218 0 0 0-1.28-.141c-2.26 0-4.1 1.178-5.54 3.536-1.22 2.004-1.83 4.22-1.83 6.648 0 1.815.37 3.371 1.13 4.668.85 1.485 2.1 2.381 3.77 2.734.45.095.87.142 1.27.142 2.29 0 4.13-1.179 5.54-3.536 1.23-2.028 1.84-4.244 1.84-6.672 0-1.839-.38-3.371-1.13-4.644zm-2.99 6.53c-.33 1.556-.92 2.711-1.8 3.489-.68.613-1.32.872-1.91.754-.56-.118-1.03-.613-1.39-1.532a6.04 6.04 0 0 1-.42-2.145c0-.59.05-1.179.16-1.721.22-.967.62-1.91 1.25-2.806.78-1.155 1.61-1.626 2.46-1.461.56.117 1.03.613 1.39 1.532.28.731.42 1.462.42 2.145a7.55 7.55 0 0 1-.16 1.745z" fill="#fff"/></g><circle cx="928" cy="330" r="50" fill="#fff"/><g clip-path="url(#clip9)"><path d="M809.614 308.962c-9.242-9.242-24.26-9.28-33.55-.107l-.109.109c-9.275 9.28-9.272 24.377.005 33.653l14.331 14.328a3.194 3.194 0 0 0 2.264.938 3.205 3.205 0 0 0 2.266-5.468l-14.332-14.329c-6.76-6.758-6.781-17.746-.063-24.532l.065-.065c6.782-6.777 17.815-6.775 24.592.003 5.566 5.565 6.364 15.09 1.855 22.158a3.203 3.203 0 0 0 5.399 3.447c6.189-9.698 5.043-22.37-2.723-30.135zm-5.735 34.39a3.202 3.202 0 0 1 0 4.53 3.182 3.182 0 0 1-2.262.94 3.21 3.21 0 0 1-2.269-.939l-14.329-14.327c-4.281-4.283-4.281-11.252 0-15.535a10.917 10.917 0 0 1 7.765-3.215h.003c2.933 0 5.691 1.144 7.764 3.22a10.982 10.982 0 0 1 2.756 10.914 3.205 3.205 0 0 1-6.142-1.834 4.568 4.568 0 0 0-1.145-4.551 4.547 4.547 0 0 0-3.234-1.342h-.002c-1.223 0-2.37.476-3.235 1.339a4.583 4.583 0 0 0 0 6.473l14.33 14.327" fill="#5088AC"/></g><path fill-rule="evenodd" clip-rule="evenodd" d="M928 302c15.464 0 28 12.536 28 28s-12.536 28-28 28-28-12.536-28-28 12.536-28 28-28z" fill="url(#paint2_linear)"/><path d="M931.638 357.765v-21.628h6.097l.809-7.612h-6.906l.01-3.81c0-1.985.189-3.048 3.041-3.048h3.812v-7.614h-6.099c-7.325 0-9.903 3.693-9.903 9.903v4.57h-4.567v7.613h4.567v21.319a28.19 28.19 0 0 0 9.139.307z" fill="#fff"/><circle cx="118" cy="330" r="50" fill="#fff"/><path d="M132.483 340.561c.109-.785.201-1.572.277-2.361a63.34 63.34 0 0 1-2.647 3 37.156 37.156 0 0 0 2.37-.639zm-28.797-16.862a54.013 54.013 0 0 0-.285 2.342 59.57 59.57 0 0 1 2.611-2.98c-.782.189-1.557.401-2.326.638zm29.324 6.295c.433-.7.844-1.414 1.23-2.141-.485-.64-.984-1.27-1.496-1.888.134 1.339.223 2.683.266 4.029zm-31.056 6.298c.457.612.934 1.224 1.432 1.833a63.199 63.199 0 0 1-.244-3.916 38.934 38.934 0 0 0-1.188 2.083zm24.504 10.261a31.18 31.18 0 0 1-1.139 3.084c-.657 1.515-1.395 2.838-2.192 3.946-1.512 2.104-3.236 3.43-5.027 3.778-1.887-.406-3.639-1.74-5.148-3.826-1.483.557-2.932.952-4.328 1.173a15.7 15.7 0 0 0 1.432 1.725c2.173 2.249 4.069 3.531 8.02 3.531 3.952 0 6.189-1.451 8.432-3.975.343-.389.668-.794.972-1.214.833-1.141 1.574-2.445 2.221-3.891.719-1.606 1.322-3.384 1.81-5.301a46.377 46.377 0 0 1-5.053.97zm-.033-38.304c-2.259-2.58-4.444-4.067-8.349-4.067-3.904 0-5.293 1.098-7.365 3.046a15.767 15.767 0 0 0-1.98 2.283c-.799 1.111-1.518 2.373-2.154 3.764-.755 1.653-1.392 3.487-1.906 5.468a45.82 45.82 0 0 1 5.008-1 31.336 31.336 0 0 1 1.175-3.21c.638-1.474 1.355-2.766 2.129-3.86 1.529-2.16 3.283-3.536 5.116-3.935 1.819.338 3.567 1.693 5.096 3.852 1.429-.542 2.826-.927 4.178-1.146a16.77 16.77 0 0 0-.948-1.194v-.001zm.092 9.472a56.527 56.527 0 0 0-2.303-.269 59.728 59.728 0 0 1 2.934 2.574 39.26 39.26 0 0 0-.631-2.305zm-16.863 28.797c.786.114 1.587.213 2.401.294a62.586 62.586 0 0 1-3.046-2.686c.189.804.404 1.602.645 2.392zm31.296-3.496a16.13 16.13 0 0 0-.164-1.503c-.215-1.398-.61-2.846-1.173-4.327-.634-1.668-1.478-3.377-2.505-5.103a46.29 46.29 0 0 1-2.883 4.262 31.583 31.583 0 0 1 1.41 3.065c.604 1.538 1.015 2.996 1.231 4.343.407 2.537.123 4.675-.892 6.178-1.606 1.038-3.762 1.338-6.273.947-.647 1.446-1.388 2.75-2.221 3.891.732.115 1.45.182 2.151.194 3.126.054 5.373-.38 8.167-3.174 2.794-2.794 3.35-5.403 3.152-8.773zm-33.815-33.698c-3.423-.228-6.019.265-8.78 3.027-2.761 2.761-2.967 4.52-3.054 7.362a15.8 15.8 0 0 0 .221 3.057c.224 1.349.61 2.748 1.146 4.179.628 1.678 1.463 3.4 2.482 5.138a45.984 45.984 0 0 1 2.838-4.244 31.391 31.391 0 0 1-1.403-3.02c-.594-1.492-1.003-2.911-1.233-4.232-.459-2.63-.194-4.86.827-6.449 1.539-1.057 3.759-1.331 6.399-.867.635-1.391 1.354-2.653 2.154-3.764a17.123 17.123 0 0 0-1.597-.187zm25.609 16.641a53.127 53.127 0 0 0-.272-2.235 45.909 45.909 0 0 0-1.009-5.059c-.501-1.917-1.117-3.697-1.845-5.307-1.318.223-2.741.629-4.238 1.219.414.971.794 2.022 1.137 3.138.234.762.445 1.531.631 2.305a44.6 44.6 0 0 1 .53 2.533c.299 1.663.52 3.425.656 5.271a57.681 57.681 0 0 1-.003 8.471 51.935 51.935 0 0 0 3.304-4.216 43.27 43.27 0 0 0 1.375-2.091 58.921 58.921 0 0 0-.266-4.029zm-23.09 20.553a38.001 38.001 0 0 1-.645-2.392 43.814 43.814 0 0 1-.503-2.443 52.062 52.062 0 0 1-.647-5.386 60.804 60.804 0 0 1-.149-4.248c0-1.458.056-2.872.156-4.24a51.235 51.235 0 0 0-3.311 4.243 44.401 44.401 0 0 0-1.413 2.157c.042 1.334.124 2.641.244 3.916.076.808.167 1.604.275 2.384.241 1.748.562 3.42.961 5.001.491 1.942 1.1 3.744 1.827 5.369 1.35-.224 2.805-.638 4.338-1.246a30.488 30.488 0 0 1-1.133-3.115zm4.219-30.574c-.652.493-1.293 1-1.922 1.522a58.952 58.952 0 0 1 4.115-.27 38.607 38.607 0 0 0-2.193-1.252zm-13.745 34.087c-1.056-1.539-1.33-3.76-.867-6.399a22.297 22.297 0 0 1-3.763-2.154c-.089.54-.154 1.074-.188 1.597-.228 3.422.266 6.019 3.027 8.78 2.761 2.761 4.52 2.966 7.362 3.054.942.029 1.92-.042 2.925-.201-.814-1.127-1.54-2.409-2.175-3.829-2.574.428-4.758.156-6.321-.848zm13.705-1.811a31.51 31.51 0 0 1-3.046 1.413c.643 1.496 1.37 2.803 2.165 3.902 1.664-.624 3.371-1.451 5.093-2.459a46.32 46.32 0 0 1-4.212-2.856zm8.479.01c.61-.456 1.21-.925 1.8-1.406a62.673 62.673 0 0 1-3.832.24c.665.41 1.343.799 2.032 1.166zm-11.525 1.403c-1.533.609-2.988 1.022-4.338 1.246.635 1.42 1.361 2.702 2.175 3.829 1.395-.22 2.845-.616 4.328-1.172-.795-1.1-1.522-2.407-2.165-3.903zm26.993-37.222c-2.793-2.794-5.402-3.35-8.771-3.152-.548.034-1.094.096-1.636.185-1.351.219-2.749.604-4.178 1.146-1.683.638-3.408 1.49-5.149 2.529a45.897 45.897 0 0 1 4.294 2.864 31.46 31.46 0 0 1 3.04-1.4c1.497-.59 2.92-.996 4.238-1.218 2.592-.438 4.777-.161 6.305.87 1.038 1.607 1.338 3.762.947 6.273 1.446.647 2.75 1.388 3.892 2.221.114-.731.181-1.45.193-2.151.055-3.126-.38-5.373-3.174-8.167h-.001zm-2.157 12.479a30.446 30.446 0 0 1-1.383 2.963 37.503 37.503 0 0 1-1.23 2.141 43.3 43.3 0 0 1-1.375 2.092 52.148 52.148 0 0 1-3.304 4.215 60.45 60.45 0 0 1-2.959 3.178 57.413 57.413 0 0 1-3.089 2.872 52.277 52.277 0 0 0 5.365-.644 43.244 43.244 0 0 0 2.465-.507 62.273 62.273 0 0 0 2.647-3c.501-.606.99-1.222 1.465-1.848a46.437 46.437 0 0 0 2.883-4.263c1.006-1.693 1.834-3.37 2.461-5.007-1.108-.796-2.43-1.535-3.946-2.192zm-27.099-2.355a44.79 44.79 0 0 0-2.512.526 59.57 59.57 0 0 0-2.611 2.98c-.484.59-.955 1.191-1.413 1.802a45.987 45.987 0 0 0-2.838 4.244c-1.022 1.738-1.86 3.46-2.49 5.139 1.093.774 2.385 1.491 3.859 2.129.398-.992.879-2.017 1.435-3.063.374-.707.771-1.401 1.188-2.083a44.42 44.42 0 0 1 1.414-2.157 51.004 51.004 0 0 1 3.31-4.243 57.362 57.362 0 0 1 5.95-5.933 50.846 50.846 0 0 0-5.292.659zm33.451 1.166a16.45 16.45 0 0 0-1.214-.972c-1.141-.833-2.445-1.574-3.891-2.221-1.635-.732-3.45-1.345-5.407-1.837.417 1.598.755 3.29 1.009 5.059 1.123.35 2.177.738 3.151 1.16 1.515.657 2.838 1.395 3.946 2.192 2.104 1.512 3.43 3.236 3.778 5.028-.401 1.859-1.7 3.588-3.734 5.082.563 1.481.958 2.929 1.173 4.327a15.654 15.654 0 0 0 1.633-1.366c2.249-2.172 3.531-4.069 3.531-8.02 0-3.952-1.451-6.189-3.975-8.432zm-38.314 16.808a31.241 31.241 0 0 1-3.142-1.154c-1.474-.638-2.766-1.355-3.86-2.129-2.16-1.529-3.536-3.283-3.935-5.116.343-1.845 1.73-3.617 3.943-5.161-.535-1.431-.922-2.83-1.145-4.179-.445.317-.874.655-1.286 1.014-2.582 2.259-4.069 4.444-4.069 8.349 0 3.904 1.099 5.293 3.047 7.365a15.783 15.783 0 0 0 2.283 1.98c1.111.799 2.373 1.518 3.764 2.154 1.623.741 3.421 1.369 5.361 1.878a46.566 46.566 0 0 1-.962-5.001h.001zm14.457-21.967a44.68 44.68 0 0 0-2.052-1.346 59.65 59.65 0 0 0-4.115.269c-.77.078-1.528.171-2.272.278-1.75.253-3.425.587-5.008 1-1.922.501-3.707 1.119-5.32 1.848.23 1.32.64 2.74 1.234 4.232.96-.409 1.998-.784 3.101-1.124.746-.23 1.521-.444 2.326-.638.809-.194 1.647-.37 2.512-.526 1.669-.3 3.439-.524 5.293-.659a57.07 57.07 0 0 1 8.592.012 50.867 50.867 0 0 0-4.291-3.346zm17.517 20.874c-.974.419-2.027.802-3.152 1.145-.783.239-1.573.452-2.37.639-.795.187-1.615.357-2.465.506a52.236 52.236 0 0 1-5.365.645c-1.37.095-2.786.148-4.248.148-1.415 0-2.788-.052-4.118-.146a52.176 52.176 0 0 0 4.168 3.268c.717.503 1.449.984 2.195 1.443a62.664 62.664 0 0 0 3.832-.241 54.305 54.305 0 0 0 2.346-.27 46.377 46.377 0 0 0 5.053-.97c1.937-.49 3.734-1.098 5.355-1.824-.216-1.347-.627-2.805-1.231-4.343zm-13.323 8.814a38.52 38.52 0 0 1-2.032-1.166 43.657 43.657 0 0 1-2.195-1.443 51.967 51.967 0 0 1-4.168-3.269 59.953 59.953 0 0 1-3.187-2.966 57.804 57.804 0 0 1-2.871-3.089c.132 1.891.349 3.693.647 5.386.148.842.317 1.656.503 2.443a62.586 62.586 0 0 0 3.046 2.686c.583.481 1.176.95 1.778 1.407a46.13 46.13 0 0 0 4.212 2.857c1.719 1.027 3.421 1.871 5.082 2.507.797-1.108 1.535-2.431 2.192-3.946-.975-.39-1.98-.86-3.007-1.407zm5.366-25.671a44.466 44.466 0 0 0-.53-2.533 59.728 59.728 0 0 0-2.934-2.574 54.281 54.281 0 0 0-1.874-1.469 45.7 45.7 0 0 0-4.294-2.864c-1.712-1.001-3.409-1.824-5.063-2.446-.774 1.094-1.49 2.386-2.129 3.86.978.392 1.988.866 3.019 1.411.721.381 1.453.796 2.193 1.252.678.417 1.363.867 2.052 1.346a50.867 50.867 0 0 1 4.291 3.346 57.603 57.603 0 0 1 5.925 5.942 51.353 51.353 0 0 0-.656-5.272v.001z" fill="#49BC82"/><path d="M132.483 340.561c.109-.785.201-1.572.277-2.361a63.34 63.34 0 0 1-2.647 3 37.156 37.156 0 0 0 2.37-.639zm-28.796-16.862a52.501 52.501 0 0 0-.286 2.342 59.57 59.57 0 0 1 2.611-2.98c-.781.189-1.557.401-2.325.638z" fill="#49BC82"/><path d="M133.01 329.994c.434-.7.844-1.414 1.23-2.141-.485-.64-.984-1.27-1.496-1.888.134 1.339.223 2.683.266 4.029zm-31.056 6.298c.457.612.935 1.224 1.432 1.833a62.43 62.43 0 0 1-.243-3.916 38.276 38.276 0 0 0-1.189 2.083z" fill="#57B6DF"/><path d="M126.458 346.553a31.18 31.18 0 0 1-1.139 3.084c-.657 1.515-1.395 2.838-2.191 3.946-1.513 2.104-3.237 3.43-5.028 3.778-1.887-.406-3.639-1.74-5.147-3.826-1.484.557-2.933.952-4.329 1.173.451.624.927 1.202 1.433 1.725 2.172 2.249 4.068 3.531 8.02 3.531 3.951 0 6.188-1.451 8.431-3.975.343-.389.668-.794.972-1.214.833-1.141 1.574-2.445 2.221-3.891.719-1.606 1.322-3.384 1.81-5.301a46.33 46.33 0 0 1-5.053.97zm-.033-38.304c-2.258-2.58-4.444-4.067-8.348-4.067-3.905 0-5.294 1.098-7.366 3.046a15.762 15.762 0 0 0-1.979 2.283c-.8 1.111-1.519 2.373-2.154 3.764-.756 1.653-1.393 3.487-1.907 5.468a45.868 45.868 0 0 1 5.008-1 31.336 31.336 0 0 1 1.175-3.21c.638-1.474 1.355-2.766 2.129-3.86 1.529-2.16 3.283-3.536 5.117-3.935 1.818.338 3.566 1.693 5.095 3.852 1.429-.542 2.827-.927 4.178-1.146a16.77 16.77 0 0 0-.948-1.194" fill="#49BC82"/><path d="M126.517 317.722a54.8 54.8 0 0 0-2.303-.27 59.728 59.728 0 0 1 2.934 2.574 39.017 39.017 0 0 0-.631-2.304zm-16.863 28.796c.786.114 1.587.213 2.401.293a62.036 62.036 0 0 1-3.046-2.685c.189.804.404 1.602.645 2.392" fill="#276392"/><path d="M140.95 343.022a16.13 16.13 0 0 0-.164-1.503c-.215-1.398-.61-2.846-1.173-4.327-.634-1.668-1.478-3.377-2.505-5.103a46.29 46.29 0 0 1-2.883 4.262 31.583 31.583 0 0 1 1.41 3.065c.604 1.538 1.015 2.996 1.231 4.343.407 2.537.123 4.675-.892 6.178-1.606 1.038-3.762 1.338-6.273.947-.647 1.446-1.388 2.75-2.221 3.891.732.114 1.45.182 2.151.194 3.126.054 5.374-.38 8.167-3.174 2.795-2.794 3.351-5.403 3.152-8.773zm-33.815-33.698c-3.423-.228-6.019.265-8.78 3.027-2.761 2.761-2.967 4.52-3.054 7.362a15.8 15.8 0 0 0 .221 3.057c.224 1.349.61 2.748 1.146 4.179.628 1.678 1.463 3.4 2.482 5.138a46.006 46.006 0 0 1 2.838-4.244 31.391 31.391 0 0 1-1.403-3.02c-.594-1.492-1.003-2.911-1.233-4.232-.459-2.63-.194-4.86.827-6.449 1.539-1.057 3.759-1.331 6.399-.867.635-1.391 1.354-2.653 2.154-3.764a17.123 17.123 0 0 0-1.597-.187z" fill="#57B6DF"/><path d="M132.744 325.965a54.838 54.838 0 0 0-.272-2.235 45.909 45.909 0 0 0-1.009-5.059c-.501-1.917-1.117-3.697-1.845-5.307-1.318.223-2.741.629-4.238 1.219.414.971.793 2.022 1.137 3.139.234.761.444 1.53.631 2.304a44.6 44.6 0 0 1 .53 2.533c.299 1.663.52 3.425.656 5.271a57.681 57.681 0 0 1-.003 8.471 52.1 52.1 0 0 0 3.304-4.215c.478-.684.937-1.382 1.375-2.092a59.565 59.565 0 0 0-.266-4.029zm-23.09 20.553a38.001 38.001 0 0 1-.645-2.392 43.824 43.824 0 0 1-.502-2.443 52.055 52.055 0 0 1-.648-5.386 60.804 60.804 0 0 1-.149-4.248c0-1.458.056-2.872.156-4.24a51.45 51.45 0 0 0-3.311 4.243 44.382 44.382 0 0 0-1.412 2.157c.041 1.334.123 2.641.243 3.916.077.808.167 1.604.275 2.384.241 1.748.562 3.421.961 5.001.491 1.943 1.101 3.744 1.828 5.369 1.349-.224 2.804-.638 4.337-1.246a30.488 30.488 0 0 1-1.133-3.115" fill="#49BC82"/><path d="M113.873 315.944c-.652.493-1.293 1-1.922 1.522a58.952 58.952 0 0 1 4.115-.27 38.263 38.263 0 0 0-2.193-1.252zm-13.745 34.086c-1.056-1.538-1.33-3.759-.867-6.399-1.391-.635-2.653-1.354-3.763-2.154a16.95 16.95 0 0 0-.188 1.598c-.228 3.422.266 6.019 3.027 8.779 2.761 2.762 4.52 2.967 7.362 3.054.942.029 1.92-.041 2.925-.2-.814-1.127-1.54-2.41-2.174-3.829-2.574.428-4.759.156-6.322-.849zm13.705-1.811a31.18 31.18 0 0 1-3.046 1.414c.643 1.495 1.37 2.803 2.166 3.902 1.663-.624 3.37-1.451 5.092-2.459a46.683 46.683 0 0 1-4.212-2.857zm8.479.011c.61-.456 1.21-.925 1.8-1.407a62.664 62.664 0 0 1-3.832.241 38.52 38.52 0 0 0 2.032 1.166z" fill="#FABB66"/><path d="M110.787 349.633c-1.533.608-2.988 1.022-4.337 1.246.634 1.419 1.36 2.702 2.174 3.829 1.396-.221 2.845-.616 4.329-1.173-.796-1.099-1.523-2.407-2.166-3.902zm26.994-37.222c-2.794-2.794-5.402-3.35-8.772-3.152-.548.034-1.094.096-1.636.185-1.351.219-2.749.604-4.178 1.146-1.682.637-3.407 1.49-5.149 2.529a45.843 45.843 0 0 1 4.295 2.864 31.337 31.337 0 0 1 3.039-1.4c1.497-.59 2.92-.996 4.238-1.219 2.592-.437 4.777-.16 6.306.871 1.037 1.606 1.338 3.762.947 6.273 1.445.647 2.749 1.388 3.891 2.221.114-.731.182-1.45.194-2.151.054-3.126-.381-5.373-3.175-8.167zm-2.158 12.479a30.446 30.446 0 0 1-1.383 2.963 36.913 36.913 0 0 1-1.23 2.141c-.438.71-.897 1.408-1.375 2.092a52.1 52.1 0 0 1-3.304 4.215 60.85 60.85 0 0 1-2.959 3.178 57.441 57.441 0 0 1-3.089 2.872 52.202 52.202 0 0 0 5.365-.645 43.06 43.06 0 0 0 2.465-.506 62.273 62.273 0 0 0 2.647-3c.501-.606.99-1.222 1.465-1.849a46.09 46.09 0 0 0 2.883-4.262c1.007-1.693 1.834-3.37 2.461-5.007-1.108-.797-2.43-1.535-3.946-2.192zm-27.099-2.355a44.57 44.57 0 0 0-2.511.526 59.084 59.084 0 0 0-2.612 2.98 53.295 53.295 0 0 0-1.413 1.802 46.006 46.006 0 0 0-2.838 4.244c-1.022 1.738-1.86 3.46-2.49 5.139 1.093.774 2.385 1.491 3.86 2.129.397-.992.878-2.017 1.434-3.063.375-.707.771-1.401 1.189-2.083.45-.732.921-1.452 1.413-2.157a51.217 51.217 0 0 1 3.31-4.243 57.46 57.46 0 0 1 5.95-5.933 50.846 50.846 0 0 0-5.292.659z" fill="#FABB66"/><path d="M141.975 323.701a16.45 16.45 0 0 0-1.214-.972c-1.141-.833-2.445-1.574-3.891-2.221-1.635-.732-3.45-1.345-5.407-1.837.417 1.598.755 3.29 1.009 5.059 1.123.35 2.177.738 3.151 1.16 1.515.657 2.838 1.395 3.946 2.192 2.104 1.512 3.43 3.236 3.778 5.028-.401 1.859-1.7 3.588-3.734 5.081.563 1.482.958 2.93 1.173 4.328a15.654 15.654 0 0 0 1.633-1.366c2.249-2.172 3.531-4.069 3.531-8.02 0-3.952-1.451-6.189-3.975-8.432zm-38.314 16.808a31.13 31.13 0 0 1-3.141-1.154c-1.475-.638-2.767-1.355-3.86-2.129-2.16-1.529-3.537-3.283-3.936-5.116.343-1.845 1.73-3.617 3.943-5.161-.535-1.431-.922-2.83-1.145-4.179-.445.317-.874.655-1.286 1.014-2.582 2.259-4.069 4.444-4.069 8.349 0 3.904 1.099 5.293 3.047 7.365a15.716 15.716 0 0 0 2.283 1.979c1.111.8 2.373 1.519 3.764 2.154 1.623.742 3.421 1.37 5.361 1.878a46.5 46.5 0 0 1-.962-5h.001zm14.457-21.967a44.142 44.142 0 0 0-2.052-1.346 59.65 59.65 0 0 0-4.115.269c-.77.078-1.528.171-2.272.278-1.75.253-3.425.587-5.008 1-1.922.501-3.707 1.119-5.32 1.848.23 1.32.64 2.74 1.234 4.232.96-.409 1.998-.784 3.101-1.124.746-.23 1.521-.444 2.326-.638.809-.194 1.647-.37 2.512-.526 1.669-.3 3.439-.524 5.293-.659a57.07 57.07 0 0 1 8.592.012 50.867 50.867 0 0 0-4.291-3.346zm17.517 20.874c-.974.419-2.027.802-3.152 1.145-.783.239-1.573.452-2.37.639-.795.187-1.615.357-2.465.506a51.966 51.966 0 0 1-5.365.644c-1.37.096-2.786.149-4.248.149-1.415 0-2.788-.052-4.118-.147a51.967 51.967 0 0 0 4.168 3.269c.717.503 1.449.984 2.195 1.443a62.664 62.664 0 0 0 3.832-.241 54.305 54.305 0 0 0 2.346-.27 46.377 46.377 0 0 0 5.053-.97c1.937-.49 3.734-1.098 5.355-1.824-.216-1.347-.627-2.805-1.231-4.343" fill="#276392"/><path d="M122.312 348.23a37.83 37.83 0 0 1-2.032-1.166 43.657 43.657 0 0 1-2.195-1.443 51.967 51.967 0 0 1-4.168-3.269 59.953 59.953 0 0 1-3.187-2.966 57.804 57.804 0 0 1-2.871-3.089c.132 1.891.349 3.693.647 5.386.148.842.317 1.656.503 2.443a62.586 62.586 0 0 0 3.046 2.686c.583.481 1.176.95 1.778 1.407a46.13 46.13 0 0 0 4.212 2.857c1.719 1.027 3.421 1.871 5.082 2.507.797-1.108 1.535-2.431 2.192-3.946-.975-.39-1.98-.86-3.007-1.407zm5.366-25.671a44.648 44.648 0 0 0-.53-2.533 59.728 59.728 0 0 0-2.934-2.574 54.281 54.281 0 0 0-1.874-1.469 45.897 45.897 0 0 0-4.294-2.864c-1.712-1.001-3.409-1.824-5.063-2.446-.774 1.094-1.49 2.386-2.129 3.86.978.393 1.988.866 3.019 1.411.721.382 1.453.796 2.193 1.252.678.418 1.363.867 2.052 1.346a50.867 50.867 0 0 1 4.291 3.346 57.603 57.603 0 0 1 5.925 5.942 51.298 51.298 0 0 0-.656-5.271" fill="#57B6DF"/><circle cx="590" cy="190" r="50" fill="#fff"/><path d="M613.087 214.6a3.401 3.401 0 0 1-3.4 3.4h-36.284a3.403 3.403 0 0 1-3.403-3.398v-53.107a3.401 3.401 0 0 1 3.403-3.403h23.286l16.398 16.724V214.6z" fill="#23A566"/><path d="M598.493 174.379l14.594 13.949v-13.61H600.16a3.266 3.266 0 0 1-1.615-.407l-.052.068z" fill="#1C8F5A"/><path d="M613.087 174.788h-12.963a3.4 3.4 0 0 1-3.4-3.4V158l16.363 16.788z" fill="#8ED1B1"/><path fill-rule="evenodd" clip-rule="evenodd" d="M602.713 206.956h-22.422v-19.441h22.422v19.441zm-9.817-16.636v3.403h7.061v-3.398l-7.061-.005zm0 5.546v3.251h7.061v-3.267l-7.061.016zm0 5.324v3.01h7.061v-3.026l-7.061.016zm-2.772 2.994v-3.01h-7.058v3.01h7.058zm0-5.102v-3.232h-7.058v3.248l7.058-.016zm0-5.324v-3.438h-7.058v3.403l7.058.035z" fill="#fff"/><circle cx="455" cy="190" r="50" fill="#fff"/><g clip-path="url(#clip10)"><path d="M455.066 167c-15.015 0-26.778 19.103-27.891 35.237 4.712 8.177 16.074 11.251 27.891 11.251 11.816 0 23.179-3.074 27.888-11.251C481.841 186.103 470.08 167 455.066 167" fill="#B6DEFF"/><path d="M479.031 198.394s-3.316-7.17-6.687-11.352c-3.373-4.185-7.492-8.741-9.927-8.741-2.434 0-9.239 12.048-12.361 12.048s-4.745-5.462-8.583-5.462c-3.841 0-9.942 13.17-9.942 13.17l-.413 2.233s2.12 9.397 24.294 9.397c22.176 0 23.948-9.243 23.948-9.243l-.329-2.05" fill="#6C6"/><path d="M450.403 195.49c-3.443 0-5.209-3.398-6.166-5.495-.861-1.89-1.01-4.873-3.452-4.957.24-.095.471-.151.687-.151 3.839 0 5.462 5.462 8.584 5.462s9.926-12.048 12.361-12.048c.458 0 .975.161 1.536.449-.415-.054-.947-.016-1.357.395-.787.787-7.929 16.345-12.193 16.345z" fill="#17AD49"/></g><circle cx="725" cy="190" r="50" fill="#fff"/><path d="M711.099 168l14.101 8.982-14.101 8.983L697 176.982 711.099 168zm28.201 0l14.1 8.983-14.1 8.983-14.1-8.983L739.3 168zM697 194.949l14.099-8.983 14.101 8.983-14.101 8.982L697 194.949zm42.3-8.983l14.1 8.984-14.1 8.983-14.1-8.983 14.1-8.984zm-28.2 20.979l14.101-8.983 14.099 8.983-14.099 8.982-14.101-8.982z" fill="#0061FF"/><circle cx="185" cy="190" r="50" fill="#fff"/><path d="M184.969 212.629c-11.376 0-20.598-9.222-20.598-20.598s9.222-20.598 20.598-20.598 20.598 9.222 20.598 20.598-9.222 20.598-20.598 20.598zm0-48.567c-15.447 0-27.969 12.522-27.969 27.969C157 207.478 169.522 220 184.969 220c15.447 0 27.97-12.522 27.97-27.969 0-15.447-12.523-27.969-27.97-27.969z" fill="#CF272D"/><path d="M186.119 185.065a5.815 5.815 0 1 1 11.63 0 5.815 5.815 0 0 1-11.63 0zm0 13.931a5.816 5.816 0 1 1 11.632.002 5.816 5.816 0 0 1-11.632-.002zm-13.931 0a5.816 5.816 0 1 1 11.632.002 5.816 5.816 0 0 1-11.632-.002zm0-13.931a5.815 5.815 0 1 1 11.63 0 5.815 5.815 0 0 1-11.63 0z" fill="#CF272D"/><circle cx="50" cy="190" r="50" fill="#fff"/><g clip-path="url(#clip11)"><path d="M71.78 208.243a6.71 6.71 0 0 1-7.502 6.699 6.882 6.882 0 0 1-5.873-6.975v-39.945a6.885 6.885 0 0 1 5.884-6.975 6.71 6.71 0 0 1 7.49 6.7v40.496z" fill="#F9AB00"/><path d="M29.689 201.623a6.688 6.688 0 1 1 0 13.377 6.688 6.688 0 1 1 0-13.377zm17.598-20.27a6.882 6.882 0 0 0-6.505 7.033v17.964c0 4.876 2.146 7.835 5.29 8.466a6.699 6.699 0 0 0 8.03-6.584v-20.157a6.712 6.712 0 0 0-6.7-6.725c-.038 0-.078 0-.115.003z" fill="#E37400"/></g><circle cx="320" cy="190" r="50" fill="#fff"/><g clip-path="url(#clip12)"><path d="M314.968 175.582c1.935-2.016 4.629-3.267 7.609-3.267 3.961 0 7.416 2.209 9.256 5.487 1.6-.714 3.37-1.111 5.232-1.111 7.144 0 12.935 5.841 12.935 13.047 0 7.207-5.791 13.049-12.935 13.049a12.75 12.75 0 0 1-2.548-.254 9.451 9.451 0 0 1-12.39 3.892c-1.642 3.864-5.47 6.573-9.93 6.573-4.646 0-8.605-2.939-10.124-7.061a9.896 9.896 0 0 1-2.058.214c-5.531 0-10.015-4.53-10.015-10.119 0-3.745 2.015-7.015 5.008-8.765a11.564 11.564 0 0 1-.959-4.628c0-6.427 5.218-11.637 11.654-11.637 3.778 0 7.136 1.796 9.265 4.58z" fill="#00A1E0"/><path d="M298.691 192.78c-.038.099.013.119.025.136.113.082.228.141.343.207.612.325 1.19.42 1.794.42 1.231 0 1.995-.655 1.995-1.709v-.02c0-.975-.862-1.329-1.672-1.584l-.105-.034c-.61-.199-1.137-.37-1.137-.771v-.022c0-.343.308-.596.785-.596.53 0 1.159.176 1.564.4 0 0 .119.077.162-.039.024-.061.229-.613.251-.673.023-.065-.018-.113-.06-.139a3.491 3.491 0 0 0-1.763-.473l-.123.001c-1.127 0-1.913.68-1.913 1.655v.021c0 1.028.867 1.361 1.68 1.594l.131.04c.592.182 1.103.338 1.103.755v.021c0 .381-.332.665-.867.665-.208 0-.87-.004-1.586-.457-.086-.05-.136-.087-.203-.127-.035-.022-.123-.061-.162.056l-.242.673zm18.017 0c-.037.099.014.119.026.136.113.082.228.141.343.207.612.325 1.19.42 1.794.42 1.231 0 1.995-.655 1.995-1.709v-.02c0-.975-.863-1.329-1.672-1.584l-.105-.034c-.61-.199-1.137-.37-1.137-.771v-.022c0-.343.308-.596.785-.596.53 0 1.159.176 1.564.4 0 0 .119.077.162-.039.024-.061.229-.613.251-.673.023-.065-.018-.113-.06-.139a3.494 3.494 0 0 0-1.763-.473l-.124.001c-1.126 0-1.912.68-1.912 1.655v.021c0 1.028.867 1.361 1.68 1.594l.131.04c.592.182 1.103.338 1.103.755v.021c0 .381-.332.665-.867.665-.208 0-.87-.004-1.586-.457-.086-.05-.137-.085-.202-.127-.023-.014-.127-.055-.163.056l-.243.673zm12.301-2.064c0 .596-.111 1.065-.33 1.396-.216.329-.544.489-1 .489-.457 0-.783-.159-.996-.489-.215-.33-.324-.8-.324-1.396 0-.595.109-1.063.324-1.392.213-.324.539-.482.996-.482.456 0 .784.158 1.001.482.218.329.329.797.329 1.392zm1.027-1.104a2.488 2.488 0 0 0-.467-.893 2.274 2.274 0 0 0-.789-.6 2.6 2.6 0 0 0-1.101-.22c-.417 0-.788.074-1.102.22a2.274 2.274 0 0 0-.789.6 2.514 2.514 0 0 0-.468.893c-.1.339-.15.71-.15 1.104 0 .394.05.766.15 1.104.102.34.258.641.468.892a2.2 2.2 0 0 0 .789.595c.315.143.685.216 1.102.216a2.65 2.65 0 0 0 1.101-.216c.314-.142.579-.343.789-.595.209-.25.366-.551.467-.892.101-.339.152-.711.152-1.104 0-.393-.051-.765-.152-1.104zm8.437 2.829c-.034-.1-.131-.062-.131-.062-.15.057-.309.11-.478.137-.172.026-.361.04-.563.04-.497 0-.892-.148-1.175-.44-.284-.293-.443-.765-.441-1.404.001-.583.142-1.02.394-1.353.25-.332.631-.502 1.14-.502.424 0 .747.049 1.085.155 0 0 .082.035.12-.071.09-.249.156-.428.252-.702.027-.078-.039-.111-.063-.121a4.025 4.025 0 0 0-.686-.172 5.166 5.166 0 0 0-.771-.052c-.431 0-.816.073-1.145.22a2.37 2.37 0 0 0-.827.599 2.545 2.545 0 0 0-.5.893 3.55 3.55 0 0 0-.168 1.106c0 .852.23 1.54.684 2.045.455.506 1.138.763 2.028.763a4.18 4.18 0 0 0 1.455-.26s.074-.036.042-.122l-.252-.697zm1.797-2.296c.049-.331.14-.606.281-.82.213-.326.538-.505.995-.505.456 0 .758.18.974.505.144.214.206.501.231.82h-2.481zm3.459-.727a2.156 2.156 0 0 0-.445-.814c-.224-.241-.443-.409-.66-.503a2.532 2.532 0 0 0-.996-.202c-.435 0-.829.073-1.148.223-.321.151-.59.356-.801.611a2.51 2.51 0 0 0-.471.903 3.893 3.893 0 0 0-.153 1.11c0 .401.053.774.158 1.11.106.339.275.637.504.884.228.249.523.444.875.579.349.136.774.206 1.262.205 1.004-.004 1.533-.228 1.751-.348.039-.021.076-.059.029-.167l-.227-.637c-.034-.094-.131-.059-.131-.059-.248.092-.602.258-1.427.256-.539-.001-.939-.16-1.19-.409-.257-.254-.383-.629-.405-1.157l3.478.004s.091-.002.101-.091c.003-.037.119-.714-.104-1.498zm-31.311.727c.05-.331.14-.606.281-.82.213-.326.538-.505.994-.505.457 0 .759.18.976.505.142.214.205.501.23.82h-2.481zm3.458-.727a2.156 2.156 0 0 0-.444-.814c-.224-.241-.443-.409-.66-.503a2.532 2.532 0 0 0-.996-.202c-.434 0-.829.073-1.148.223-.321.151-.59.356-.801.611a2.51 2.51 0 0 0-.471.903 3.928 3.928 0 0 0-.153 1.11c0 .401.053.774.158 1.11.106.339.275.637.504.884.229.249.523.444.875.579.349.136.774.206 1.262.205 1.004-.004 1.533-.228 1.751-.348.039-.021.076-.059.029-.167l-.226-.637c-.035-.094-.132-.059-.132-.059-.248.092-.601.258-1.428.256-.538-.001-.938-.16-1.189-.409-.257-.254-.383-.629-.405-1.157l3.478.004s.091-.002.101-.091c.003-.037.119-.714-.105-1.498zm-10.975 3.004c-.136-.108-.155-.136-.201-.206-.068-.106-.103-.259-.103-.452 0-.306.101-.525.31-.673-.002.001.299-.261 1.009-.252.498.007.943.081.943.081v1.581h.001s-.442.095-.939.125c-.708.043-1.023-.204-1.02-.204zm1.384-2.443a7.912 7.912 0 0 0-.543-.016c-.298 0-.586.037-.856.11a2.226 2.226 0 0 0-.727.336c-.21.15-.382.347-.504.574a1.678 1.678 0 0 0-.186.802c0 .307.053.575.159.794.106.219.259.402.454.543.193.141.432.245.709.307.272.063.582.094.92.094.357 0 .712-.029 1.057-.088.341-.058.76-.143.876-.169.081-.02.162-.04.243-.062.087-.022.08-.114.08-.114l-.002-3.18c0-.698-.186-1.215-.553-1.536-.365-.319-.902-.481-1.597-.481-.261 0-.681.036-.932.087 0 0-.76.147-1.073.391 0 0-.068.043-.03.139l.246.661c.031.086.114.057.114.057s.026-.011.057-.029c.669-.364 1.515-.353 1.515-.353.376 0 .665.075.86.225.19.145.286.365.286.828v.147c-.299-.042-.573-.067-.573-.067zm28.05-1.792c.026-.079-.029-.116-.053-.125a3.036 3.036 0 0 0-.582-.1c-.437-.026-.68.047-.897.144-.215.098-.455.255-.588.434v-.423c0-.059-.042-.106-.1-.106h-.892c-.058 0-.099.047-.099.106v5.187c0 .058.047.106.105.106h.914a.106.106 0 0 0 .075-.031.11.11 0 0 0 .03-.075v-2.592c0-.347.039-.694.116-.912.075-.216.178-.388.304-.512a1.06 1.06 0 0 1 .43-.258 1.658 1.658 0 0 1 .849-.019c.066.007.104-.034.126-.094.06-.159.229-.635.262-.73z" fill="#fff"/><path d="M325.758 185.783a2.727 2.727 0 0 0-.816-.118c-.629 0-1.125.178-1.473.528-.346.349-.581.879-.699 1.578l-.043.235h-.789s-.096-.004-.117.101l-.129.724c-.009.068.021.112.113.112h.768l-.779 4.352c-.061.35-.131.638-.209.857-.076.215-.15.377-.242.495a.649.649 0 0 1-.318.245 1.3 1.3 0 0 1-.41.059c-.084 0-.195-.014-.278-.031a.832.832 0 0 1-.188-.06s-.09-.034-.126.055l-.258.707c-.024.069.01.123.054.139a2.116 2.116 0 0 0 .827.141c.32 0 .612-.045.854-.132a1.61 1.61 0 0 0 .643-.448c.202-.224.329-.458.451-.779.12-.316.224-.709.306-1.167l.784-4.433h1.145s.096.003.116-.102l.13-.723c.009-.069-.02-.112-.114-.112h-1.112c.006-.025.057-.416.184-.785.055-.156.157-.283.244-.371a.734.734 0 0 1 .291-.181c.111-.036.236-.053.374-.053.104 0 .207.012.285.028.108.023.15.035.178.044.114.034.129.001.151-.054l.266-.73c.028-.079-.04-.112-.064-.121zm-15.536 7.521c0 .058-.042.105-.1.105h-.922c-.059 0-.1-.047-.1-.105v-7.422c0-.058.041-.105.1-.105h.922c.058 0 .1.047.1.105v7.422z" fill="#fff"/></g><circle cx="995" cy="190" r="50" fill="#fff"/><g clip-path="url(#clip13)"><path d="M986 180h-18v36h36v-36h-18z" fill="#9DE1F3"/><path d="M986 162v36h36v-36h-36z" fill="#27B4E1"/><path d="M968 216h18v-18h-18v18zm36-36h18v-18h-18v18z" fill="#1A82E2"/><path d="M986 198h18v-18h-18v18z" fill="#239FD7"/></g><circle cx="860" cy="190" r="50" fill="#fff"/><path d="M857.408 179.005v30.68H832l25.408-30.68zm0-11.005c0 7.011-5.68 12.69-12.691 12.69-7.01 0-12.717-5.679-12.717-12.69h25.408zm4.184 41.685c0-7.011 5.68-12.69 12.691-12.69 7.01 0 12.69 5.679 12.69 12.69h-25.381zm0-11.006V168H887l-25.408 30.679z" fill="#03363D"/><path d="M272.067 332.589a1.732 1.732 0 0 1-3.467 0V317a1.735 1.735 0 0 1 3.467 0v15.589zm-.605 10.85c-.268.229-6.689 5.617-18.462 5.617s-18.194-5.388-18.461-5.617a1.732 1.732 0 0 1-.188-2.444 1.73 1.73 0 0 1 2.44-.192c.102.086 5.835 4.786 16.209 4.786 10.504 0 16.149-4.734 16.205-4.782a1.733 1.733 0 0 1 2.257 2.632zM233.933 317a1.734 1.734 0 0 1 3.467 0v15.589a1.736 1.736 0 0 1-1.733 1.715 1.731 1.731 0 0 1-1.734-1.715V317zm8.667-3.467a1.733 1.733 0 0 1 3.467 0v23.157a1.733 1.733 0 0 1-3.467 0v-23.157zm8.667-.877a1.735 1.735 0 0 1 2.959-1.226 1.743 1.743 0 0 1 .507 1.226v25.133a1.731 1.731 0 0 1-3.466 0v-25.133zm8.666.877a1.733 1.733 0 0 1 3.467 0v23.157a1.733 1.733 0 0 1-3.467 0v-23.157zM272.5 304h-39a6.5 6.5 0 0 0-6.5 6.5v39a6.5 6.5 0 0 0 6.5 6.5h39a6.5 6.5 0 0 0 6.5-6.5v-39a6.5 6.5 0 0 0-6.5-6.5z" fill="#1F8DED"/><circle cx="1130" cy="190" r="50" fill="#fff"/><g clip-path="url(#clip14)"><path d="M1149.94 168h-15.55c-.16 0-.31.059-.43.165l-3.52 2.499a.67.67 0 0 1-.88 0l-3.52-2.499a.645.645 0 0 0-.43-.165h-15.55c-.19 0-.36.075-.49.21a27.903 27.903 0 0 0-7.57 19.031c-.06 15.278 12.32 27.895 27.6 28.109 15.65.218 28.4-12.4 28.4-27.996 0-7.405-2.88-14.138-7.57-19.144a.665.665 0 0 0-.49-.21zm-6.03 7.206a18.385 18.385 0 0 1 4.56 12.148c0 10.534-8.82 19.007-19.47 18.444-9.5-.502-17.13-8.279-17.46-17.788a18.405 18.405 0 0 1 4.55-12.802.663.663 0 0 0-.03-.9l-5.72-5.735 18.83 13.511c.23.189.53.292.83.292.3 0 .6-.103.83-.292l18.82-13.499-5.71 5.723a.662.662 0 0 0-.03.899v-.001z" fill="#FF6B6B"/></g><circle cx="1265" cy="190" r="50" fill="#fff"/><path fill-rule="evenodd" clip-rule="evenodd" d="M1285.8 186.172c1.26.885 1.9 1.98 1.9 3.25v.63c-.02.981-.37 2.361-1.9 3.516l-.01.003c-.74.529-8.28 5.751-16.26 11.282-7.81 5.41-16.6 11.507-17.68 12.267v.88l-.52-.878c-.02-.045-.05-.083-.02-.144h-.02v-4.592c0-1.566.18-2.319 1.92-3.481 1.46-.936 24.5-16.916 27.56-19.033-3.04-2.108-25.79-17.901-27.34-19.043l-.19-.133c-1.15-.835-2.06-1.492-2.06-3.23V162l.44.307c1.36.947 33.28 23.199 34.18 23.865zm-19.96 6.182c-.79 0-1.57-.275-2.39-.822-2-1.331-12.23-8.445-12.33-8.517l-.12-.083v-3.508c0-.806.35-1.443.96-1.752.65-.333 1.46-.224 2.17.292 1.54.99 16.43 11.319 16.58 11.425l.33.233-.34.23s-1 .67-2.12 1.45c-.96.701-1.85 1.052-2.74 1.052z" fill="#356AE6"/><defs><linearGradient id="paint0_linear" x1="1077" y1="25" x2="1077" y2="77" gradientUnits="userSpaceOnUse"><stop stop-color="#0091E6"/><stop offset="1" stop-color="#0079BF"/></linearGradient><radialGradient id="paint1_radial" cx="0" cy="0" r="1" gradientUnits="userSpaceOnUse" gradientTransform="matrix(37.128 0 0 34.3179 97.008 53.323)"><stop stop-color="#FFB900"/><stop offset=".6" stop-color="#F95D8F"/><stop offset=".999" stop-color="#F95353"/></radialGradient><linearGradient id="paint2_linear" x1="928" y1="301.49" x2="928" y2="360.388" gradientUnits="userSpaceOnUse"><stop stop-color="#00B2FF"/><stop offset="1" stop-color="#006AFF"/></linearGradient><clipPath id="clip0"><path fill="#fff" transform="translate(769 23)" d="M0 0H56V50.333H0z"/></clipPath><clipPath id="clip1"><path fill="#fff" transform="translate(489 22)" d="M0 0H56V56.112H0z"/></clipPath><clipPath id="clip2"><path fill="#fff" transform="translate(210 20)" d="M0 0H52.463V59.32H0z"/></clipPath><clipPath id="clip3"><path fill="#fff" transform="translate(1188 38)" d="M0 0H58V26.819H0z"/></clipPath><clipPath id="clip4"><path fill="#fff" transform="translate(69 25)" d="M0 0H56V51.766H0z"/></clipPath><clipPath id="clip5"><path fill="#fff" transform="translate(482 309)" d="M0 0H81.034V38.54H0z"/></clipPath><clipPath id="clip6"><path fill="#fff" transform="translate(360 305)" d="M0 0H56V51.834H0z"/></clipPath><clipPath id="clip7"><path fill="#fff" transform="translate(1176 303)" d="M0 0H45.808V56H0z"/></clipPath><clipPath id="clip8"><path fill="#fff" transform="translate(1034 315)" d="M0 0H58V34.661H0z"/></clipPath><clipPath id="clip9"><path fill="#fff" transform="translate(769 302)" d="M0 0H47.309V56H0z"/></clipPath><clipPath id="clip10"><path fill="#fff" transform="translate(427 167)" d="M0 0H56V46.592H0z"/></clipPath><clipPath id="clip11"><path fill="#fff" transform="translate(23 161)" d="M0 0H48.78V54H0z"/></clipPath><clipPath id="clip12"><path fill="#fff" transform="translate(290 171)" d="M0 0H60V42H0z"/></clipPath><clipPath id="clip13"><path fill="#fff" transform="translate(968 162)" d="M0 0H54V54H0z"/></clipPath><clipPath id="clip14"><path fill="#fff" transform="translate(1102 168)" d="M0 0H56V47.466H0z"/></clipPath></defs></svg>