<svg width="195" height="117" viewBox="0 0 195 117" fill="none" xmlns="http://www.w3.org/2000/svg">
<g id="Logo">
<g id="Vector" filter="url(#filter0_d_101_1142)">
<path d="M65.9214 91.7735V90.0817L67.541 89.7722V78.765L65.9214 78.4556V76.7534H67.541H70.347H72.1316V78.4556L70.347 78.765V89.6278H74.8138L74.9789 87.3892H77.1246V91.7735H65.9214Z" fill="#D58E0C"/>
<path d="M80.3308 91.7735V90.0817L81.414 89.927L86.2935 76.7534H89.0891L93.9273 89.927L95.0002 90.0817V91.7735H90.0588V90.0817L91.1214 89.8857L90.3889 87.6781H84.9524L84.2199 89.8857L85.2722 90.0817V91.7735H80.3308ZM85.6436 85.5633H89.6977L87.8512 80.2196L87.7068 79.7863H87.6449L87.4901 80.2402L85.6436 85.5633Z" fill="#D58E0C"/>
<path d="M98.2373 91.7735V90.0817L99.8466 89.7722V78.765L98.2373 78.4556V76.7534H99.8466H102.694L109.41 87.4408L109.471 87.4305V78.765L107.563 78.4556V76.7534H111.989H113.608V78.4556L111.989 78.765V91.7735H109.296L102.436 81.1584L102.374 81.1687V89.7722L104.283 90.0817V91.7735H98.2373Z" fill="#D58E0C"/>
<path d="M116.866 91.7735V90.0817L118.496 89.7413V78.796L116.866 78.4556V76.7534H118.496H123.314C124.655 76.7534 125.831 77.0698 126.842 77.7025C127.859 78.3352 128.654 79.2052 129.225 80.3124C129.795 81.4197 130.081 82.692 130.081 84.1294V84.4079C130.081 85.8246 129.799 87.0901 129.235 88.2042C128.678 89.3115 127.894 90.1849 126.883 90.8245C125.879 91.4572 124.706 91.7735 123.365 91.7735H116.866ZM121.302 89.6175H123.221C124.08 89.6175 124.809 89.3905 125.408 88.9366C126.006 88.4827 126.463 87.8638 126.78 87.0798C127.103 86.2957 127.265 85.4051 127.265 84.4079V84.1087C127.265 83.0978 127.103 82.2037 126.78 81.4266C126.463 80.6426 126.006 80.0305 125.408 79.5903C124.809 79.1433 124.08 78.9198 123.221 78.9198H121.302V89.6175Z" fill="#D58E0C"/>
</g>
<g id="Vector_2" filter="url(#filter1_i_101_1142)">
<path d="M137.365 67.4835C137.264 67.2814 137.247 66.995 137.315 66.6244C137.382 66.22 137.416 65.6473 137.416 64.906C137.449 64.1648 137.281 63.7942 136.91 63.7942C136.607 63.7942 136.337 64.1311 136.102 64.805C135.899 65.4451 135.613 65.8663 135.242 66.0684C134.872 66.2369 134.501 66.3717 134.131 66.4727C133.794 66.5401 133.44 66.6244 133.069 66.7254C132.732 66.7928 132.446 66.9444 132.21 67.1803C131.974 67.4161 131.604 67.652 131.098 67.8878C130.593 68.1574 130.003 68.09 129.329 67.6857C128.656 67.315 128.201 66.9781 127.965 66.6749C127.729 66.3717 127.544 66.0853 127.409 65.8157C127.308 65.5462 127.19 65.3103 127.055 65.1082C126.92 64.906 126.701 64.7713 126.398 64.7039C125.724 64.5354 125.269 63.9963 125.034 63.0866C124.798 62.1432 124.562 61.1493 124.326 60.1048C124.09 59.0267 123.922 58.0833 123.821 57.2746C123.753 56.466 123.669 55.6911 123.568 54.9499C123.332 53.1641 123.012 52.1028 122.608 51.7659C122.203 51.3953 121.968 50.8899 121.9 50.2497C121.732 48.6325 121.647 47.4869 121.647 46.8131C121.647 46.1055 121.833 45.3643 122.203 44.5894C122.608 43.7807 122.81 42.989 122.81 42.214C122.81 41.4054 122.742 40.799 122.608 40.3946C122.507 39.9566 122.422 39.6197 122.355 39.3839C122.288 39.1143 122.254 38.8279 122.254 38.5247C122.22 37.9856 122.355 37.177 122.658 36.0988C122.827 35.5261 122.961 35.0038 123.063 34.5321C123.164 34.0267 123.265 33.5887 123.366 33.2181C123.736 31.8704 124.68 31.1966 126.196 31.1966H126.904C127.813 31.1966 128.622 30.9102 129.329 30.3374C129.666 30.1015 130.037 29.9162 130.441 29.7815C130.846 29.6467 131.182 29.6635 131.452 29.832C131.722 29.9668 132.092 30.0173 132.564 29.9836C133.036 29.9162 133.524 29.7309 134.03 29.4277C134.569 29.0908 135.192 28.8718 135.899 28.7707C136.607 28.6359 137.348 28.6696 138.123 28.8718C138.898 29.0402 139.437 29.3435 139.74 29.7815C140.044 30.2195 140.279 30.5059 140.448 30.6406C140.65 30.7417 140.835 30.8428 141.004 30.9439C141.644 31.4156 142.032 32.4263 142.166 33.9762C142.267 35.2902 142.099 36.5368 141.661 37.7161C141.593 37.9519 141.476 38.3225 141.307 38.8279C141.139 39.3333 140.92 39.8724 140.65 40.4452C140.414 40.9843 140.296 41.5065 140.296 42.0119C140.296 42.4836 140.263 42.9384 140.195 43.3764C140.162 43.8144 140.027 44.2188 139.791 44.5894C139.218 45.4991 138.089 45.9202 136.405 45.8528C134.956 45.8528 134.063 45.617 133.726 45.1453C133.558 44.9095 133.457 44.6062 133.423 44.2356C133.423 43.865 133.389 43.3596 133.322 42.7194C133.288 42.0793 133.103 41.4896 132.766 40.9506C132.429 40.4115 131.974 40.2767 131.401 40.5463C131.031 40.7484 130.761 41.4391 130.593 42.6184C130.424 43.7639 130.441 44.9263 130.643 46.1055C130.846 47.2848 130.93 48.0092 130.896 48.2787C130.896 48.5146 130.862 48.7504 130.795 48.9863C130.357 50.5698 130.29 52.8104 130.593 55.7079C130.829 57.8306 131.351 58.9761 132.16 59.1446C132.901 59.2794 133.507 58.8919 133.979 57.9822C134.383 57.1399 134.35 55.4047 133.878 52.7767C133.474 50.7214 133.811 49.6433 134.889 49.5422C135.36 49.4748 135.95 49.458 136.658 49.4916C137.399 49.5253 138.039 49.4748 138.578 49.34C139.151 49.1716 139.74 49.1716 140.347 49.34C140.987 49.4748 141.509 49.7612 141.914 50.1992C142.318 50.6372 142.318 51.4795 141.914 52.7261C141.105 55.2194 140.953 57.3926 141.459 59.2457C141.526 59.5489 141.627 59.9701 141.762 60.5091C141.897 61.0482 142.015 61.6547 142.116 62.3285C142.217 62.9687 142.284 63.6257 142.318 64.2996C142.352 64.9734 142.301 65.5799 142.166 66.119C141.93 67.3656 141.29 67.9889 140.246 67.9889C139.235 67.9889 138.527 67.9552 138.123 67.8878C137.719 67.8204 137.466 67.6857 137.365 67.4835Z" fill="#DBDEFF"/>
<path d="M157.682 60.964L157.732 57.123V55.8596C157.732 54.8488 157.631 54.2086 157.429 53.9391C157.126 53.4674 156.654 53.2484 156.014 53.2821C155.374 53.2821 154.902 53.4674 154.599 53.838C154.329 54.2086 154.161 54.6635 154.093 55.2026C154.06 55.7416 154.026 56.3313 153.992 56.9714C153.992 57.6116 153.992 58.3023 153.992 59.0435C153.925 60.526 153.925 61.6715 153.992 62.4802C154.093 63.2888 154.093 63.811 153.992 64.0469C153.925 64.249 153.757 64.468 153.487 64.7039C153.217 64.906 152.998 65.1924 152.83 65.563C152.662 65.9 152.51 66.2537 152.375 66.6244C151.971 67.5004 151.55 67.9552 151.112 67.9889C149.798 68.1237 148.669 67.4161 147.726 65.8663C147.523 65.4957 147.254 65.1419 146.917 64.805C146.209 64.03 146.075 62.7834 146.513 61.0651C146.681 60.2564 146.765 59.431 146.765 58.5887C146.765 57.7127 146.732 57.0893 146.664 56.7187C146.597 56.3481 146.597 55.9438 146.664 55.5058C146.732 55.0341 146.681 54.6298 146.513 54.2928C146.344 53.9222 146.277 53.4505 146.31 52.8778C146.378 52.305 146.344 51.8164 146.209 51.4121C146.108 50.9741 146.091 50.5867 146.159 50.2497C146.226 49.9128 146.176 49.6433 146.007 49.4411C145.872 49.239 145.822 48.9526 145.856 48.5819C145.923 48.1776 145.974 47.7565 146.007 47.3185C146.108 46.1055 145.957 45.179 145.552 44.5388C145.148 43.8987 144.794 43.1574 144.491 42.3151C144.222 41.4728 144.272 40.462 144.643 39.2828C145.215 37.4971 145.384 35.5261 145.148 33.3697C145.081 32.8306 145.199 32.2073 145.502 31.4998C145.94 30.3879 147.372 29.7646 149.798 29.6298C150.573 29.5962 151.263 29.4951 151.87 29.3266C152.51 29.1581 153.133 29.1581 153.74 29.3266C154.38 29.4614 154.75 29.8488 154.852 30.489C154.953 31.1292 155.037 31.5672 155.104 31.803C155.205 32.0389 155.273 32.2747 155.306 32.5106C155.374 32.9486 155.306 33.6561 155.104 34.6332C154.902 35.5766 154.784 36.3852 154.75 37.0591C154.717 37.6992 154.7 38.3225 154.7 38.929C154.767 40.4115 154.7 41.4728 154.498 42.113C154.329 42.7194 154.279 43.1911 154.346 43.5281C154.414 43.8313 154.548 44.084 154.75 44.2861C155.424 44.8926 156.351 44.8252 157.53 44.084C157.699 43.9829 157.85 43.8144 157.985 43.5786C157.816 42.6352 157.715 41.4728 157.682 40.0914C157.648 38.0362 157.581 36.4358 157.48 35.2902C157.378 34.111 157.395 33.1339 157.53 32.3589C157.665 31.584 158.019 30.8596 158.591 30.1858C159.164 29.5119 159.686 29.2255 160.158 29.3266C160.664 29.394 161.068 29.5962 161.371 29.9331C161.708 30.2363 162.011 30.3711 162.281 30.3374C162.55 30.3037 162.921 30.1352 163.393 29.832C164.639 29.0908 165.802 29.5456 166.88 31.1966C166.543 31.5335 166.442 32.1568 166.577 33.0665C166.745 33.9425 166.779 34.5827 166.678 34.987C166.577 35.3576 166.509 35.8967 166.476 36.6042C166.442 37.2781 166.408 37.9351 166.374 38.5752C166.374 39.2154 166.29 40.0577 166.122 41.1022C165.886 42.551 165.869 44.2188 166.071 46.1055C166.273 47.9923 166.307 49.6938 166.172 51.21C166.037 52.7261 166.004 53.9896 166.071 55.0004C166.139 56.0112 166.105 56.685 165.97 57.0219C165.869 57.3589 165.751 57.6958 165.616 58.0327C165.111 59.0098 164.825 60.0037 164.757 61.0145C164.69 61.8568 164.639 62.6992 164.606 63.5415C164.572 64.3501 164.488 65.0745 164.353 65.7146C164.05 67.1634 163.359 67.8878 162.281 67.8878C161.068 67.8878 160.377 66.9613 160.209 65.1082C159.434 64.8723 158.794 64.468 158.288 63.8952C157.816 63.3225 157.614 62.3454 157.682 60.964Z" fill="#DBDEFF"/>
<path d="M170.872 30.2363C171.647 30.3037 172.321 30.3374 172.894 30.3374C173.5 30.3037 174.393 30.3037 175.573 30.3374C177.527 30.4385 178.908 30.3037 179.717 29.9331C181.368 29.0908 182.699 28.9897 183.709 29.6298C184.181 29.8994 184.636 30.0678 185.074 30.1352C185.512 30.2026 186.135 30.0005 186.944 29.5288C187.82 29.1581 188.544 29.0739 189.117 29.2761C189.69 29.4782 190.111 29.7309 190.38 30.0342C190.65 30.3374 190.818 30.8765 190.886 31.6514C190.987 32.3926 191.004 33.1339 190.936 33.8751C190.903 34.6164 190.835 35.3071 190.734 35.9472C190.532 37.6655 190.448 38.7942 190.482 39.3333C190.549 39.8724 190.616 40.4283 190.684 41.0011C190.785 41.5739 190.818 42.1298 190.785 42.6689C190.717 43.9829 190.178 44.7241 189.167 44.8926C188.426 44.9937 187.887 44.8252 187.55 44.3872C187.213 43.9155 186.927 43.4101 186.691 42.871C186.489 42.2983 186.27 41.7929 186.034 41.3549C185.832 40.9169 185.529 40.7653 185.124 40.9C184.72 41.0011 184.467 41.4391 184.366 42.214C184.265 42.9553 184.232 43.8481 184.265 44.8926C184.299 45.9034 184.366 46.9647 184.467 48.0766C184.568 49.1547 184.636 50.0813 184.67 50.8562C184.703 51.5974 184.737 52.3555 184.771 53.1305C184.838 53.9054 184.872 54.6298 184.872 55.3036C184.872 56.7524 184.67 57.7463 184.265 58.2854C184.063 58.555 183.962 58.875 183.962 59.2457C183.962 59.6163 183.996 60.0037 184.063 60.4081C184.164 60.8124 184.265 61.2167 184.366 61.621C184.467 62.0253 184.518 62.5139 184.518 63.0866C184.518 64.4343 183.911 65.3777 182.699 65.9168C182.261 66.119 181.856 66.4559 181.486 66.9276C181.115 67.3993 180.829 67.7025 180.626 67.8373C180.458 68.0057 180.239 68.0563 179.969 67.9889C179.734 67.9552 179.548 67.8373 179.413 67.6351C179.312 67.4667 179.211 67.2814 179.11 67.0792C178.908 66.5401 178.622 66.1863 178.251 66.0179C177.813 65.9168 177.544 65.5462 177.442 64.906C177.375 64.2659 177.325 63.7099 177.291 63.2382C177.291 62.7329 177.257 62.1264 177.19 61.4188C177.122 60.7113 176.903 60.1385 176.533 59.7005C176.162 59.2625 175.859 58.993 175.623 58.8919C175.387 58.7571 175.236 58.4707 175.168 58.0327C175.101 57.561 175.101 57.0893 175.168 56.6176C175.269 56.1459 175.387 55.6237 175.522 55.0509C175.926 53.4 176.145 51.8501 176.179 50.4014C176.28 47.7059 176.28 45.9202 176.179 45.0442C176.044 43.2922 175.573 42.4162 174.764 42.4162C174.36 42.4499 174.073 42.6352 173.905 42.9721C173.736 43.2754 173.551 43.646 173.349 44.084C172.877 45.1958 172.018 45.4991 170.771 44.9937C170.333 44.7915 170.047 44.4714 169.912 44.0334C169.811 43.5954 169.744 43.09 169.71 42.5173C169.71 41.9108 169.693 41.2875 169.659 40.6473C169.659 39.9735 169.542 39.3502 169.306 38.7774C169.104 38.1709 168.901 37.5982 168.699 37.0591C168.497 36.52 168.413 35.9809 168.447 35.4418C168.48 34.9027 168.598 34.3805 168.8 33.8751C169.036 33.3697 169.104 32.8643 169.002 32.3589C168.935 31.8536 169.036 31.365 169.306 30.8933C169.609 30.3879 170.131 30.1689 170.872 30.2363Z" fill="#DBDEFF"/>
</g>
<g id="Vector_3" filter="url(#filter2_i_101_1142)">
<path d="M15.9198 67.4329C15.785 67.7361 15.5997 67.972 15.3638 68.1405C15.1617 68.3426 14.8584 68.3595 14.4541 68.191C14.0498 68.0562 13.7634 67.8541 13.595 67.5845C13.4602 67.315 13.3423 67.0286 13.2412 66.7254C13.1738 66.3884 13.0896 66.0684 12.9885 65.7651C12.9211 65.4619 12.7695 65.2092 12.5336 65.007C12.0283 64.6364 11.7082 64.131 11.5734 63.4909C11.3713 62.2779 11.2533 60.8292 11.2196 59.1445C11.2196 57.4599 11.2028 56.2975 11.1691 55.6573C11.1354 55.0172 11.068 54.5455 10.9669 54.2422C10.8996 53.939 10.7985 53.7537 10.6637 53.6863C10.5626 53.6189 10.411 53.5347 10.2089 53.4336C9.83824 53.2652 9.5687 52.6755 9.40023 51.6648C9.23177 50.6203 9.18123 49.4074 9.24862 48.026C9.38339 45.4316 9.23177 43.2079 8.79377 41.3548C8.38946 39.6028 8.23784 37.9519 8.33892 36.402C8.44 34.8184 8.59161 33.7066 8.79377 33.0664C9.19808 31.584 9.92247 30.9438 10.9669 31.1459C12.0451 31.3481 12.8874 31.4323 13.4939 31.3986C14.134 31.3649 14.6563 31.2807 15.0606 31.1459C15.4649 31.0112 15.8355 30.8764 16.1725 30.7416C16.5094 30.6069 16.9474 30.5563 17.4865 30.59C18.0592 30.59 18.5646 30.6742 19.0026 30.8427C19.4743 30.9775 19.946 31.1123 20.4177 31.247C21.6644 31.6513 22.6414 31.8366 23.349 31.803C24.0565 31.7693 24.6125 31.7356 25.0168 31.7019C25.4211 31.6345 25.7749 31.6008 26.0781 31.6008C26.7182 31.6008 27.2405 31.7693 27.6448 32.1062C28.0828 32.4431 28.3355 32.8137 28.4029 33.218C28.4703 33.6224 28.4871 34.0435 28.4534 34.4815C28.386 35.3238 28.2344 36.0314 27.9986 36.6042C27.7627 37.1432 27.6279 37.5981 27.5943 37.9687C27.5943 38.3393 27.6111 38.7099 27.6448 39.0806C27.6785 39.4175 27.7122 39.7544 27.7459 40.0913C27.7796 40.4283 27.7459 40.7989 27.6448 41.2032C27.5774 41.5738 27.3753 41.9613 27.0383 42.3656C26.7014 42.7362 26.3139 43.0731 25.8759 43.3764C24.8988 43.9828 24.1071 44.2018 23.5006 44.0334C22.8941 43.8649 22.4393 43.7301 22.136 43.6291C21.8665 43.4943 21.597 43.3932 21.3274 43.3258C20.7547 43.1574 20.1987 43.1405 19.6596 43.2753C19.1206 43.4101 18.7499 43.6628 18.5478 44.0334C18.3456 44.404 18.2614 44.7915 18.2951 45.1958C18.3625 45.6001 18.5646 45.9707 18.9016 46.3076C19.2385 46.6109 19.6933 46.7793 20.2661 46.813C20.8726 46.8467 21.3611 46.8467 21.7317 46.813C22.1024 46.7793 22.4056 46.7625 22.6414 46.7625C23.1468 46.7625 23.6017 46.9815 24.006 47.4195C24.6125 48.127 24.5619 49.1883 23.8544 50.6034C23.6859 50.9741 23.5343 51.4626 23.3995 52.0691C23.2984 52.6755 23.1637 53.282 22.9952 53.8885C22.8267 54.4612 22.6077 54.9498 22.3382 55.3541C22.1024 55.7247 21.816 55.8763 21.479 55.809C21.1421 55.7416 20.9063 55.6405 20.7715 55.5057C20.6704 55.3709 20.5525 55.253 20.4177 55.1519C20.1482 54.8824 19.8449 54.7982 19.508 54.8993C18.9689 55.034 18.6489 55.5226 18.5478 56.3649C18.4804 57.1735 18.4636 57.9821 18.4972 58.7908C18.5309 59.5994 18.5646 60.2901 18.5983 60.8629C18.6657 61.4356 18.6657 62.0084 18.5983 62.5812C18.4972 63.8952 17.9919 64.8891 17.0822 65.563C16.7789 65.7651 16.5431 66.0515 16.3746 66.4221C16.2398 66.7591 16.0882 67.096 15.9198 67.4329Z" fill="#DBDEFF"/>
<path d="M43.7667 31.3986L45.384 31.2976C46.5295 31.2976 47.3381 31.4829 47.8098 31.8535C48.3152 32.2241 48.6858 32.561 48.9217 32.8643C49.1912 33.1675 49.4271 33.4876 49.6292 33.8245C49.8314 34.1277 50.1009 34.4478 50.4379 34.7848C50.8085 35.1217 50.9938 35.526 50.9938 35.9977C50.9938 36.4357 51.1117 36.7895 51.3476 37.059C51.6171 37.3285 51.7519 37.7665 51.7519 38.373C51.7519 38.9795 51.735 39.5691 51.7013 40.1419C51.7013 40.681 51.6508 41.1358 51.5497 41.5064C51.4486 41.8434 51.3981 42.1971 51.3981 42.5677C51.3981 42.9047 51.4655 43.2248 51.6003 43.528C51.7687 43.7975 51.7856 44.4882 51.6508 45.6001C51.5497 46.6782 51.3644 47.7733 51.0949 48.8851C50.859 49.997 50.5389 50.9572 50.1346 51.7658C49.326 53.282 48.012 54.4781 46.1926 55.3541C46.361 55.7584 46.5464 56.2133 46.7485 56.7187C46.9844 57.1903 47.2034 57.6789 47.4055 58.1843C47.8435 59.4309 48.0625 60.3406 48.0625 60.9134C48.0625 61.4525 48.0794 61.8568 48.1131 62.1263C48.1805 62.3622 48.2478 62.5475 48.3152 62.6823C48.3826 62.817 48.4668 62.9181 48.5679 62.9855C48.7027 63.0529 48.888 63.1876 49.1238 63.3898C49.3597 63.5583 49.545 63.8615 49.6798 64.2995C49.8145 64.7375 49.8819 65.1923 49.8819 65.664C49.8819 66.7422 49.7472 67.4161 49.4776 67.6856C49.2418 67.9215 48.9722 68.0731 48.669 68.1405C48.3995 68.2415 48.1131 68.3089 47.8098 68.3426C47.0349 68.4437 46.5464 68.3426 46.3442 68.0394C46.0747 67.7698 45.923 67.5003 45.8894 67.2308C45.8894 66.9275 45.8388 66.6748 45.7377 66.4727C45.6367 66.2368 45.485 66.1021 45.2829 66.0684C45.0807 66.001 44.9291 65.782 44.828 65.4114C44.7606 65.0407 44.6427 64.8049 44.4743 64.7038C44.3395 64.569 44.0363 64.5353 43.5646 64.6027C42.7222 64.7712 42.0989 64.2658 41.6946 63.0866C41.5935 62.817 41.4925 62.4632 41.3914 62.0252C41.2903 61.5872 41.1724 61.1661 41.0376 60.7618C40.7681 59.7847 40.448 59.2624 40.0774 59.1951C39.7404 59.094 39.4878 59.1277 39.3193 59.2961C39.1508 59.4646 39.0161 59.7005 38.915 60.0037C38.8476 60.2732 38.8139 60.5933 38.8139 60.9639C38.8139 61.3008 38.8476 61.6715 38.915 62.0758C39.0161 62.4801 39.0329 62.817 38.9655 63.0866C38.8981 63.3561 38.7971 63.5751 38.6623 63.7436C38.5612 63.912 38.4433 64.0636 38.3085 64.1984C38.039 64.3669 37.8705 64.7038 37.8031 65.2092C37.7694 65.7146 37.702 66.1526 37.601 66.5232C37.3988 67.4329 37.1293 68.0057 36.7923 68.2415C36.4554 68.4774 36.1185 68.6122 35.7816 68.6458C35.4446 68.7132 35.1077 68.7132 34.7708 68.6458C33.9285 68.4774 33.4062 68.1741 33.2041 67.7361C33.0019 67.3318 32.884 67.0286 32.8503 66.8264C32.8166 66.5906 32.7998 66.3716 32.7998 66.1694C32.8335 65.9673 32.8672 65.7483 32.9008 65.5124C32.9345 65.2766 32.9345 65.007 32.9008 64.7038C32.9008 64.3669 32.8335 63.9289 32.6987 63.3898C32.5639 62.8507 32.4797 62.2106 32.446 61.4693L32.3955 60.1553C32.3955 60.0205 32.5134 59.8015 32.7492 59.4983C32.9851 59.1614 33.0525 58.7908 32.9514 58.3864C32.884 57.9484 32.6987 57.6789 32.3955 57.5778C32.0922 57.443 31.9406 57.2914 31.9406 57.123C31.9406 56.9545 31.9743 56.5333 32.0417 55.8595C32.1091 55.1856 32.0754 54.3433 31.9406 53.3325C31.8395 52.3218 31.7721 51.4289 31.7384 50.654C31.6037 48.9693 31.3004 48.026 30.8287 47.8238C30.3907 47.5879 30.138 47.3184 30.0707 47.0152C30.0033 46.6782 30.0033 46.3076 30.0707 45.9033C30.138 45.499 30.2054 44.9936 30.2728 44.3871C30.3739 43.7807 30.475 43.1742 30.5761 42.5677C30.6771 41.9276 30.7614 41.338 30.8287 40.7989C30.9298 40.2598 30.9972 39.8892 31.0309 39.687C31.0646 39.4849 31.0646 39.2996 31.0309 39.1311C31.0309 38.9289 31.0309 38.7436 31.0309 38.5752C30.9635 38.0361 30.9635 37.5644 31.0309 37.1601C31.1657 36.3851 31.1994 35.8461 31.132 35.5428C31.0646 35.2059 31.1151 34.7174 31.2836 34.0772C31.4858 33.4034 31.6542 32.9317 31.789 32.6621C31.9238 32.3926 32.1765 32.1904 32.5471 32.0556C32.9177 31.9209 33.2715 31.7356 33.6084 31.4997C33.979 31.2302 34.3159 30.9775 34.6192 30.7416C34.9224 30.4721 35.1919 30.2362 35.4278 30.0341C35.6636 29.7982 35.95 29.6298 36.287 29.5287C37.264 29.3265 37.9716 29.3097 38.4096 29.4782C38.8813 29.6129 39.2182 29.7645 39.4204 29.933C39.6225 30.1015 39.8584 30.2699 40.1279 30.4384C40.4311 30.6069 40.7344 30.7416 41.0376 30.8427C41.3745 30.9101 41.6778 30.9438 41.9473 30.9438C42.6549 31.0112 43.076 31.1123 43.2108 31.247C43.3792 31.3481 43.5646 31.3986 43.7667 31.3986ZM39.572 45.499L39.8752 50.0981C39.8752 50.4013 39.8584 50.7045 39.8247 51.0078C39.791 51.2773 39.7573 51.53 39.7236 51.7658C39.6899 52.2712 39.8752 52.5745 40.2795 52.6755C40.6165 52.7429 40.886 52.6587 41.0882 52.4228C41.2903 52.1533 41.4756 51.7995 41.6441 51.3615C42.0484 50.5192 42.1832 49.9801 42.0484 49.7443C41.7788 49.4074 41.6946 49.121 41.7957 48.8851C41.9305 48.6156 42.1832 48.1102 42.5538 47.3689C42.9581 46.6277 43.2445 45.9876 43.4129 45.4485C43.6151 44.9094 43.6656 44.3366 43.5646 43.7301C43.4635 43.09 43.4129 42.652 43.4129 42.4161V41.8602C43.4129 41.5907 43.2782 41.3548 43.0086 41.1527C42.7728 40.9168 42.6043 40.7989 42.5032 40.7989C42.4022 40.7652 42.3179 40.7483 42.2505 40.7483C41.9473 40.8157 41.6609 40.7989 41.3914 40.6978C41.1218 40.563 40.8691 40.5125 40.6333 40.5462C40.3974 40.5462 40.1279 40.6978 39.8247 41.001C39.5214 41.3043 39.353 41.6244 39.3193 41.9613C39.2856 42.2645 39.2856 42.6183 39.3193 43.0226C39.4878 44.2355 39.572 45.061 39.572 45.499Z" fill="#DBDEFF"/>
<path d="M66.5092 39.7881C65.3637 40.0913 65.1447 42.0455 65.8522 45.6506C66.0881 46.6277 66.206 47.4532 66.206 48.127C66.2397 48.7672 66.1555 49.4747 65.9533 50.2497C65.7512 51.0246 65.6501 51.6479 65.6501 52.1196C65.6501 52.5913 65.5827 53.1472 65.4479 53.7874C65.4816 54.4949 65.4648 55.2193 65.3974 55.9606C65.3637 56.6681 65.33 57.3588 65.2963 58.0327C65.1952 59.6836 65.1784 60.6607 65.2458 60.9639C65.3131 61.2672 65.4142 61.4693 65.549 61.5704C65.7175 61.6378 65.9028 61.7052 66.1049 61.7725C66.5766 61.941 66.863 62.16 66.9641 62.4296C67.0652 62.6991 67.0989 63.0866 67.0652 63.592C67.0652 64.0636 67.0146 64.569 66.9136 65.1081C66.6103 66.3884 66.1892 67.2139 65.6501 67.5845C65.3468 67.7867 65.0268 67.8541 64.6898 67.7867C64.3866 67.7193 64.0497 67.6519 63.6791 67.5845C62.5335 67.3824 61.5564 67.4834 60.7478 67.8878C58.7599 68.9659 57.2269 68.9659 56.1488 67.8878C55.7108 67.4498 55.4412 66.7759 55.3401 65.8662C55.2054 64.2153 55.2896 63.1539 55.5928 62.6823C55.9298 62.2106 56.1993 61.9242 56.4014 61.8231C56.6373 61.6883 56.8395 61.5704 57.0079 61.4693C57.3785 61.3009 57.5638 61.0145 57.5638 60.6102C57.5638 60.3069 57.5975 59.9868 57.6649 59.6499C57.766 59.2793 57.8502 58.8918 57.9176 58.4875C58.0861 57.5104 58.0019 56.7018 57.6649 56.0616C57.2943 55.3204 57.1258 54.7139 57.1595 54.2422C57.2269 53.7705 57.2775 53.3494 57.3111 52.9788L57.5133 51.7658C57.5807 50.7887 57.5638 49.9633 57.4628 49.2894C57.3617 48.5819 57.2775 47.8575 57.2101 47.1163C57.1764 46.3413 57.1595 45.6169 57.1595 44.9431C57.1932 44.2692 57.2101 43.6291 57.2101 43.0226C57.2101 41.6075 57.0585 40.7652 56.7552 40.4957C56.4857 40.2261 56.233 40.0913 55.9971 40.0913C55.7613 40.0576 55.5254 40.0408 55.2896 40.0408C54.6494 40.1082 54.2451 40.0071 54.0767 39.7376C53.706 39.3669 53.5207 38.8953 53.5207 38.3225C53.5207 37.7497 53.6218 37.3117 53.824 37.0085C54.0598 36.7052 54.2114 36.3683 54.2788 35.9977C54.3462 35.5934 54.3799 35.1722 54.3799 34.7342C54.4473 33.7234 54.4136 33.0664 54.2788 32.7632C54.144 32.4263 54.043 32.1399 53.9756 31.904C53.9419 31.6345 53.925 31.3818 53.925 31.1459C53.925 30.1689 54.6157 29.6635 55.9971 29.6298C56.8395 29.5961 57.6986 29.6129 58.5746 29.6803C59.4506 29.714 60.1413 29.6803 60.6467 29.5792C62.3987 29.2423 63.797 29.1075 64.8414 29.1749C65.9196 29.2423 66.6103 29.3265 66.9136 29.4276C67.7559 29.7645 68.2107 30.6911 68.2781 32.2073C68.3118 32.9148 68.3286 33.656 68.3286 34.431C68.3286 35.2059 68.3623 35.9977 68.4297 36.8063C68.5645 38.4909 67.9243 39.4849 66.5092 39.7881Z" fill="#DBDEFF"/>
</g>
<g id="Group">
<g id="Vector_4" filter="url(#filter3_i_101_1142)">
<path d="M113.629 47.7559C113.597 47.7396 113.466 47.6581 113.352 47.6798C113.33 47.6798 113.298 47.7015 113.26 47.7233C113.26 47.4244 113.26 47.0876 113.211 46.7236C113.189 46.5225 113.151 46.3106 113.102 46.0933C113.102 46.0933 113.108 46.0988 113.113 46.0988C113.162 46.1151 113.211 46.1205 113.265 46.1151C113.309 46.1151 113.347 46.0988 113.39 46.0933C113.417 46.0879 113.45 46.0825 113.477 46.0933H113.482C113.482 46.0933 113.461 46.0281 113.428 45.9738C113.396 45.9195 113.352 45.8597 113.298 45.8217C113.243 45.7836 113.064 45.7565 113.048 45.8597C113.026 45.7673 112.993 45.6804 112.966 45.588L112.765 37.873C112.765 37.873 112.787 37.873 112.792 37.873L114.618 36.1996C114.64 36.1941 114.661 36.1833 114.683 36.1778C114.716 36.167 114.754 36.1507 114.786 36.1398C114.803 36.1344 114.819 36.1289 114.835 36.1235C114.873 36.1072 114.906 36.0963 114.944 36.0855C114.955 36.0855 114.966 36.0746 114.982 36.0746C115.025 36.0583 115.064 36.042 115.102 36.0311C115.102 36.0311 115.112 36.0311 115.118 36.0257C115.254 35.9714 115.368 35.9279 115.466 35.8899C115.493 35.879 115.525 35.8681 115.547 35.8573C115.547 35.8573 115.553 35.8573 115.558 35.8573C115.58 35.8464 115.601 35.8355 115.623 35.8301C115.623 35.8301 115.629 35.8301 115.634 35.8301C115.656 35.8192 115.672 35.8138 115.683 35.8084C115.683 35.8084 115.683 35.8084 115.688 35.8084C115.699 35.8029 115.71 35.7975 115.721 35.7921C115.721 35.7921 115.726 35.7921 115.732 35.7921C115.737 35.7921 115.743 35.7921 115.743 35.7866C115.754 35.7866 115.759 35.7812 115.759 35.7812C115.677 35.7106 115.601 35.6345 115.525 35.5639C115.525 35.5476 115.536 35.5313 115.542 35.515C115.542 35.5041 115.542 35.4987 115.542 35.4878C115.542 35.4715 115.542 35.4498 115.542 35.4335C115.542 35.4226 115.542 35.4172 115.542 35.4063C115.542 35.3846 115.536 35.3683 115.531 35.352C115.531 35.3465 115.531 35.3357 115.525 35.3302C115.525 35.3302 115.525 35.3302 115.525 35.3248C115.509 35.2759 115.482 35.227 115.449 35.1781C115.449 35.1781 115.449 35.1727 115.444 35.1673C115.444 35.1618 115.438 35.1564 115.433 35.151C115.379 35.0803 115.319 35.0151 115.254 34.9554C115.243 34.9554 115.237 34.9499 115.227 34.9445C115.08 34.8793 114.911 34.825 114.727 34.7815C114.738 34.7598 114.743 34.738 114.748 34.7163C114.748 34.7163 114.748 34.6946 114.748 34.6837C114.738 34.6294 114.716 34.5805 114.683 34.5316C114.656 34.4935 114.629 34.4609 114.602 34.4283C114.58 34.4066 114.558 34.3794 114.558 34.3523C114.558 34.3523 114.493 34.4392 114.46 34.5153C114.314 34.3631 114.172 34.2056 114.031 34.048C114.004 34.0209 113.982 33.9883 113.955 33.9611C113.798 33.7818 113.645 33.6025 113.493 33.4178C113.466 33.3852 113.439 33.3526 113.412 33.32C113.265 33.1407 113.118 32.9614 112.977 32.7767C112.95 32.7441 112.923 32.706 112.896 32.6734C112.754 32.4941 112.619 32.3148 112.488 32.1301C112.461 32.0975 112.439 32.0595 112.412 32.0269C112.282 31.8422 112.151 31.6629 112.026 31.4781C112.005 31.4455 111.983 31.4129 111.961 31.3803C111.836 31.1956 111.711 31.0109 111.592 30.8262C111.575 30.799 111.559 30.7718 111.543 30.7447C111.423 30.5545 111.304 30.3643 111.184 30.1796C111.173 30.1633 111.163 30.147 111.152 30.1307C111.038 29.9406 110.923 29.7504 110.815 29.5657C110.815 29.5602 110.804 29.5494 110.799 29.5385C110.69 29.3483 110.581 29.1582 110.478 28.968C110.467 28.9517 110.462 28.9354 110.451 28.9191C110.348 28.7344 110.255 28.5551 110.157 28.3812C110.147 28.3649 110.136 28.3432 110.125 28.3269C110.032 28.1531 109.945 27.9792 109.859 27.8108C109.848 27.7945 109.842 27.7782 109.831 27.7564C109.744 27.588 109.663 27.4196 109.587 27.2566C109.581 27.2403 109.576 27.2294 109.565 27.2131C109.484 27.0447 109.408 26.8871 109.337 26.7296C109.337 26.7241 109.332 26.7187 109.326 26.7078C109.25 26.5448 109.179 26.3873 109.114 26.2351C109.054 26.0993 109 25.9744 108.946 25.8494C108.821 25.556 108.712 25.2898 108.62 25.0562C108.527 25.2898 108.419 25.5506 108.299 25.844C108.115 26.2786 107.892 26.773 107.636 27.3109C107.653 27.2674 107.664 27.224 107.674 27.1751L107.664 27.1642C107.664 27.1642 107.653 27.1751 107.631 27.1914C107.609 27.2131 107.582 27.2403 107.539 27.2783C107.484 27.3326 107.414 27.4033 107.338 27.4956C107.332 27.425 107.294 27.3381 107.267 27.3C107.213 27.2348 107.131 27.1968 107.05 27.1696C106.979 27.1479 106.914 27.137 106.887 27.1316H106.881V27.1425C106.908 27.1751 106.908 27.2131 106.908 27.2511C106.908 27.3055 106.908 27.3598 106.914 27.4141C106.925 27.4848 106.946 27.5445 106.984 27.5989C106.995 27.6097 107.006 27.6206 107.017 27.626C107.06 27.6641 107.115 27.6804 107.175 27.6912C107.06 27.8379 106.93 28.0118 106.811 28.2291C106.669 28.4736 106.533 28.767 106.441 29.1039C106.392 29.2723 106.365 29.4516 106.349 29.6417C106.349 29.6743 106.349 29.7015 106.349 29.7341C106.322 29.783 106.289 29.8373 106.262 29.8862C106.224 29.8645 106.191 29.8536 106.164 29.8482C106.083 29.8373 105.99 29.8645 105.92 29.8971C105.843 29.9351 105.789 29.9786 105.773 29.9949H105.784C105.822 30.0058 105.849 30.0384 105.876 30.071C105.914 30.109 105.952 30.1579 105.996 30.1905C106.017 30.2068 106.039 30.2177 106.061 30.234C105.05 31.8748 103.763 33.6188 102.176 35.1673C101.959 35.3791 101.736 35.5856 101.508 35.7921C101.508 35.7921 101.97 35.9985 102.703 36.2648L104.632 37.7317C104.632 37.7317 104.643 37.7317 104.67 37.7371V37.748L104.556 37.71C104.556 37.71 104.55 37.7263 104.545 37.7589C104.545 37.7752 104.545 37.7969 104.54 37.8186C104.54 37.8404 104.54 37.8675 104.54 37.9001C104.54 37.9871 104.561 38.0957 104.605 38.2261C104.599 38.2261 104.588 38.2153 104.583 38.2153C104.523 38.1881 104.447 38.1718 104.409 38.1718C104.333 38.1827 104.257 38.2316 104.197 38.2967C104.148 38.3565 104.11 38.4271 104.099 38.4489V38.4543H104.11C104.148 38.4543 104.186 38.476 104.219 38.5086C104.268 38.5412 104.317 38.5793 104.377 38.601C104.447 38.6227 104.512 38.6336 104.572 38.6173C104.583 38.6119 104.599 38.6064 104.61 38.5956C104.61 38.5956 104.637 38.5684 104.654 38.5575L104.371 47.4081C104.371 47.4081 104.371 47.3647 104.366 47.343C104.328 47.3701 104.29 47.4027 104.257 47.4353C104.241 47.4516 104.224 47.4679 104.208 47.4842C104.208 47.4842 104.208 47.4842 104.203 47.4896C104.186 47.5114 104.17 47.5277 104.159 47.5548C104.148 47.5766 104.137 47.5983 104.132 47.62C104.132 47.62 104.121 47.6472 104.116 47.6635C104.099 47.707 104.089 47.7559 104.078 47.8048C104.078 47.8156 104.078 47.8319 104.078 47.8428C104.029 47.783 103.953 47.7287 103.904 47.7178C103.822 47.7015 103.735 47.7178 103.659 47.7559C103.589 47.783 103.534 47.8211 103.507 47.8374H103.513C103.551 47.8537 103.572 47.8863 103.594 47.9243C103.627 47.9678 103.659 48.0221 103.697 48.0656C103.746 48.1199 103.801 48.1634 103.86 48.1851C103.877 48.1851 103.888 48.1851 103.904 48.1851C103.958 48.1851 104.012 48.1688 104.061 48.1362C104.056 48.3535 104.051 48.6089 104.067 48.8968C104.083 49.2283 104.121 49.6031 104.208 49.9998C104.23 50.1084 104.257 50.2171 104.29 50.3258L104.273 50.918C104.203 50.9451 104.143 50.9995 104.099 51.0592C104.051 51.119 104.023 51.1842 104.007 51.2114C104.007 51.2114 104.007 51.2114 104.007 51.2168H104.018C104.056 51.2114 104.089 51.2331 104.132 51.2548C104.175 51.2766 104.219 51.2983 104.262 51.32L104.116 55.9165C104.116 55.9165 104.099 55.9273 104.094 55.9382C104.094 55.7806 104.099 55.6339 104.11 55.5035C104.11 55.4383 104.121 55.3786 104.127 55.3242C104.127 55.1558 104.137 54.9874 104.132 54.819C104.099 54.819 104.061 54.8353 104.029 54.8516C104.007 54.8624 103.985 54.8733 103.969 54.8842C103.969 54.8842 103.958 54.8896 103.958 54.895C103.942 54.9059 103.926 54.9222 103.915 54.9385C103.915 54.9439 103.904 54.9494 103.904 54.9548C103.888 54.9765 103.877 55.0037 103.871 55.0309C103.871 55.0635 103.86 55.1069 103.844 55.1341C103.844 55.1776 103.833 55.2319 103.828 55.2862C103.779 55.2265 103.708 55.1721 103.659 55.1613C103.583 55.1395 103.491 55.1613 103.415 55.1884C103.344 55.2156 103.29 55.2482 103.268 55.2645H103.274C103.312 55.2808 103.333 55.3134 103.355 55.3514C103.388 55.3949 103.415 55.4492 103.453 55.4927C103.502 55.547 103.556 55.585 103.616 55.6122C103.632 55.6122 103.643 55.6122 103.659 55.6122C103.714 55.6122 103.768 55.6013 103.817 55.5742C103.79 56.0251 103.79 56.6445 103.909 57.3671C103.947 57.5953 103.996 57.8344 104.061 58.0789V58.2636C104.002 58.2473 103.953 58.2364 103.915 58.2419C103.833 58.2527 103.757 58.307 103.697 58.3614C103.638 58.4157 103.594 58.4755 103.583 58.4972H103.594C103.632 58.4972 103.665 58.5189 103.697 58.5461C103.746 58.5787 103.79 58.6113 103.844 58.6385C103.909 58.6711 103.974 58.6874 104.034 58.6819C104.034 58.6819 104.04 58.6819 104.045 58.6819L103.784 66.924H104.789L110.809 66.9458H112.581L113.586 66.9512L113.575 66.4948C113.575 66.4948 113.602 66.4514 113.613 66.4242C113.613 66.4133 113.618 66.4079 113.624 66.397C113.629 66.3699 113.64 66.3481 113.64 66.321C113.64 66.321 113.64 66.3155 113.64 66.3101C113.651 66.2395 113.64 66.1688 113.624 66.0982C113.613 66.0493 113.591 66.0058 113.564 65.9678L113.553 65.9569L113.406 60.3064C113.406 60.3173 113.406 60.3282 113.406 60.3445C113.412 60.426 113.417 60.4803 113.417 60.5129C113.434 60.502 113.444 60.4912 113.461 60.4803C113.472 60.4694 113.482 60.4586 113.488 60.4423C113.488 60.4423 113.488 60.4369 113.493 60.4314C113.499 60.4206 113.504 60.4097 113.515 60.3988C113.515 60.3934 113.526 60.3825 113.526 60.3771C113.526 60.3662 113.531 60.3554 113.537 60.3499C113.537 60.3391 113.548 60.3282 113.553 60.3173C113.58 60.2413 113.597 60.1652 113.607 60.1109C113.607 60.1109 113.607 60.1 113.607 60.0891C113.607 60.0891 113.607 60.0891 113.607 60.0783C113.624 59.9859 113.629 59.8772 113.618 59.774C113.618 59.7631 113.613 59.7523 113.607 59.736C113.591 59.6762 113.575 59.611 113.559 59.5458C113.548 59.5132 113.542 59.4806 113.531 59.4426C113.521 59.41 113.51 59.3719 113.493 59.3394C113.472 59.285 113.45 59.2198 113.428 59.1601C113.45 59.1601 113.472 59.1492 113.493 59.1383C113.493 59.1383 113.515 59.1275 113.521 59.1166C113.553 59.0731 113.586 59.0188 113.597 58.959C113.607 58.9101 113.613 58.8612 113.624 58.8123C113.624 58.7743 113.635 58.7417 113.656 58.72C113.624 58.7091 113.461 58.6874 113.358 58.7634C113.358 58.7634 113.358 58.7634 113.352 58.7689L113.102 49.1087C113.113 49.1576 113.124 49.2011 113.14 49.25C113.14 49.25 113.151 49.1902 113.167 49.0707C113.178 49.0109 113.189 48.9403 113.205 48.8588C113.216 48.7719 113.227 48.6795 113.243 48.5654C113.26 48.4133 113.276 48.234 113.287 48.033C113.309 48.033 113.33 48.0438 113.352 48.0438C113.352 48.0438 113.374 48.0438 113.385 48.0438C113.434 48.0221 113.477 47.9949 113.515 47.9515C113.548 47.9189 113.569 47.8808 113.597 47.8428C113.613 47.8156 113.635 47.7885 113.662 47.7776H113.667C113.667 47.7776 113.667 47.7776 113.667 47.7722L113.629 47.7559ZM115.237 35.2542C115.335 35.3139 115.406 35.3791 115.449 35.428C115.46 35.4443 115.471 35.4661 115.482 35.4769C115.4 35.4009 115.319 35.3248 115.237 35.2487V35.2542ZM107.131 28.2563C107.131 28.2563 107.131 28.2563 107.131 28.2617C107.05 28.4193 106.963 28.5823 106.87 28.7453C106.93 28.5986 107.001 28.4627 107.071 28.3432C107.088 28.3106 107.109 28.2834 107.126 28.2563H107.131ZM104.056 56.3511C104.056 56.2805 104.056 56.2153 104.056 56.1501C104.056 56.1501 104.056 56.1501 104.061 56.1555V56.3457L104.056 56.3511ZM104.333 47.419V47.4896C104.333 47.4896 104.333 47.4733 104.333 47.4625C104.333 47.4462 104.333 47.4353 104.333 47.419Z" fill="#4F1EE4"/>
</g>
<g id="Vector_5" filter="url(#filter4_i_101_1142)">
<path d="M105.719 36.7801C105.67 36.7529 105.458 36.6225 105.273 36.6606C105.235 36.666 105.181 36.6932 105.126 36.7312C105.132 36.2476 105.126 35.7043 105.05 35.1175C105.012 34.7916 104.952 34.4547 104.871 34.107C104.876 34.107 104.882 34.1124 104.887 34.1178C104.963 34.145 105.045 34.1504 105.132 34.145C105.202 34.1396 105.268 34.1178 105.333 34.1124C105.382 34.1015 105.425 34.0961 105.469 34.1124H105.479C105.479 34.1124 105.441 34.0092 105.393 33.9222C105.344 33.8353 105.273 33.7375 105.186 33.6778C105.094 33.618 104.811 33.5745 104.779 33.7375C104.741 33.5908 104.692 33.4441 104.648 33.2974L104.322 20.8827C104.322 20.8827 104.355 20.8827 104.371 20.8827L107.305 18.1878C107.305 18.1878 107.305 18.1878 107.31 18.1878C107.343 18.177 107.381 18.1607 107.414 18.1498C107.468 18.1281 107.522 18.1118 107.577 18.09C107.604 18.0792 107.631 18.0683 107.658 18.0629C107.718 18.0411 107.778 18.0194 107.832 17.9977C107.854 17.9922 107.87 17.9814 107.892 17.9759C107.957 17.9488 108.022 17.927 108.082 17.9053C108.087 17.9053 108.098 17.8999 108.104 17.8944C108.321 17.8075 108.506 17.7369 108.663 17.6717C108.712 17.65 108.756 17.6337 108.799 17.6174C108.805 17.6174 108.81 17.6174 108.815 17.6119C108.853 17.5956 108.886 17.5848 108.919 17.5685C108.919 17.5685 108.93 17.5685 108.935 17.563C108.968 17.5522 108.995 17.5359 109.016 17.525C109.016 17.525 109.022 17.525 109.027 17.525C109.049 17.5141 109.065 17.5087 109.082 17.5033C109.087 17.5033 109.093 17.5033 109.098 17.4978C109.109 17.4978 109.114 17.4924 109.12 17.487C109.136 17.4815 109.147 17.4761 109.147 17.4761C109.016 17.362 108.897 17.2425 108.772 17.1284C108.783 17.1012 108.788 17.074 108.794 17.0469C108.794 17.0306 108.794 17.0197 108.794 17.0034C108.794 16.9762 108.794 16.9436 108.794 16.9165C108.794 16.9002 108.794 16.8893 108.794 16.873C108.794 16.8458 108.783 16.8132 108.772 16.7861C108.772 16.7752 108.767 16.7643 108.761 16.7481C108.761 16.7481 108.761 16.7426 108.761 16.7372C108.734 16.6557 108.69 16.5796 108.642 16.5036C108.642 16.5036 108.642 16.5036 108.642 16.4981C108.642 16.4981 108.636 16.4873 108.631 16.4818C108.625 16.471 108.614 16.4601 108.609 16.4547C108.522 16.3406 108.424 16.2319 108.316 16.1395C108.299 16.1341 108.288 16.1287 108.278 16.1232C108.038 16.02 107.767 15.9331 107.473 15.857C107.49 15.8244 107.501 15.7864 107.506 15.7538C107.506 15.7538 107.506 15.7158 107.506 15.6995C107.49 15.618 107.457 15.5365 107.408 15.4604C107.365 15.4006 107.316 15.3463 107.272 15.292C107.234 15.2539 107.207 15.2105 107.202 15.167V15.1561H107.196C107.169 15.1887 107.088 15.292 107.039 15.4224C106.805 15.1724 106.577 14.9279 106.349 14.6726C106.305 14.6237 106.267 14.5802 106.224 14.5368C105.968 14.2488 105.724 13.9608 105.479 13.6675C105.436 13.6131 105.393 13.5642 105.349 13.5099C105.11 13.2219 104.882 12.9285 104.654 12.6406C104.61 12.5863 104.567 12.5265 104.523 12.4722C104.3 12.1788 104.083 11.8908 103.866 11.5974C103.822 11.5431 103.784 11.4833 103.746 11.429C103.534 11.1356 103.328 10.8422 103.127 10.5488C103.089 10.4999 103.056 10.4456 103.024 10.3967C102.823 10.0979 102.622 9.79905 102.431 9.50566C102.404 9.46219 102.377 9.41873 102.35 9.37526C102.154 9.071 101.964 8.76675 101.779 8.46793C101.763 8.44076 101.747 8.41359 101.731 8.38643C101.546 8.07674 101.361 7.77248 101.187 7.47366C101.182 7.46279 101.171 7.44649 101.166 7.43563C100.986 7.12594 100.812 6.82168 100.649 6.52286C100.633 6.49569 100.622 6.46852 100.606 6.44136C100.443 6.14797 100.285 5.86001 100.139 5.57205C100.122 5.53945 100.106 5.51229 100.09 5.47969C99.9431 5.19717 99.7964 4.92008 99.6606 4.64842C99.6443 4.62125 99.6334 4.59409 99.6171 4.56149C99.4813 4.28983 99.3454 4.01817 99.2205 3.75738C99.2096 3.73565 99.1987 3.71392 99.1879 3.69218C99.0575 3.42596 98.9379 3.16517 98.8239 2.90981C98.8239 2.89894 98.813 2.88808 98.8076 2.87721C98.688 2.61642 98.5739 2.36106 98.4653 2.122C98.3729 1.91011 98.2805 1.69822 98.1936 1.50262C97.9926 1.02994 97.8187 0.600718 97.672 0.22583C97.672 0.22583 97.672 0.225831 97.672 0.231264C97.5253 0.606152 97.3515 1.02994 97.1504 1.50262C96.8571 2.19807 96.4985 2.99131 96.0801 3.85518C96.1018 3.78455 96.129 3.71392 96.1453 3.64328L96.129 3.62155C96.129 3.62155 96.1127 3.63785 96.0747 3.67045C96.0421 3.70305 95.9932 3.74651 95.928 3.80628C95.8411 3.89321 95.727 4.00731 95.602 4.154C95.5911 4.03447 95.5368 3.90408 95.4879 3.83888C95.401 3.73565 95.2651 3.67045 95.1402 3.62699C95.0261 3.58895 94.9174 3.57265 94.8739 3.56722C94.8739 3.56722 94.8685 3.56722 94.8631 3.56722V3.58352C94.9065 3.63242 94.9065 3.69762 94.9065 3.75738C94.9065 3.84431 94.9065 3.93124 94.9174 4.02361C94.9337 4.1377 94.9717 4.2355 95.0315 4.317C95.0478 4.3333 95.0641 4.34959 95.0858 4.36046C95.1565 4.42023 95.2434 4.44739 95.3358 4.46912C95.151 4.70275 94.95 4.98527 94.749 5.32756C94.5208 5.71875 94.3035 6.19143 94.1568 6.73475C94.0807 7.00641 94.0318 7.29436 94.0046 7.59862C94.0046 7.64752 94.0046 7.69642 93.9992 7.74531C93.9503 7.82681 93.9014 7.90831 93.8525 7.98981C93.7928 7.95721 93.733 7.93547 93.695 7.93004C93.5646 7.91374 93.4179 7.95178 93.2983 8.01154C93.1788 8.0713 93.0864 8.14193 93.0593 8.16367H93.0756C93.1353 8.1854 93.1788 8.22887 93.2223 8.2832C93.282 8.3484 93.3472 8.41903 93.4179 8.47879C93.4505 8.50596 93.4885 8.52226 93.5265 8.54399C91.8966 11.1845 89.832 13.9934 87.2784 16.4764C86.9307 16.8187 86.5667 17.1501 86.2026 17.4815C86.2026 17.4815 86.9415 17.8184 88.126 18.2367L91.2283 20.5947C91.2283 20.5947 91.25 20.5947 91.2881 20.6056V20.6273L91.1033 20.5676C91.1033 20.5676 91.0925 20.5893 91.0816 20.6491C91.0762 20.6762 91.0762 20.7088 91.0707 20.7469C91.0653 20.7849 91.0707 20.8283 91.0707 20.8772C91.0707 21.0131 91.1033 21.1978 91.174 21.3988C91.1631 21.3934 91.1468 21.3825 91.1359 21.3771C91.0381 21.3336 90.9186 21.3065 90.8534 21.3119C90.7285 21.3228 90.6035 21.4097 90.5166 21.5129C90.4351 21.6053 90.3807 21.7194 90.359 21.7629V21.7737H90.3753C90.4351 21.7737 90.4948 21.8118 90.5546 21.8606C90.6361 21.9095 90.7176 21.9802 90.8045 22.0073C90.9186 22.0454 91.0273 22.0562 91.1251 22.0345C91.1468 22.0236 91.1631 22.0182 91.1848 22.0019C91.212 21.9856 91.2283 21.9639 91.2555 21.9421L90.8045 36.1824C90.8045 36.1498 90.8045 36.1172 90.7937 36.0792C90.7339 36.1281 90.6741 36.1716 90.6144 36.2259C90.5872 36.2531 90.56 36.2802 90.5383 36.3074C90.5383 36.3074 90.5329 36.3128 90.5274 36.3183C90.5003 36.3509 90.4785 36.3835 90.4568 36.4215C90.4405 36.4541 90.4242 36.4921 90.4079 36.5302C90.397 36.5519 90.3862 36.5791 90.3807 36.6008C90.3536 36.6769 90.3318 36.7475 90.3155 36.829C90.3155 36.8507 90.3155 36.8725 90.3155 36.8942C90.2395 36.791 90.1145 36.7095 90.0384 36.6932C89.9135 36.666 89.7668 36.6986 89.6418 36.7529C89.5277 36.8018 89.4354 36.8616 89.4028 36.8833C89.4028 36.8833 89.3973 36.8833 89.3919 36.8887L89.4082 36.8996C89.468 36.9159 89.506 36.9702 89.5386 37.03C89.5929 37.1061 89.6418 37.1876 89.7016 37.2582C89.7777 37.3451 89.87 37.4103 89.9678 37.4484C89.9895 37.4484 90.0113 37.4484 90.033 37.4538C90.1254 37.4538 90.2123 37.4266 90.2884 37.3777C90.2775 37.7309 90.2721 38.1384 90.2992 38.6002C90.3264 39.1326 90.3862 39.7303 90.522 40.3768C90.56 40.5507 90.6035 40.7246 90.6524 40.9038L90.6198 41.8601C90.5111 41.9036 90.4133 41.9905 90.3427 42.0828C90.2666 42.1806 90.2177 42.2839 90.196 42.3273C90.196 42.3273 90.196 42.3328 90.196 42.3382H90.2123C90.2721 42.3273 90.3318 42.3599 90.397 42.4034C90.4677 42.436 90.5383 42.4795 90.6089 42.5121L90.3753 49.9066C90.3753 49.9066 90.3536 49.9283 90.3427 49.9392C90.3427 49.6838 90.3536 49.4448 90.3699 49.2383C90.3753 49.1351 90.3862 49.0373 90.3916 48.9504C90.3916 48.6787 90.4079 48.4125 90.4025 48.1408C90.3481 48.1517 90.2938 48.168 90.2395 48.1897C90.2069 48.206 90.1743 48.2223 90.1417 48.244C90.1362 48.244 90.1308 48.2549 90.1199 48.2603C90.0928 48.2821 90.071 48.3038 90.0493 48.331C90.0439 48.3418 90.033 48.3473 90.0276 48.3581C90.0058 48.3907 89.9841 48.4342 89.9787 48.4777C89.9678 48.532 89.9624 48.6026 89.9298 48.6461C89.9189 48.7222 89.9135 48.8037 89.9026 48.8906C89.8266 48.7928 89.707 48.7059 89.631 48.6841C89.506 48.6515 89.3593 48.6841 89.2343 48.7276C89.1202 48.7711 89.0333 48.8254 88.9953 48.8471C88.9953 48.8471 88.9898 48.8471 88.9844 48.8526L88.9953 48.8634C89.0496 48.8852 89.0876 48.934 89.1202 48.9938C89.1746 49.0699 89.218 49.1514 89.2778 49.222C89.3539 49.3089 89.4408 49.3741 89.5386 49.4122C89.5603 49.4122 89.5821 49.4176 89.6038 49.4176C89.6907 49.4176 89.7831 49.3959 89.8591 49.3524C89.8211 50.075 89.8211 51.0693 90.0004 52.2374C90.0602 52.6069 90.1417 52.9926 90.2449 53.3838L90.234 53.6772C90.1525 53.65 90.0656 53.6337 90.0113 53.6392C89.8809 53.6555 89.7559 53.7424 89.6581 53.8293C89.5603 53.9163 89.4951 54.0141 89.4734 54.0467H89.4897C89.5495 54.0467 89.6038 54.0793 89.6527 54.1227C89.7288 54.1716 89.8048 54.2314 89.8863 54.2694C89.9895 54.3237 90.0928 54.3455 90.196 54.3455C90.196 54.3455 90.2069 54.3455 90.2123 54.3455L89.794 67.6024H91.413L101.1 67.635H103.953L105.572 67.6458L105.55 66.9124C105.577 66.8798 105.594 66.8363 105.615 66.7983C105.621 66.782 105.626 66.7711 105.632 66.7548C105.642 66.7168 105.653 66.6787 105.664 66.6353C105.664 66.6298 105.664 66.6244 105.664 66.6135C105.68 66.4994 105.67 66.3799 105.642 66.2712C105.621 66.1952 105.588 66.1245 105.55 66.0648C105.545 66.0594 105.534 66.0485 105.528 66.0431V66.0322L105.289 56.9534C105.289 56.9534 105.289 56.9914 105.289 57.0132C105.3 57.1435 105.306 57.2359 105.311 57.2794C105.333 57.2685 105.36 57.2468 105.376 57.225C105.393 57.2087 105.409 57.187 105.425 57.1653C105.425 57.1598 105.436 57.1544 105.436 57.149C105.447 57.1327 105.458 57.1109 105.469 57.0946C105.474 57.0838 105.485 57.0729 105.49 57.0566C105.496 57.0403 105.501 57.024 105.512 57.0077C105.517 56.9914 105.528 56.9697 105.534 56.9534C105.577 56.8339 105.604 56.7089 105.621 56.6274C105.621 56.6274 105.621 56.6057 105.621 56.5948C105.621 56.5948 105.621 56.5839 105.621 56.5785C105.642 56.4318 105.653 56.2579 105.642 56.0895C105.642 56.0678 105.632 56.0515 105.626 56.0298C105.599 55.932 105.572 55.8287 105.545 55.7201C105.528 55.6657 105.517 55.6114 105.501 55.5571C105.479 55.5027 105.463 55.4484 105.441 55.3886C105.409 55.2963 105.376 55.1985 105.338 55.1007C105.376 55.0952 105.409 55.0844 105.441 55.0681C105.441 55.0681 105.474 55.0464 105.485 55.0355C105.539 54.9703 105.588 54.8834 105.61 54.7856C105.632 54.7095 105.637 54.628 105.648 54.5465C105.648 54.4867 105.664 54.4324 105.697 54.3944V54.3835C105.653 54.3781 105.387 54.34 105.224 54.465C105.224 54.465 105.219 54.4759 105.213 54.4759L104.806 38.937C104.827 39.0131 104.844 39.0892 104.866 39.1652H104.876C104.876 39.1652 104.893 39.0674 104.925 38.8827C104.942 38.7904 104.963 38.6763 104.985 38.5404C105.001 38.4046 105.023 38.247 105.045 38.0732C105.077 37.8233 105.099 37.5353 105.121 37.2147C105.153 37.2256 105.192 37.231 105.224 37.231C105.224 37.231 105.257 37.231 105.273 37.2256C105.349 37.193 105.414 37.1441 105.479 37.0735C105.528 37.0191 105.572 36.9594 105.615 36.8996C105.642 36.8562 105.68 36.8127 105.719 36.7964H105.729V36.7855L105.719 36.7801ZM108.305 16.6611C108.462 16.7589 108.576 16.8567 108.642 16.9436C108.663 16.9762 108.68 17.0034 108.696 17.0251C108.565 16.9056 108.43 16.7807 108.305 16.6611ZM95.2651 5.40363C95.2651 5.40363 95.2651 5.40906 95.2651 5.41449C95.1293 5.66985 94.9935 5.93064 94.8468 6.19143C94.9446 5.95781 95.0532 5.74048 95.1673 5.54489C95.1945 5.49599 95.2271 5.44709 95.2543 5.40363H95.2651ZM90.3155 50.6075C90.3155 50.4988 90.3101 50.3901 90.3047 50.2815C90.3047 50.2815 90.3101 50.2869 90.3155 50.2923C90.3155 50.2923 90.3155 50.2923 90.321 50.2923L90.3101 50.602L90.3155 50.6075ZM90.7719 36.2422V36.3509C90.7719 36.3509 90.7719 36.3237 90.7719 36.3074C90.7719 36.2802 90.7719 36.2639 90.7719 36.2422Z" fill="url(#paint0_linear_101_1142)"/>
</g>
<path id="Vector_6" d="M101.024 67.6457C101.172 63.0249 100.239 52.9419 97.6445 49.5759C95.0503 52.9419 94.1166 63.0249 94.2645 67.6457H97.6445H101.024Z" fill="black"/>
<g id="Vector_7" filter="url(#filter5_d_101_1142)">
<path d="M99.3395 29.298C99.3091 28.2825 98.4264 27.4827 97.3564 27.5093C96.2919 27.5411 95.4527 28.3762 95.4721 29.3866L95.8833 43.4888L97.8627 44.969L99.7503 43.384L99.3433 29.4229C99.342 29.3795 99.3408 29.3414 99.3395 29.298Z" fill="#D49A1E"/>
</g>
<g id="Vector_8" filter="url(#filter6_i_101_1142)">
<path d="M92.9073 46.3316C92.8692 46.3098 92.7225 46.2175 92.5867 46.2446C92.5595 46.2446 92.5215 46.2664 92.4835 46.2935C92.4835 45.9458 92.4835 45.5546 92.4291 45.1308C92.402 44.8972 92.3585 44.6527 92.2987 44.3974C92.2987 44.3974 92.3096 44.4028 92.3096 44.4082C92.3639 44.43 92.4237 44.4354 92.4889 44.43C92.5378 44.43 92.5867 44.4082 92.6302 44.4082C92.6628 44.3974 92.7008 44.3919 92.728 44.4082H92.7334C92.7334 44.4082 92.7062 44.3322 92.6736 44.267C92.6356 44.2018 92.5867 44.1366 92.5215 44.0931C92.4563 44.0496 92.2498 44.0225 92.2281 44.1366C92.2009 44.0334 92.1683 43.9247 92.1357 43.8215L91.9021 34.8622C91.9021 34.8622 91.9239 34.8622 91.9347 34.8622L94.0536 32.9171C94.0808 32.9063 94.1025 32.9008 94.1297 32.89C94.1677 32.8737 94.2112 32.8628 94.2492 32.8465C94.271 32.8411 94.2873 32.8302 94.309 32.8248C94.3525 32.8085 94.3959 32.7922 94.434 32.7759C94.4503 32.7759 94.4611 32.765 94.4774 32.7596C94.5263 32.7433 94.5698 32.7215 94.6133 32.7052C94.6133 32.7052 94.6241 32.7052 94.6296 32.6998C94.7871 32.64 94.923 32.5857 95.0316 32.5368C95.0642 32.5205 95.0968 32.5096 95.1294 32.4988C95.1294 32.4988 95.1348 32.4988 95.1403 32.4988C95.1674 32.4879 95.1892 32.477 95.2109 32.4662C95.2109 32.4662 95.2163 32.4662 95.2218 32.4662C95.2435 32.4553 95.2652 32.4499 95.2815 32.439C95.2815 32.439 95.2815 32.439 95.287 32.439C95.3033 32.4336 95.3141 32.4281 95.325 32.4227C95.325 32.4227 95.3359 32.4227 95.3359 32.4173C95.3413 32.4173 95.3467 32.4173 95.3522 32.4118C95.363 32.4118 95.3739 32.401 95.3739 32.401C95.2815 32.3195 95.1946 32.2325 95.1022 32.151C95.1077 32.1293 95.1131 32.113 95.1185 32.0913C95.1185 32.0804 95.1185 32.0695 95.1185 32.0587C95.1185 32.0369 95.1185 32.0152 95.1185 31.9935C95.1185 31.9826 95.1185 31.9717 95.1185 31.9609C95.1185 31.9391 95.1131 31.9174 95.1022 31.8957C95.1022 31.8848 95.1022 31.8794 95.0968 31.8685C95.0968 31.8685 95.0968 31.8685 95.0968 31.8631C95.0751 31.8033 95.0479 31.749 95.0099 31.6947C95.0099 31.6947 95.0099 31.6892 95.0044 31.6838C95.0044 31.6784 94.9936 31.6675 94.9882 31.6621C94.9284 31.5806 94.8523 31.5045 94.7763 31.4339C94.7654 31.4339 94.7545 31.423 94.7491 31.423C94.5752 31.3469 94.3796 31.2872 94.1677 31.2328C94.1786 31.2111 94.1895 31.1839 94.1949 31.1568C94.1949 31.1568 94.1949 31.1296 94.1949 31.1187C94.184 31.059 94.1569 30.9992 94.1243 30.9449C94.0917 30.9014 94.0591 30.8634 94.0265 30.8254C93.9993 30.7982 93.9776 30.771 93.9722 30.733V30.7221C93.9722 30.7221 93.8961 30.8199 93.8581 30.9123C93.6896 30.733 93.5212 30.5537 93.3636 30.3744C93.3365 30.3418 93.3039 30.3092 93.2767 30.2766C93.092 30.0701 92.9127 29.8583 92.7388 29.6464C92.7062 29.6083 92.6736 29.5703 92.6465 29.5323C92.4726 29.3258 92.3096 29.1139 92.1466 28.902C92.114 28.864 92.0814 28.8205 92.0542 28.7825C91.8913 28.5706 91.7337 28.3641 91.5816 28.1522C91.5544 28.1142 91.5218 28.0707 91.4946 28.0327C91.3425 27.8208 91.1904 27.6089 91.0491 27.397C91.0219 27.359 91.0002 27.321 90.9731 27.2884C90.8264 27.0765 90.6851 26.8592 90.5438 26.6473C90.5221 26.6147 90.5058 26.5875 90.4841 26.5549C90.3428 26.3321 90.207 26.1148 90.0711 25.8975C90.0603 25.8758 90.0494 25.8595 90.0385 25.8377C89.9027 25.615 89.7723 25.3976 89.6474 25.1803C89.6419 25.1694 89.6365 25.1586 89.6311 25.1531C89.5007 24.9304 89.3757 24.7076 89.2562 24.4957C89.2453 24.474 89.2344 24.4577 89.2236 24.4414C89.104 24.2295 88.9954 24.023 88.8867 23.8166C88.8759 23.7949 88.865 23.7731 88.8541 23.7514C88.7455 23.5449 88.6422 23.3439 88.5444 23.1483C88.5336 23.1266 88.5227 23.1048 88.5118 23.0885C88.414 22.8929 88.3162 22.6974 88.2293 22.5072C88.2239 22.4909 88.213 22.4746 88.2076 22.4583C88.1152 22.2681 88.0283 22.078 87.9414 21.8932C87.9414 21.8878 87.9359 21.8769 87.9305 21.8715C87.8436 21.6868 87.7621 21.5021 87.686 21.3282C87.6208 21.1761 87.5502 21.0239 87.4904 20.8772C87.3437 20.535 87.2187 20.2253 87.1155 19.9536C87.1155 19.9536 87.1155 19.9536 87.1155 19.959C87.0123 20.2307 86.8873 20.535 86.7406 20.8772C86.5287 21.3771 86.2679 21.953 85.9691 22.5778C85.9854 22.5289 86.0017 22.4746 86.0126 22.4257L86.0017 22.4094C86.0017 22.4094 85.9908 22.4203 85.9637 22.442C85.942 22.4637 85.9039 22.4963 85.8605 22.5398C85.8007 22.5996 85.7192 22.6865 85.6268 22.7897C85.6214 22.7028 85.5779 22.605 85.5453 22.5615C85.4856 22.4909 85.3878 22.4366 85.2954 22.4094C85.2139 22.3822 85.1378 22.3714 85.1052 22.3659V22.3768C85.1324 22.4094 85.1378 22.4583 85.1324 22.5018C85.1324 22.5615 85.1324 22.6267 85.1433 22.6919C85.1541 22.7734 85.1813 22.8441 85.2248 22.9038C85.2356 22.9147 85.2519 22.9255 85.2628 22.9364C85.3171 22.9799 85.3769 23.0016 85.4421 23.0125C85.3063 23.1809 85.1596 23.3874 85.0183 23.6319C84.8553 23.9144 84.6978 24.2567 84.5891 24.6479C84.5348 24.8435 84.5022 25.0499 84.4804 25.2727C84.4804 25.3053 84.4804 25.3433 84.475 25.3759C84.4424 25.4357 84.4044 25.49 84.3718 25.5498C84.3283 25.528 84.2848 25.5117 84.2577 25.5063C84.1599 25.4954 84.0566 25.5226 83.9697 25.5661C83.8828 25.6095 83.8176 25.6584 83.7959 25.6802H83.8067C83.8502 25.691 83.8828 25.7291 83.91 25.7671C83.9534 25.816 83.9969 25.8649 84.0512 25.9083C84.0729 25.9301 84.1001 25.941 84.1273 25.9572C82.9537 27.8643 81.4596 29.8854 79.6178 31.6838C79.3678 31.9283 79.107 32.1728 78.8408 32.4064C78.8408 32.4064 79.3733 32.6509 80.2263 32.9497L82.4647 34.6503C82.4647 34.6503 82.481 34.6503 82.5082 34.6612V34.6775L82.3778 34.634C82.3778 34.634 82.3724 34.6503 82.3615 34.6938C82.3615 34.7155 82.3561 34.7372 82.3506 34.7644C82.3506 34.7916 82.3506 34.8242 82.3506 34.8622C82.3506 34.96 82.3778 35.0904 82.4267 35.2371C82.4158 35.2371 82.4104 35.2262 82.3995 35.2208C82.3289 35.1882 82.242 35.1664 82.1985 35.1719C82.1061 35.1827 82.0192 35.2425 81.954 35.3186C81.8943 35.3892 81.8562 35.4707 81.8399 35.4979C81.8399 35.4979 81.8399 35.4979 81.8399 35.5033H81.8508C81.8943 35.5033 81.9377 35.5305 81.9812 35.5631C82.0409 35.6011 82.0953 35.65 82.1605 35.6717C82.242 35.6989 82.318 35.7098 82.3887 35.6935C82.405 35.688 82.4158 35.6772 82.4321 35.6717C82.4484 35.6609 82.4647 35.6446 82.481 35.6283L82.155 45.9024C82.155 45.9024 82.155 45.8535 82.1496 45.8317C82.1061 45.8643 82.0627 45.8969 82.0192 45.935C82.0192 45.935 81.9812 45.973 81.9649 45.9947C81.9649 45.9947 81.9649 45.9947 81.9595 46.0002C81.9377 46.0219 81.9214 46.049 81.9106 46.0708C81.8943 46.0979 81.8888 46.1251 81.878 46.1468C81.8725 46.1631 81.8617 46.1794 81.8562 46.2012C81.8399 46.2555 81.8236 46.3098 81.8073 46.3642C81.8073 46.3805 81.8073 46.3968 81.8073 46.4076C81.753 46.337 81.6606 46.2772 81.6063 46.2609C81.5139 46.2392 81.4107 46.2609 81.3183 46.3044C81.2368 46.337 81.1716 46.3805 81.1445 46.3968C81.1445 46.3968 81.1445 46.3968 81.139 46.3968H81.1499C81.1934 46.4185 81.2205 46.4565 81.2423 46.5C81.2803 46.5543 81.3129 46.6141 81.3618 46.663C81.4161 46.7282 81.4813 46.7771 81.552 46.7988C81.5683 46.7988 81.5846 46.7988 81.6009 46.7988C81.6661 46.7988 81.7313 46.7771 81.7856 46.7445C81.7802 46.9998 81.7747 47.2932 81.791 47.6247C81.8128 48.0104 81.8562 48.4396 81.954 48.9069C81.9812 49.0319 82.0138 49.1568 82.0464 49.2872L82.0246 49.9772C81.9431 50.0098 81.878 50.0696 81.8236 50.1402C81.7693 50.2108 81.7313 50.2869 81.7204 50.3141V50.3195H81.7313C81.7747 50.3141 81.8182 50.3358 81.8617 50.363C81.9106 50.3901 81.9649 50.4173 82.0138 50.439L81.8454 55.7744C81.8454 55.7744 81.8291 55.7853 81.8236 55.7961C81.8236 55.6114 81.8345 55.443 81.8399 55.2908C81.8399 55.2148 81.8508 55.1496 81.8562 55.0844C81.8562 54.8888 81.8671 54.6932 81.8671 54.503C81.8291 54.5085 81.7856 54.5248 81.7476 54.5411C81.7476 54.5411 81.6987 54.5628 81.6769 54.5791C81.6769 54.5791 81.6661 54.59 81.6606 54.59C81.6389 54.6063 81.6226 54.6226 81.6063 54.6443C81.6063 54.6497 81.5954 54.6552 81.59 54.666C81.5737 54.6932 81.5628 54.7204 81.5574 54.753C81.552 54.791 81.5465 54.8453 81.5248 54.8779C81.5194 54.9323 81.5139 54.992 81.5085 55.0518C81.4542 54.9812 81.3672 54.9214 81.3129 54.9051C81.2205 54.8834 81.1173 54.9051 81.0304 54.9377C80.9489 54.9703 80.8837 55.0083 80.8565 55.0246H80.862C80.9054 55.0463 80.9272 55.0844 80.9543 55.1278C80.9923 55.1822 81.0249 55.2419 81.0684 55.2908C81.1227 55.356 81.1879 55.3995 81.2531 55.4267C81.2694 55.4267 81.2857 55.4267 81.302 55.4267C81.3672 55.4267 81.427 55.4104 81.4868 55.3832C81.4596 55.9048 81.4596 56.622 81.59 57.4641C81.6335 57.7303 81.6932 58.0074 81.7639 58.2899V58.5018C81.6987 58.4801 81.6335 58.4692 81.5954 58.4747C81.5031 58.491 81.4107 58.5453 81.3455 58.6159C81.2749 58.6811 81.226 58.7518 81.2097 58.7681H81.2205C81.264 58.7681 81.302 58.7952 81.3401 58.8224C81.3944 58.855 81.4487 58.8985 81.5085 58.9311C81.5846 58.9691 81.6606 58.9854 81.7313 58.9854C81.7313 58.9854 81.7367 58.9854 81.7421 58.9854L81.4379 68.5477H82.606L89.5985 68.5695H91.6522L92.8203 68.5803L92.804 68.0533C92.804 68.0533 92.8366 67.999 92.8475 67.9718C92.8475 67.961 92.8529 67.9501 92.8584 67.9392C92.8692 67.9121 92.8747 67.8849 92.8801 67.8523C92.8801 67.8523 92.8801 67.8414 92.8801 67.836C92.891 67.7545 92.8801 67.6676 92.8638 67.5915C92.8475 67.5372 92.8258 67.4828 92.7986 67.4394C92.7986 67.4394 92.7877 67.4285 92.7823 67.4231L92.6084 60.8707C92.6084 60.8816 92.6084 60.8979 92.6084 60.9142C92.6139 61.012 92.6193 61.0772 92.6247 61.1098C92.641 61.0989 92.6573 61.088 92.6736 61.0717C92.6845 61.0609 92.6954 61.0446 92.7062 61.0283C92.7062 61.0283 92.7117 61.0228 92.7171 61.0174C92.7225 61.0065 92.7334 60.9902 92.7388 60.9794C92.7388 60.9685 92.7497 60.9631 92.7551 60.9522C92.7551 60.9413 92.766 60.9305 92.7714 60.9196C92.7769 60.9087 92.7823 60.8924 92.7877 60.8816C92.8203 60.7946 92.8366 60.7077 92.8475 60.6479C92.8475 60.6479 92.8475 60.6316 92.8475 60.6262C92.8475 60.6262 92.8475 60.6208 92.8475 60.6153C92.8638 60.5067 92.8692 60.3871 92.8638 60.2622C92.8638 60.2459 92.8584 60.235 92.8529 60.2187C92.8366 60.1481 92.8149 60.072 92.7932 59.996C92.7823 59.9579 92.7714 59.9199 92.7606 59.8764C92.7443 59.8384 92.7334 59.7949 92.7171 59.7569C92.6954 59.6917 92.6682 59.6211 92.6465 59.5504C92.6736 59.5504 92.6954 59.5396 92.7225 59.5233C92.7225 59.5233 92.7443 59.507 92.7551 59.5015C92.7932 59.4526 92.8258 59.3929 92.8475 59.3222C92.8638 59.2679 92.8692 59.2081 92.8747 59.1538C92.8747 59.1104 92.8855 59.0723 92.9073 59.0452V59.0343C92.8747 59.0343 92.6845 59.0017 92.5704 59.0941C92.5704 59.0941 92.565 59.0995 92.5595 59.1049L92.2661 47.8963C92.2824 47.9507 92.2933 48.005 92.3096 48.0593H92.315C92.315 48.0593 92.3259 47.9887 92.3476 47.8529C92.3585 47.7877 92.3748 47.7007 92.3911 47.6029C92.402 47.5051 92.4183 47.391 92.4346 47.2661C92.4563 47.0868 92.4726 46.8803 92.4889 46.6467C92.5161 46.6521 92.5378 46.6576 92.565 46.6576C92.565 46.6576 92.5867 46.6576 92.603 46.6576C92.6573 46.6358 92.7062 46.5978 92.7497 46.5489C92.7877 46.5109 92.8149 46.4674 92.8475 46.4239C92.8692 46.3913 92.891 46.3642 92.9236 46.3533H92.929V46.3479L92.9073 46.3316ZM94.7708 31.8196C94.8849 31.8903 94.9664 31.9609 95.0153 32.0261C95.0316 32.0478 95.0425 32.0695 95.0533 32.0858C94.961 31.9989 94.8632 31.912 94.7708 31.8251V31.8196ZM85.3606 23.6971C85.3606 23.6971 85.3606 23.7025 85.3606 23.7079C85.2628 23.8927 85.165 24.0774 85.0618 24.2675C85.1324 24.0991 85.2139 23.9415 85.2954 23.8003C85.3171 23.7623 85.3389 23.7297 85.3606 23.6971ZM81.791 56.3068C81.791 56.2253 81.791 56.1493 81.7856 56.0732C81.7856 56.0732 81.7856 56.0787 81.791 56.0841V56.3068ZM82.1116 45.9404V46.0219C82.1116 46.0219 82.1116 46.0002 82.1116 45.9893C82.1116 45.973 82.1116 45.9567 82.1116 45.9404Z" fill="url(#paint1_linear_101_1142)"/>
</g>
<g id="Vector_9" filter="url(#filter7_d_101_1142)">
<path d="M88.9085 38.4373C88.9085 37.568 88.175 36.8617 87.2622 36.8617C86.3549 36.8617 85.616 37.5571 85.6051 38.4156L85.5942 45.0705L88.8976 45.0814L88.9085 38.546C88.9085 38.5134 88.9085 38.4753 88.9085 38.4427V38.4373Z" fill="#D49A1E"/>
</g>
<g id="Vector_10" filter="url(#filter8_d_101_1142)">
<path d="M110.201 43.0824C110.201 42.3815 109.609 41.811 108.87 41.811C108.136 41.811 107.539 42.3706 107.533 43.0661V45.5762L110.19 45.5816V43.1693C110.201 43.1422 110.201 43.115 110.201 43.0824Z" fill="#D49A1E"/>
</g>
</g>
<g id="Vector_11" filter="url(#filter9_i_101_1142)">
<path d="M119.791 4.45628C119.791 4.45628 119.747 4.16922 119.719 4.16517C119.69 4.16517 119.601 4.43606 119.601 4.43606C119.424 4.36733 119.201 4.43606 119.201 4.43606C119.201 4.43606 119.1 4.16921 119.06 4.17326C119.023 4.18134 119.011 4.44415 119.011 4.44415C118.862 4.57353 118.91 4.77164 118.91 4.77164C118.91 4.77164 118.696 4.76355 118.522 4.55735C118.51 4.53714 118.498 4.52097 118.49 4.50075C118.393 4.33094 118.324 4.15709 118.287 3.96706C118.247 3.77703 118.223 3.57892 118.215 3.38485C118.215 3.31612 118.215 3.25143 118.215 3.18674C118.215 3.18674 118.215 3.17461 118.215 3.17057C118.215 3.17057 118.194 3.17057 118.186 3.17057C118.186 3.17057 118.174 3.17057 118.17 3.17057C118.17 3.118 118.134 3.05736 118.101 3.02501C118.097 3.02097 118.085 3.02501 118.081 3.02906C118.069 3.05331 118.061 3.08162 118.057 3.10992C118.057 3.13013 118.045 3.15844 118.049 3.18269C117.79 3.21908 117.539 3.30399 117.301 3.4172C116.969 3.57488 116.654 3.7932 116.379 4.03983C116.201 4.20156 116.043 4.37946 115.902 4.57353C115.898 4.58161 115.894 4.58566 115.886 4.59374C115.882 4.60587 115.874 4.61396 115.87 4.62609C115.89 4.62609 115.906 4.63822 115.922 4.65035C115.922 4.65035 115.922 4.65035 115.926 4.65035C116.056 4.69078 116.157 4.7959 116.234 4.90506C116.314 5.01827 116.363 5.15169 116.387 5.28916C116.395 5.32959 116.395 5.36598 116.395 5.40641C116.395 5.43471 116.395 5.46705 116.391 5.49536C116.403 5.49536 116.424 5.49131 116.436 5.49131C116.472 5.48323 116.508 5.48323 116.545 5.47918C116.674 5.47514 116.804 5.49131 116.925 5.54387C117.135 5.63687 117.297 5.82285 117.406 6.025C117.414 6.03309 117.422 6.04118 117.426 6.05331C117.426 6.05331 117.426 6.05331 117.426 6.05735C117.45 6.04926 117.475 6.04926 117.499 6.04522C117.588 6.02501 117.681 6.025 117.766 6.02905C117.952 6.04118 118.138 6.08161 118.308 6.15439C118.405 6.19482 118.494 6.24738 118.579 6.30802C118.643 6.35654 118.704 6.4091 118.764 6.45762C118.857 6.53444 118.959 6.6153 119.023 6.72042C119.023 6.72042 119.027 6.73255 119.031 6.73659C119.039 6.73659 119.043 6.73659 119.052 6.73255C119.076 6.72446 119.1 6.72042 119.12 6.72446C119.254 6.71234 119.387 6.72446 119.517 6.76489C119.5 6.80937 119.484 6.85384 119.468 6.89832C119.456 6.93471 119.476 6.97918 119.512 6.99535C119.512 7.01557 119.525 7.03578 119.545 7.05196C119.581 7.0843 119.614 7.05196 119.634 7.01153C119.638 7.02365 119.646 7.0277 119.658 7.01961C119.682 7.00748 119.694 6.97918 119.703 6.95492C119.715 6.92258 119.715 6.88619 119.711 6.8498C119.763 6.87406 119.82 6.91045 119.868 6.94684C119.937 6.99535 120.006 7.056 120.022 7.1409C120.03 7.16516 120.058 7.14899 120.062 7.12878C120.083 6.93875 120.204 6.75681 120.357 6.6436C120.398 6.6153 120.442 6.587 120.491 6.56274C120.503 6.65169 120.519 6.73659 120.564 6.81341C120.572 6.82959 120.584 6.86597 120.604 6.87002C120.612 6.87002 120.616 6.87002 120.624 6.86193C120.624 6.86193 120.624 6.86193 120.628 6.86193C120.649 6.86193 120.665 6.85384 120.677 6.83767C120.685 6.82554 120.693 6.81746 120.697 6.80533C120.717 6.78915 120.742 6.77298 120.754 6.75277C120.77 6.72446 120.766 6.70021 120.754 6.66786C120.733 6.60317 120.697 6.5587 120.657 6.51018C120.669 6.51018 120.681 6.51018 120.693 6.51018C120.693 6.49805 120.697 6.48996 120.701 6.47783C120.701 6.4657 120.705 6.45358 120.709 6.44145C120.729 6.34845 120.766 6.25951 120.806 6.1746C120.887 6.00883 121 5.85924 121.118 5.71369C121.247 5.556 121.409 5.41449 121.595 5.34172C121.607 5.32959 121.619 5.3215 121.635 5.3215C121.635 5.30937 121.639 5.30129 121.647 5.28916C121.692 5.13552 121.744 4.98592 121.825 4.84441C121.926 4.66652 122.06 4.52097 122.217 4.39159C122.294 4.33094 122.375 4.27434 122.456 4.21773C122.529 4.16921 122.61 4.12878 122.694 4.10452C122.767 4.08431 122.844 4.08027 122.921 4.08431C122.945 4.08431 122.969 4.08027 122.994 4.08431C122.994 4.07622 122.994 4.06814 122.994 4.06005C122.994 4.06005 122.994 4.06005 122.994 4.05601C122.994 4.05601 122.994 4.04388 122.994 4.03983C122.994 3.95897 122.994 3.88215 122.994 3.80129C123.002 3.63148 123.038 3.46571 123.099 3.30803C123.163 3.15035 123.26 3.0048 123.37 2.87542C123.386 2.85925 123.398 2.84307 123.414 2.8269C123.422 2.81073 123.455 2.79051 123.442 2.7703C123.398 2.75412 123.349 2.74199 123.301 2.72987C123.192 2.70156 123.083 2.68135 122.977 2.66518C122.755 2.62879 122.525 2.60453 122.302 2.60049C122.092 2.59644 121.882 2.61666 121.68 2.65305C121.473 2.68943 121.267 2.73795 121.065 2.79456C120.964 2.8269 120.863 2.86329 120.766 2.90776C120.766 2.89563 120.766 2.87946 120.766 2.86733C120.766 2.83903 120.774 2.81073 120.77 2.77838C120.77 2.7703 120.762 2.76221 120.75 2.76625C120.657 2.79456 120.636 2.89968 120.604 2.98054C120.596 2.98054 120.588 2.98862 120.58 2.99267C120.568 2.99671 120.56 3.00075 120.548 3.0048C120.539 3.00884 120.527 3.01693 120.535 3.02906C120.535 3.02906 120.535 3.0331 120.539 3.03714C120.548 3.04927 120.552 3.06949 120.556 3.08566C120.604 3.22313 120.612 3.37272 120.6 3.51423C120.588 3.69213 120.552 3.87002 120.499 4.03579C120.402 4.32285 120.208 4.61396 119.864 4.76355C119.864 4.76355 119.933 4.55331 119.755 4.4401L119.791 4.45628Z" fill="#4F1EE4"/>
</g>
<g id="Vector_12" filter="url(#filter10_i_101_1142)">
<path d="M65.9606 18.2174C65.9606 18.2174 65.9121 17.7727 65.9606 17.7565C66.0011 17.7404 66.2436 18.1123 66.2436 18.1123C66.4781 17.9425 66.838 17.9546 66.838 17.9546C66.838 17.9546 66.8865 17.5139 66.9431 17.5099C67.0038 17.5099 67.121 17.898 67.121 17.898C67.3919 18.0355 67.4 18.3468 67.4 18.3468C67.4 18.3468 67.7153 18.2498 67.8932 17.8778C67.9013 17.8455 67.9135 17.8131 67.9215 17.7767C67.9984 17.4856 68.0307 17.1986 68.0145 16.8994C67.9984 16.6002 67.962 16.297 67.8973 16.0059C67.8771 15.9048 67.8488 15.8037 67.8124 15.7107C67.8124 15.7107 67.8083 15.6945 67.8043 15.6865C67.8205 15.6824 67.8326 15.6784 67.8447 15.6743C67.8447 15.6743 67.8609 15.6743 67.869 15.6743C67.8447 15.5975 67.8771 15.4924 67.9175 15.4277C67.9215 15.4196 67.9418 15.4196 67.9498 15.4277C67.9781 15.46 67.9984 15.5005 68.0145 15.5409C68.0267 15.5732 68.0469 15.6096 68.055 15.646C68.4552 15.5975 68.8636 15.6258 69.2639 15.7026C69.8218 15.8118 70.3757 16.0099 70.8811 16.2687C71.2086 16.4385 71.5159 16.6447 71.7989 16.8792C71.807 16.8873 71.8191 16.8953 71.8272 16.9034C71.8393 16.9156 71.8515 16.9317 71.8636 16.9439C71.8353 16.956 71.8151 16.9803 71.7948 17.0005C71.7948 17.0005 71.7948 17.0005 71.7868 17.0005C71.6089 17.1137 71.4997 17.3077 71.4269 17.5018C71.3501 17.6999 71.3299 17.9183 71.3501 18.1325C71.3541 18.1932 71.3663 18.2538 71.3825 18.3104C71.3905 18.3549 71.4067 18.3994 71.4229 18.4398C71.4027 18.4398 71.3744 18.4439 71.3541 18.4519C71.2975 18.4519 71.245 18.4681 71.1884 18.4762C70.9903 18.5207 70.8043 18.5975 70.6466 18.7228C70.3676 18.9452 70.1978 19.2808 70.117 19.6285C70.1089 19.6447 70.1008 19.6608 70.0967 19.677C70.0967 19.677 70.0967 19.6811 70.0967 19.6851C70.0604 19.6851 70.024 19.6891 69.9876 19.6972C69.8501 19.7013 69.7086 19.7377 69.5833 19.7781C69.3124 19.867 69.0496 20.0045 68.8272 20.1784C68.7019 20.2754 68.5887 20.3886 68.4876 20.5139C68.4108 20.6069 68.342 20.712 68.2693 20.8131C68.1641 20.9627 68.0428 21.1244 67.9862 21.3023C67.9862 21.3023 67.9822 21.3226 67.9781 21.3306C67.966 21.3306 67.9539 21.3306 67.9458 21.3306C67.9094 21.3306 67.873 21.3306 67.8366 21.3468C67.6345 21.3832 67.4404 21.456 67.2625 21.5651C67.3029 21.6258 67.3434 21.6824 67.3838 21.743C67.4162 21.7916 67.404 21.8684 67.3555 21.9007C67.3555 21.9331 67.3555 21.9654 67.3312 21.9937C67.2868 22.0584 67.2261 22.022 67.1817 21.9695C67.1817 21.9856 67.1695 21.9978 67.1453 21.9937C67.1048 21.9856 67.0765 21.9452 67.0523 21.9129C67.0199 21.8684 67.0078 21.8118 67.0038 21.7592V21.7552C66.935 21.8199 66.8663 21.8926 66.8097 21.9654C66.7248 22.0665 66.652 22.1837 66.656 22.3172C66.656 22.3576 66.6035 22.3414 66.5914 22.3172C66.4862 22.0422 66.2356 21.8158 65.9606 21.7107C65.8919 21.6864 65.811 21.6581 65.7261 21.646C65.7261 21.646 65.7261 21.6501 65.7261 21.6541C65.7423 21.7875 65.7463 21.9169 65.714 22.0503C65.7059 22.0746 65.7019 22.1393 65.6736 22.1474C65.6614 22.1514 65.6534 22.1474 65.6412 22.1474C65.6412 22.1474 65.6412 22.1474 65.6372 22.1474C65.6089 22.1595 65.5765 22.1474 65.5523 22.1312C65.5321 22.1191 65.5199 22.1069 65.5078 22.0908C65.4714 22.0786 65.431 22.0624 65.4027 22.0341C65.3663 21.9978 65.3623 21.9573 65.3623 21.9088C65.3623 21.8077 65.4027 21.7228 65.4472 21.6379C65.4472 21.6379 65.4472 21.6379 65.4431 21.6379C65.4269 21.6379 65.4067 21.646 65.3906 21.6501C65.3825 21.6339 65.3744 21.6217 65.3663 21.6056C65.3582 21.5894 65.3461 21.5692 65.342 21.553C65.2733 21.4196 65.1884 21.3023 65.0914 21.1932C64.9054 20.9789 64.679 20.797 64.4485 20.6271C64.1938 20.4412 63.9027 20.2996 63.5914 20.2592C63.5712 20.2471 63.5469 20.243 63.5226 20.2471C63.5145 20.2309 63.5065 20.2147 63.4903 20.2067C63.365 19.9964 63.2275 19.7943 63.0536 19.6164C62.8353 19.394 62.5765 19.2242 62.2935 19.0948C62.1561 19.0301 62.0146 18.9776 61.873 18.925C61.7437 18.8805 61.6102 18.8482 61.4728 18.8522C61.3555 18.8522 61.2423 18.8765 61.1291 18.9129C61.0887 18.9169 61.0523 18.925 61.0199 18.9412C61.0199 18.929 61.0199 18.9169 61.0119 18.9048C61.0119 18.9048 61.0038 18.9007 61.0078 18.8967C61.0078 18.8886 61.0078 18.8846 61.0038 18.8765C60.9755 18.7592 60.9431 18.6379 60.9108 18.5207C60.834 18.27 60.7127 18.0355 60.559 17.8253C60.4013 17.615 60.1992 17.4371 59.9849 17.2875C59.9566 17.2714 59.9283 17.2511 59.9 17.2309C59.8798 17.2148 59.8272 17.1905 59.8353 17.1581C59.896 17.1137 59.9647 17.0773 60.0294 17.0449C60.179 16.9641 60.3326 16.8913 60.4903 16.8226C60.8097 16.6811 61.1412 16.5557 61.4728 16.4587C61.7841 16.3697 62.1035 16.3172 62.4229 16.2889C62.7423 16.2606 63.0738 16.2525 63.3933 16.2606C63.559 16.2646 63.7248 16.2848 63.8865 16.3131C63.8784 16.2929 63.8703 16.2727 63.8663 16.2525C63.8501 16.2121 63.834 16.1676 63.8259 16.1231C63.8259 16.1069 63.834 16.0989 63.8501 16.0989C63.9997 16.1029 64.0725 16.2525 64.1534 16.3617C64.1695 16.3617 64.1817 16.3617 64.1978 16.3697C64.214 16.3697 64.2302 16.3778 64.2464 16.3778C64.2625 16.3778 64.2787 16.39 64.2706 16.4061C64.2706 16.4061 64.2706 16.4142 64.2666 16.4183C64.2585 16.4425 64.2625 16.4749 64.2585 16.4991C64.2423 16.7215 64.2868 16.9439 64.3596 17.1581C64.4485 17.4169 64.5698 17.6676 64.7154 17.898C64.9701 18.2862 65.3744 18.646 65.9445 18.735C65.9445 18.735 65.7585 18.4479 65.9808 18.2094L65.9606 18.2174Z" fill="#4F1EE4"/>
</g>
<path id="Vector_13" fill-rule="evenodd" clip-rule="evenodd" d="M20.7097 84.3533C18.8843 86.13 20.8572 86.3849 28.3798 85.5911C33.7255 85.0265 38.3603 85.0781 43.2794 85.5911C50.1407 86.3075 51.7404 86.0169 50.6007 84.2623C49.974 83.2969 21.706 83.3834 20.7097 84.3533Z" fill="url(#paint2_linear_101_1142)"/>
<path id="Vector_14" fill-rule="evenodd" clip-rule="evenodd" d="M144.173 85.2461C142.347 83.4695 144.32 83.2145 151.843 84.0084C157.188 84.573 161.823 84.5214 166.742 84.0084C173.604 83.292 175.203 83.5826 174.064 85.3372C173.437 86.3026 145.169 86.216 144.173 85.2461Z" fill="url(#paint3_linear_101_1142)"/>
</g>
<defs>
<filter id="filter0_d_101_1142" x="41.3038" y="52.1359" width="113.395" height="64.2553" filterUnits="userSpaceOnUse" color-interpolation-filters="sRGB">
<feFlood flood-opacity="0" result="BackgroundImageFix"/>
<feColorMatrix in="SourceAlpha" type="matrix" values="0 0 0 0 0 0 0 0 0 0 0 0 0 0 0 0 0 0 127 0" result="hardAlpha"/>
<feOffset/>
<feGaussianBlur stdDeviation="12.3088"/>
<feComposite in2="hardAlpha" operator="out"/>
<feColorMatrix type="matrix" values="0 0 0 0 0.894118 0 0 0 0 0.690196 0 0 0 0 0.164706 0 0 0 0.75 0"/>
<feBlend mode="normal" in2="BackgroundImageFix" result="effect1_dropShadow_101_1142"/>
<feBlend mode="normal" in="SourceGraphic" in2="effect1_dropShadow_101_1142" result="shape"/>
</filter>
<filter id="filter1_i_101_1142" x="121.647" y="28.6898" width="69.3291" height="39.3597" filterUnits="userSpaceOnUse" color-interpolation-filters="sRGB">
<feFlood flood-opacity="0" result="BackgroundImageFix"/>
<feBlend mode="normal" in="SourceGraphic" in2="BackgroundImageFix" result="shape"/>
<feColorMatrix in="SourceAlpha" type="matrix" values="0 0 0 0 0 0 0 0 0 0 0 0 0 0 0 0 0 0 127 0" result="hardAlpha"/>
<feOffset dx="1.1824" dy="1.1824"/>
<feComposite in2="hardAlpha" operator="arithmetic" k2="-1" k3="1"/>
<feColorMatrix type="matrix" values="0 0 0 0 1 0 0 0 0 1 0 0 0 0 1 0 0 0 1 0"/>
<feBlend mode="normal" in2="shape" result="effect1_innerShadow_101_1142"/>
</filter>
<filter id="filter2_i_101_1142" x="8.30859" y="29.1581" width="60.1387" height="39.5383" filterUnits="userSpaceOnUse" color-interpolation-filters="sRGB">
<feFlood flood-opacity="0" result="BackgroundImageFix"/>
<feBlend mode="normal" in="SourceGraphic" in2="BackgroundImageFix" result="shape"/>
<feColorMatrix in="SourceAlpha" type="matrix" values="0 0 0 0 0 0 0 0 0 0 0 0 0 0 0 0 0 0 127 0" result="hardAlpha"/>
<feOffset dx="1.1824" dy="1.1824"/>
<feComposite in2="hardAlpha" operator="arithmetic" k2="-1" k3="1"/>
<feColorMatrix type="matrix" values="0 0 0 0 1 0 0 0 0 1 0 0 0 0 1 0 0 0 1 0"/>
<feBlend mode="normal" in2="shape" result="effect1_innerShadow_101_1142"/>
</filter>
<filter id="filter3_i_101_1142" x="101.508" y="25.0562" width="14.251" height="41.895" filterUnits="userSpaceOnUse" color-interpolation-filters="sRGB">
<feFlood flood-opacity="0" result="BackgroundImageFix"/>
<feBlend mode="normal" in="SourceGraphic" in2="BackgroundImageFix" result="shape"/>
<feColorMatrix in="SourceAlpha" type="matrix" values="0 0 0 0 0 0 0 0 0 0 0 0 0 0 0 0 0 0 127 0" result="hardAlpha"/>
<feOffset dx="1.1824" dy="1.1824"/>
<feComposite in2="hardAlpha" operator="arithmetic" k2="-1" k3="1"/>
<feColorMatrix type="matrix" values="0 0 0 0 0.442742 0 0 0 0 0.28863 0 0 0 0 0.91137 0 0 0 1 0"/>
<feBlend mode="normal" in2="shape" result="effect1_innerShadow_101_1142"/>
</filter>
<filter id="filter4_i_101_1142" x="86.2026" y="0.22583" width="22.9443" height="67.42" filterUnits="userSpaceOnUse" color-interpolation-filters="sRGB">
<feFlood flood-opacity="0" result="BackgroundImageFix"/>
<feBlend mode="normal" in="SourceGraphic" in2="BackgroundImageFix" result="shape"/>
<feColorMatrix in="SourceAlpha" type="matrix" values="0 0 0 0 0 0 0 0 0 0 0 0 0 0 0 0 0 0 127 0" result="hardAlpha"/>
<feOffset dx="1.1824" dy="1.1824"/>
<feComposite in2="hardAlpha" operator="arithmetic" k2="-1" k3="1"/>
<feColorMatrix type="matrix" values="0 0 0 0 0.442742 0 0 0 0 0.28863 0 0 0 0 0.91137 0 0 0 1 0"/>
<feBlend mode="normal" in2="shape" result="effect1_innerShadow_101_1142"/>
</filter>
<filter id="filter5_d_101_1142" x="89.7732" y="23.7097" width="15.6758" height="28.8573" filterUnits="userSpaceOnUse" color-interpolation-filters="sRGB">
<feFlood flood-opacity="0" result="BackgroundImageFix"/>
<feColorMatrix in="SourceAlpha" type="matrix" values="0 0 0 0 0 0 0 0 0 0 0 0 0 0 0 0 0 0 127 0" result="hardAlpha"/>
<feOffset dy="1.8995"/>
<feGaussianBlur stdDeviation="2.84925"/>
<feComposite in2="hardAlpha" operator="out"/>
<feColorMatrix type="matrix" values="0 0 0 0 0.894118 0 0 0 0 0.690196 0 0 0 0 0.164706 0 0 0 1 0"/>
<feBlend mode="normal" in2="BackgroundImageFix" result="effect1_dropShadow_101_1142"/>
<feBlend mode="normal" in="SourceGraphic" in2="effect1_dropShadow_101_1142" result="shape"/>
</filter>
<filter id="filter6_i_101_1142" x="78.8408" y="19.9536" width="16.5332" height="48.6267" filterUnits="userSpaceOnUse" color-interpolation-filters="sRGB">
<feFlood flood-opacity="0" result="BackgroundImageFix"/>
<feBlend mode="normal" in="SourceGraphic" in2="BackgroundImageFix" result="shape"/>
<feColorMatrix in="SourceAlpha" type="matrix" values="0 0 0 0 0 0 0 0 0 0 0 0 0 0 0 0 0 0 127 0" result="hardAlpha"/>
<feOffset dx="1.1824" dy="1.1824"/>
<feComposite in2="hardAlpha" operator="arithmetic" k2="-1" k3="1"/>
<feColorMatrix type="matrix" values="0 0 0 0 0.442742 0 0 0 0 0.28863 0 0 0 0 0.91137 0 0 0 1 0"/>
<feBlend mode="normal" in2="shape" result="effect1_innerShadow_101_1142"/>
</filter>
<filter id="filter7_d_101_1142" x="79.8957" y="33.0627" width="14.7115" height="19.6167" filterUnits="userSpaceOnUse" color-interpolation-filters="sRGB">
<feFlood flood-opacity="0" result="BackgroundImageFix"/>
<feColorMatrix in="SourceAlpha" type="matrix" values="0 0 0 0 0 0 0 0 0 0 0 0 0 0 0 0 0 0 127 0" result="hardAlpha"/>
<feOffset dy="1.8995"/>
<feGaussianBlur stdDeviation="2.84925"/>
<feComposite in2="hardAlpha" operator="out"/>
<feColorMatrix type="matrix" values="0 0 0 0 0.894118 0 0 0 0 0.690196 0 0 0 0 0.164706 0 0 0 1 0"/>
<feBlend mode="normal" in2="BackgroundImageFix" result="effect1_dropShadow_101_1142"/>
<feBlend mode="normal" in="SourceGraphic" in2="effect1_dropShadow_101_1142" result="shape"/>
</filter>
<filter id="filter8_d_101_1142" x="101.835" y="38.012" width="14.0645" height="15.1676" filterUnits="userSpaceOnUse" color-interpolation-filters="sRGB">
<feFlood flood-opacity="0" result="BackgroundImageFix"/>
<feColorMatrix in="SourceAlpha" type="matrix" values="0 0 0 0 0 0 0 0 0 0 0 0 0 0 0 0 0 0 127 0" result="hardAlpha"/>
<feOffset dy="1.8995"/>
<feGaussianBlur stdDeviation="2.84925"/>
<feComposite in2="hardAlpha" operator="out"/>
<feColorMatrix type="matrix" values="0 0 0 0 0.894118 0 0 0 0 0.690196 0 0 0 0 0.164706 0 0 0 1 0"/>
<feBlend mode="normal" in2="BackgroundImageFix" result="effect1_dropShadow_101_1142"/>
<feBlend mode="normal" in="SourceGraphic" in2="effect1_dropShadow_101_1142" result="shape"/>
</filter>
<filter id="filter9_i_101_1142" x="115.87" y="2.59998" width="7.57568" height="4.5531" filterUnits="userSpaceOnUse" color-interpolation-filters="sRGB">
<feFlood flood-opacity="0" result="BackgroundImageFix"/>
<feBlend mode="normal" in="SourceGraphic" in2="BackgroundImageFix" result="shape"/>
<feColorMatrix in="SourceAlpha" type="matrix" values="0 0 0 0 0 0 0 0 0 0 0 0 0 0 0 0 0 0 127 0" result="hardAlpha"/>
<feOffset dx="0.2956" dy="0.2956"/>
<feComposite in2="hardAlpha" operator="arithmetic" k2="-1" k3="1"/>
<feColorMatrix type="matrix" values="0 0 0 0 0.442742 0 0 0 0 0.28863 0 0 0 0 0.91137 0 0 0 1 0"/>
<feBlend mode="normal" in2="shape" result="effect1_innerShadow_101_1142"/>
</filter>
<filter id="filter10_i_101_1142" x="59.8345" y="15.4216" width="12.0293" height="6.92017" filterUnits="userSpaceOnUse" color-interpolation-filters="sRGB">
<feFlood flood-opacity="0" result="BackgroundImageFix"/>
<feBlend mode="normal" in="SourceGraphic" in2="BackgroundImageFix" result="shape"/>
<feColorMatrix in="SourceAlpha" type="matrix" values="0 0 0 0 0 0 0 0 0 0 0 0 0 0 0 0 0 0 127 0" result="hardAlpha"/>
<feOffset dx="0.2956" dy="0.2956"/>
<feComposite in2="hardAlpha" operator="arithmetic" k2="-1" k3="1"/>
<feColorMatrix type="matrix" values="0 0 0 0 0.442742 0 0 0 0 0.28863 0 0 0 0 0.91137 0 0 0 1 0"/>
<feBlend mode="normal" in2="shape" result="effect1_innerShadow_101_1142"/>
</filter>
<linearGradient id="paint0_linear_101_1142" x1="93.9699" y1="42.7922" x2="105.198" y2="67.6245" gradientUnits="userSpaceOnUse">
<stop stop-color="#4F1EE4"/>
<stop offset="1" stop-color="#321B88"/>
</linearGradient>
<linearGradient id="paint1_linear_101_1142" x1="86.8756" y1="29.7858" x2="90.4228" y2="68.805" gradientUnits="userSpaceOnUse">
<stop stop-color="#4F1EE4"/>
<stop offset="1" stop-color="#1E0F53"/>
</linearGradient>
<linearGradient id="paint2_linear_101_1142" x1="50.91" y1="83.5806" x2="20.1676" y2="83.5806" gradientUnits="userSpaceOnUse">
<stop stop-color="#DBDEFF"/>
<stop offset="1" stop-color="#DBDEFF" stop-opacity="0"/>
</linearGradient>
<linearGradient id="paint3_linear_101_1142" x1="174.373" y1="86.0189" x2="143.631" y2="86.0189" gradientUnits="userSpaceOnUse">
<stop stop-color="#DBDEFF" stop-opacity="0"/>
<stop offset="1" stop-color="#DBDEFF"/>
</linearGradient>
</defs>
</svg>
